<mxfile host="app.diagrams.net" modified="2022-12-11T22:52:37.407Z" agent="5.0 (Windows)" version="20.6.2" etag="OJsQ4tqqcJ8lS6s2kiQg" type="github">
  <diagram id="V0knbV8iQ22P4xH83Vtx" name="app">
    <mxGraphModel dx="5649" dy="1244" grid="1" gridSize="10" guides="1" tooltips="1" connect="1" arrows="1" fold="1" page="1" pageScale="1" pageWidth="850" pageHeight="1100" math="0" shadow="0">
      <root>
        <mxCell id="0" />
        <mxCell id="1" parent="0" />
        <UserObject label="" plantUmlData="{&#xa;  &quot;data&quot;: &quot;@startuml\nset namespaceSeparator ::\n\nclass \&quot;blackjackapp::api::cardvalue.dart::CardType\&quot; {\n  +int index\n  {static} +List&lt;CardType&gt; values\n  {static} +CardType one\n  {static} +CardType two\n  {static} +CardType three\n  {static} +CardType four\n  {static} +CardType five\n  {static} +CardType six\n  {static} +CardType seven\n  {static} +CardType eight\n  {static} +CardType nine\n  {static} +CardType ten\n  {static} +CardType jack\n  {static} +CardType queen\n  {static} +CardType king\n}\n\n\&quot;blackjackapp::api::cardvalue.dart::CardType\&quot; o-- \&quot;blackjackapp::api::cardvalue.dart::CardType\&quot;\n\&quot;dart::core::Enum\&quot; &lt;|-- \&quot;blackjackapp::api::cardvalue.dart::CardType\&quot;\n\nclass \&quot;blackjackapp::api::cardvalue.dart::Suit\&quot; {\n  +int index\n  {static} +List&lt;Suit&gt; values\n  {static} +Suit spades\n  {static} +Suit hearts\n  {static} +Suit diamonds\n  {static} +Suit clubs\n  {static} +Suit joker\n}\n\n\&quot;blackjackapp::api::cardvalue.dart::Suit\&quot; o-- \&quot;blackjackapp::api::cardvalue.dart::Suit\&quot;\n\&quot;dart::core::Enum\&quot; &lt;|-- \&quot;blackjackapp::api::cardvalue.dart::Suit\&quot;\n\nclass \&quot;blackjackapp::api::playingcard.dart::PlayingCard\&quot; {\n  +Suit suit\n  +CardType value\n}\n\n\&quot;blackjackapp::api::playingcard.dart::PlayingCard\&quot; o-- \&quot;blackjackapp::api::cardvalue.dart::Suit\&quot;\n\&quot;blackjackapp::api::playingcard.dart::PlayingCard\&quot; o-- \&quot;blackjackapp::api::cardvalue.dart::CardType\&quot;\n\nclass \&quot;blackjackapp::components::cardback.dart::CardBack\&quot; {\n  +dynamic color\n  +Widget build()\n}\n\n\&quot;flutter::src::widgets::framework.dart::StatelessWidget\&quot; &lt;|-- \&quot;blackjackapp::components::cardback.dart::CardBack\&quot;\n\nclass \&quot;blackjackapp::components::cardtemplate.dart::CardTemplate\&quot; {\n  +dynamic suit\n  +dynamic number\n  +Widget build()\n}\n\n\&quot;flutter::src::widgets::framework.dart::StatelessWidget\&quot; &lt;|-- \&quot;blackjackapp::components::cardtemplate.dart::CardTemplate\&quot;\n\nclass \&quot;blackjackapp::components::gameboard.dart::GameBoard\&quot; {\n  +Widget build()\n}\n\n\&quot;flutter::src::widgets::framework.dart::StatelessWidget\&quot; &lt;|-- \&quot;blackjackapp::components::gameboard.dart::GameBoard\&quot;\n\nclass \&quot;blackjackapp::main.dart::MyApp\&quot; {\n  +Widget build()\n}\n\n\&quot;flutter::src::widgets::framework.dart::StatelessWidget\&quot; &lt;|-- \&quot;blackjackapp::main.dart::MyApp\&quot;\n\nclass \&quot;blackjackapp::models::card_model.dart::CardModel\&quot; {\n  +String image\n  +Suit suit\n  +String value\n  {static} +Suit stringToSuit()\n  {static} +String suitToString()\n  {static} +String suitToUnicode()\n  {static} +Color suitToColor()\n}\n\n\&quot;blackjackapp::models::card_model.dart::CardModel\&quot; o-- \&quot;blackjackapp::models::card_model.dart::Suit\&quot;\n\nclass \&quot;blackjackapp::models::card_model.dart::Suit\&quot; {\n  +int index\n  {static} +List&lt;Suit&gt; values\n  {static} +Suit hearts\n  {static} +Suit clubs\n  {static} +Suit diamonds\n  {static} +Suit spades\n  {static} +Suit other\n}\n\n\&quot;blackjackapp::models::card_model.dart::Suit\&quot; o-- \&quot;blackjackapp::models::card_model.dart::Suit\&quot;\n\&quot;dart::core::Enum\&quot; &lt;|-- \&quot;blackjackapp::models::card_model.dart::Suit\&quot;\n\nclass \&quot;blackjackapp::models::deck_model.dart::DeckModel\&quot; {\n  +String deckId\n  +bool shuffled\n  +int remaining\n}\n\nclass \&quot;blackjackapp::models::draw_model.dart::DrawModel\&quot; {\n  +int remaining\n  +List&lt;CardModel&gt; cards\n}\n\nclass \&quot;blackjackapp::models::player_model.dart::PlayerModel\&quot; {\n  +String name\n  +bool isHuman\n  +List&lt;CardModel&gt; cards\n}\n\nclass \&quot;blackjackapp::screens::game_screen.dart::GameScreen\&quot; {\n  +State&lt;GameScreen&gt; createState()\n}\n\n\&quot;flutter::src::widgets::framework.dart::StatefulWidget\&quot; &lt;|-- \&quot;blackjackapp::screens::game_screen.dart::GameScreen\&quot;\n\nclass \&quot;blackjackapp::screens::game_screen.dart::_GameScreenState\&quot; {\n  +void initState()\n  +void tempFunc()\n  +Widget build()\n}\n\n\&quot;flutter::src::widgets::framework.dart::State\&quot; &lt;|-- \&quot;blackjackapp::screens::game_screen.dart::_GameScreenState\&quot;\n\nclass \&quot;blackjackapp::screens::homepage.dart::Homepage\&quot; {\n  +_HomePageState createState()\n}\n\n\&quot;flutter::src::widgets::framework.dart::StatefulWidget\&quot; &lt;|-- \&quot;blackjackapp::screens::homepage.dart::Homepage\&quot;\n\nclass \&quot;blackjackapp::screens::homepage.dart::_HomePageState\&quot; {\n  -AnimationController _animationController\n  -Animation&lt;double&gt; _animation\n  -AnimationStatus _animationStatus\n  +void initState()\n  +Widget build()\n  +Widget getFlippingCard()\n}\n\n\&quot;blackjackapp::screens::homepage.dart::_HomePageState\&quot; o-- \&quot;flutter::src::animation::animation_controller.dart::AnimationController\&quot;\n\&quot;blackjackapp::screens::homepage.dart::_HomePageState\&quot; o-- \&quot;flutter::src::animation::animation.dart::Animation&lt;double&gt;\&quot;\n\&quot;blackjackapp::screens::homepage.dart::_HomePageState\&quot; o-- \&quot;flutter::src::animation::animation.dart::AnimationStatus\&quot;\n\&quot;flutter::src::widgets::framework.dart::State\&quot; &lt;|-- \&quot;blackjackapp::screens::homepage.dart::_HomePageState\&quot;\n\&quot;flutter::src::widgets::ticker_provider.dart::SingleTickerProviderStateMixin\&quot; &lt;|-- \&quot;blackjackapp::screens::homepage.dart::_HomePageState\&quot;\n\nclass \&quot;blackjackapp::screens::splashscreen.dart::SplashScreen\&quot; {\n  +State&lt;StatefulWidget&gt; createState()\n}\n\n\&quot;flutter::src::widgets::framework.dart::StatefulWidget\&quot; &lt;|-- \&quot;blackjackapp::screens::splashscreen.dart::SplashScreen\&quot;\n\nclass \&quot;blackjackapp::screens::splashscreen.dart::StartState\&quot; {\n  +void initState()\n  +dynamic startTimer()\n  +dynamic route()\n  +Widget build()\n}\n\n\&quot;flutter::src::widgets::framework.dart::State\&quot; &lt;|-- \&quot;blackjackapp::screens::splashscreen.dart::StartState\&quot;\n\nclass \&quot;blackjackapp::services::api_service.dart::ApiService\&quot; {\n  {static} +String baseUrl\n  -Uri _url()\n  +Future&lt;Map&lt;String, dynamic&gt;&gt; httpGet()\n}\n\nclass \&quot;blackjackapp::services::deck_service.dart::DeckService\&quot; {\n  +Future&lt;DeckModel&gt; newDeck()\n  +Future&lt;DrawModel&gt; drawCards()\n}\n\n\&quot;blackjackapp::services::api_service.dart::ApiService\&quot; &lt;|-- \&quot;blackjackapp::services::deck_service.dart::DeckService\&quot;\n\n\n@enduml&quot;,&#xa;  &quot;format&quot;: &quot;svg&quot;&#xa;}" id="OJsAIJ7-Spjxar58HCzf-1">
          <mxCell style="shape=image;noLabel=1;verticalAlign=top;aspect=fixed;imageAspect=0;image=data:image/svg+xml,PD94bWwgdmVyc2lvbj0iMS4wIiBlbmNvZGluZz0iVVRGLTgiIHN0YW5kYWxvbmU9Im5vIj8+PHN2ZyB4bWxucz0iaHR0cDovL3d3dy53My5vcmcvMjAwMC9zdmciIHhtbG5zOnhsaW5rPSJodHRwOi8vd3d3LnczLm9yZy8xOTk5L3hsaW5rIiBjb250ZW50U3R5bGVUeXBlPSJ0ZXh0L2NzcyIgaGVpZ2h0PSI2NjlweCIgcHJlc2VydmVBc3BlY3RSYXRpbz0ibm9uZSIgc3R5bGU9IndpZHRoOjQ4ODVweDtoZWlnaHQ6NjY5cHg7YmFja2dyb3VuZDojRkZGRkZGOyIgdmVyc2lvbj0iMS4xIiB2aWV3Qm94PSIwIDAgNDg4NSA2NjkiIHdpZHRoPSI0ODg1cHgiIHpvb21BbmRQYW49Im1hZ25pZnkiPjxkZWZzLz48Zz48IS0tTUQ1PVs3ODJmNDU5ZDk1OTgyMDNiYTg4NjA4NjE1MDE4OTU4ZF0KY2x1c3RlciBibGFja2phY2thcHA6OmFwaTo6Y2FyZHZhbHVlLmRhcnQtLT48ZyBpZD0iY2x1c3Rlcl9ibGFja2phY2thcHA6OmFwaTo6Y2FyZHZhbHVlLmRhcnQiPjxwYXRoIGQ9Ik03MC41LDIxOSBMMzAyLjUsMjE5IEEzLjc1LDMuNzUgMCAwIDEgMzA1LDIyMS41IEwzMTIsMjM5Ljk4NDQgTDQ4Ny41LDIzOS45ODQ0IEEyLjUsMi41IDAgMCAxIDQ5MCwyNDIuNDg0NCBMNDkwLDUzOC41IEEyLjUsMi41IDAgMCAxIDQ4Ny41LDU0MSBMNzAuNSw1NDEgQTIuNSwyLjUgMCAwIDEgNjgsNTM4LjUgTDY4LDIyMS41IEEyLjUsMi41IDAgMCAxIDcwLjUsMjE5ICIgc3R5bGU9InN0cm9rZTojMDAwMDAwO3N0cm9rZS13aWR0aDoxLjU7ZmlsbDpub25lOyIvPjxsaW5lIHN0eWxlPSJzdHJva2U6IzAwMDAwMDtzdHJva2Utd2lkdGg6MS41O2ZpbGw6bm9uZTsiIHgxPSI2OCIgeDI9IjMxMiIgeTE9IjIzOS45ODQ0IiB5Mj0iMjM5Ljk4NDQiLz48dGV4dCBmaWxsPSIjMDAwMDAwIiBmb250LWZhbWlseT0ic2Fucy1zZXJpZiIgZm9udC1zaXplPSIxNCIgZm9udC13ZWlnaHQ9ImJvbGQiIGxlbmd0aEFkanVzdD0ic3BhY2luZyIgdGV4dExlbmd0aD0iMjMxIiB4PSI3MiIgeT0iMjM0LjIzNDQiPmJsYWNramFja2FwcDo6YXBpOjpjYXJkdmFsdWUuZGFydDwvdGV4dD48L2c+PCEtLU1ENT1bZGUyMzJmZGMxMzE0YzIwZDIzYzY0YmU1MTBiYTgxOGZdCmNsdXN0ZXIgZGFydDo6Y29yZS0tPjxnIGlkPSJjbHVzdGVyX2RhcnQ6OmNvcmUiPjxwYXRoIGQ9Ik0zMjQuNSw1OC41IEwzOTUuNSw1OC41IEEzLjc1LDMuNzUgMCAwIDEgMzk4LDYxIEw0MDUsNzkuNDg0NCBMNDEzLjUsNzkuNDg0NCBBMi41LDIuNSAwIDAgMSA0MTYsODEuOTg0NCBMNDE2LDE1MyBBMi41LDIuNSAwIDAgMSA0MTMuNSwxNTUuNSBMMzI0LjUsMTU1LjUgQTIuNSwyLjUgMCAwIDEgMzIyLDE1MyBMMzIyLDYxIEEyLjUsMi41IDAgMCAxIDMyNC41LDU4LjUgIiBzdHlsZT0ic3Ryb2tlOiMwMDAwMDA7c3Ryb2tlLXdpZHRoOjEuNTtmaWxsOm5vbmU7Ii8+PGxpbmUgc3R5bGU9InN0cm9rZTojMDAwMDAwO3N0cm9rZS13aWR0aDoxLjU7ZmlsbDpub25lOyIgeDE9IjMyMiIgeDI9IjQwNSIgeTE9Ijc5LjQ4NDQiIHkyPSI3OS40ODQ0Ii8+PHRleHQgZmlsbD0iIzAwMDAwMCIgZm9udC1mYW1pbHk9InNhbnMtc2VyaWYiIGZvbnQtc2l6ZT0iMTQiIGZvbnQtd2VpZ2h0PSJib2xkIiBsZW5ndGhBZGp1c3Q9InNwYWNpbmciIHRleHRMZW5ndGg9IjcwIiB4PSIzMjYiIHk9IjczLjczNDQiPmRhcnQ6OmNvcmU8L3RleHQ+PC9nPjwhLS1NRDU9W2ZjOTdiZDU5NTM1YzdjYzQ4ZGVhYmY1NjE0MTRjZTU0XQpjbHVzdGVyIGJsYWNramFja2FwcDo6YXBpOjpwbGF5aW5nY2FyZC5kYXJ0LS0+PGcgaWQ9ImNsdXN0ZXJfYmxhY2tqYWNrYXBwOjphcGk6OnBsYXlpbmdjYXJkLmRhcnQiPjxwYXRoIGQ9Ik04LjUsNDMuNSBMMjU0LjUsNDMuNSBBMy43NSwzLjc1IDAgMCAxIDI1Nyw0NiBMMjY0LDY0LjQ4NDQgTDI2NC41LDY0LjQ4NDQgQTIuNSwyLjUgMCAwIDEgMjY3LDY2Ljk4NDQgTDI2NywxNjggQTIuNSwyLjUgMCAwIDEgMjY0LjUsMTcwLjUgTDguNSwxNzAuNSBBMi41LDIuNSAwIDAgMSA2LDE2OCBMNiw0NiBBMi41LDIuNSAwIDAgMSA4LjUsNDMuNSAiIHN0eWxlPSJzdHJva2U6IzAwMDAwMDtzdHJva2Utd2lkdGg6MS41O2ZpbGw6bm9uZTsiLz48bGluZSBzdHlsZT0ic3Ryb2tlOiMwMDAwMDA7c3Ryb2tlLXdpZHRoOjEuNTtmaWxsOm5vbmU7IiB4MT0iNiIgeDI9IjI2NCIgeTE9IjY0LjQ4NDQiIHkyPSI2NC40ODQ0Ii8+PHRleHQgZmlsbD0iIzAwMDAwMCIgZm9udC1mYW1pbHk9InNhbnMtc2VyaWYiIGZvbnQtc2l6ZT0iMTQiIGZvbnQtd2VpZ2h0PSJib2xkIiBsZW5ndGhBZGp1c3Q9InNwYWNpbmciIHRleHRMZW5ndGg9IjI0NSIgeD0iMTAiIHk9IjU4LjczNDQiPmJsYWNramFja2FwcDo6YXBpOjpwbGF5aW5nY2FyZC5kYXJ0PC90ZXh0PjwvZz48IS0tTUQ1PVtjNTA3YjlmYjU1NDdjZDA4YzM0MjZkMjgwZWQ1NGY1ZF0KY2x1c3RlciBibGFja2phY2thcHA6OmNvbXBvbmVudHM6OmNhcmRiYWNrLmRhcnQtLT48ZyBpZD0iY2x1c3Rlcl9ibGFja2phY2thcHA6OmNvbXBvbmVudHM6OmNhcmRiYWNrLmRhcnQiPjxwYXRoIGQ9Ik04MTcuNSwzMTYuNSBMMTA5Mi41LDMxNi41IEEzLjc1LDMuNzUgMCAwIDEgMTA5NSwzMTkgTDExMDIsMzM3LjQ4NDQgTDExMDIuNSwzMzcuNDg0NCBBMi41LDIuNSAwIDAgMSAxMTA1LDMzOS45ODQ0IEwxMTA1LDQ0MSBBMi41LDIuNSAwIDAgMSAxMTAyLjUsNDQzLjUgTDgxNy41LDQ0My41IEEyLjUsMi41IDAgMCAxIDgxNSw0NDEgTDgxNSwzMTkgQTIuNSwyLjUgMCAwIDEgODE3LjUsMzE2LjUgIiBzdHlsZT0ic3Ryb2tlOiMwMDAwMDA7c3Ryb2tlLXdpZHRoOjEuNTtmaWxsOm5vbmU7Ii8+PGxpbmUgc3R5bGU9InN0cm9rZTojMDAwMDAwO3N0cm9rZS13aWR0aDoxLjU7ZmlsbDpub25lOyIgeDE9IjgxNSIgeDI9IjExMDIiIHkxPSIzMzcuNDg0NCIgeTI9IjMzNy40ODQ0Ii8+PHRleHQgZmlsbD0iIzAwMDAwMCIgZm9udC1mYW1pbHk9InNhbnMtc2VyaWYiIGZvbnQtc2l6ZT0iMTQiIGZvbnQtd2VpZ2h0PSJib2xkIiBsZW5ndGhBZGp1c3Q9InNwYWNpbmciIHRleHRMZW5ndGg9IjI3NCIgeD0iODE5IiB5PSIzMzEuNzM0NCI+YmxhY2tqYWNrYXBwOjpjb21wb25lbnRzOjpjYXJkYmFjay5kYXJ0PC90ZXh0PjwvZz48IS0tTUQ1PVsxYjkxMjM2Y2NjNGUyNTg0MzFkMDBiOGIxOWZkZjZjYV0KY2x1c3RlciBmbHV0dGVyOjpzcmM6OndpZGdldHM6OmZyYW1ld29yay5kYXJ0LS0+PGcgaWQ9ImNsdXN0ZXJfZmx1dHRlcjo6c3JjOjp3aWRnZXRzOjpmcmFtZXdvcmsuZGFydCI+PHBhdGggZD0iTTE5MzEuNSw1OC41IEwyMTk0LjUsNTguNSBBMy43NSwzLjc1IDAgMCAxIDIxOTcsNjEgTDIyMDQsNzkuNDg0NCBMMjM2NC41LDc5LjQ4NDQgQTIuNSwyLjUgMCAwIDEgMjM2Nyw4MS45ODQ0IEwyMzY3LDE1MyBBMi41LDIuNSAwIDAgMSAyMzY0LjUsMTU1LjUgTDE5MzEuNSwxNTUuNSBBMi41LDIuNSAwIDAgMSAxOTI5LDE1MyBMMTkyOSw2MSBBMi41LDIuNSAwIDAgMSAxOTMxLjUsNTguNSAiIHN0eWxlPSJzdHJva2U6IzAwMDAwMDtzdHJva2Utd2lkdGg6MS41O2ZpbGw6bm9uZTsiLz48bGluZSBzdHlsZT0ic3Ryb2tlOiMwMDAwMDA7c3Ryb2tlLXdpZHRoOjEuNTtmaWxsOm5vbmU7IiB4MT0iMTkyOSIgeDI9IjIyMDQiIHkxPSI3OS40ODQ0IiB5Mj0iNzkuNDg0NCIvPjx0ZXh0IGZpbGw9IiMwMDAwMDAiIGZvbnQtZmFtaWx5PSJzYW5zLXNlcmlmIiBmb250LXNpemU9IjE0IiBmb250LXdlaWdodD0iYm9sZCIgbGVuZ3RoQWRqdXN0PSJzcGFjaW5nIiB0ZXh0TGVuZ3RoPSIyNjIiIHg9IjE5MzMiIHk9IjczLjczNDQiPmZsdXR0ZXI6OnNyYzo6d2lkZ2V0czo6ZnJhbWV3b3JrLmRhcnQ8L3RleHQ+PC9nPjwhLS1NRDU9W2IxNTZjMGM3ODAzOGI5NTYzOGZhYmYzNDhmNjQxZDFjXQpjbHVzdGVyIGJsYWNramFja2FwcDo6Y29tcG9uZW50czo6Y2FyZHRlbXBsYXRlLmRhcnQtLT48ZyBpZD0iY2x1c3Rlcl9ibGFja2phY2thcHA6OmNvbXBvbmVudHM6OmNhcmR0ZW1wbGF0ZS5kYXJ0Ij48cGF0aCBkPSJNMTEzMS41LDMwOSBMMTQzNS41LDMwOSBBMy43NSwzLjc1IDAgMCAxIDE0MzgsMzExLjUgTDE0NDUsMzI5Ljk4NDQgTDE0NDUuNSwzMjkuOTg0NCBBMi41LDIuNSAwIDAgMSAxNDQ4LDMzMi40ODQ0IEwxNDQ4LDQ0OC41IEEyLjUsMi41IDAgMCAxIDE0NDUuNSw0NTEgTDExMzEuNSw0NTEgQTIuNSwyLjUgMCAwIDEgMTEyOSw0NDguNSBMMTEyOSwzMTEuNSBBMi41LDIuNSAwIDAgMSAxMTMxLjUsMzA5ICIgc3R5bGU9InN0cm9rZTojMDAwMDAwO3N0cm9rZS13aWR0aDoxLjU7ZmlsbDpub25lOyIvPjxsaW5lIHN0eWxlPSJzdHJva2U6IzAwMDAwMDtzdHJva2Utd2lkdGg6MS41O2ZpbGw6bm9uZTsiIHgxPSIxMTI5IiB4Mj0iMTQ0NSIgeTE9IjMyOS45ODQ0IiB5Mj0iMzI5Ljk4NDQiLz48dGV4dCBmaWxsPSIjMDAwMDAwIiBmb250LWZhbWlseT0ic2Fucy1zZXJpZiIgZm9udC1zaXplPSIxNCIgZm9udC13ZWlnaHQ9ImJvbGQiIGxlbmd0aEFkanVzdD0ic3BhY2luZyIgdGV4dExlbmd0aD0iMzAzIiB4PSIxMTMzIiB5PSIzMjQuMjM0NCI+YmxhY2tqYWNrYXBwOjpjb21wb25lbnRzOjpjYXJkdGVtcGxhdGUuZGFydDwvdGV4dD48L2c+PCEtLU1ENT1bNDRlMmY1NDQyYzlmYmE1OGQ1MzhiN2E2YmFlMDMxMTBdCmNsdXN0ZXIgYmxhY2tqYWNrYXBwOjpjb21wb25lbnRzOjpnYW1lYm9hcmQuZGFydC0tPjxnIGlkPSJjbHVzdGVyX2JsYWNramFja2FwcDo6Y29tcG9uZW50czo6Z2FtZWJvYXJkLmRhcnQiPjxwYXRoIGQ9Ik0xNDc0LjUsMzI0IEwxNzU3LjUsMzI0IEEzLjc1LDMuNzUgMCAwIDEgMTc2MCwzMjYuNSBMMTc2NywzNDQuOTg0NCBMMTc2Ny41LDM0NC45ODQ0IEEyLjUsMi41IDAgMCAxIDE3NzAsMzQ3LjQ4NDQgTDE3NzAsNDMzLjUgQTIuNSwyLjUgMCAwIDEgMTc2Ny41LDQzNiBMMTQ3NC41LDQzNiBBMi41LDIuNSAwIDAgMSAxNDcyLDQzMy41IEwxNDcyLDMyNi41IEEyLjUsMi41IDAgMCAxIDE0NzQuNSwzMjQgIiBzdHlsZT0ic3Ryb2tlOiMwMDAwMDA7c3Ryb2tlLXdpZHRoOjEuNTtmaWxsOm5vbmU7Ii8+PGxpbmUgc3R5bGU9InN0cm9rZTojMDAwMDAwO3N0cm9rZS13aWR0aDoxLjU7ZmlsbDpub25lOyIgeDE9IjE0NzIiIHgyPSIxNzY3IiB5MT0iMzQ0Ljk4NDQiIHkyPSIzNDQuOTg0NCIvPjx0ZXh0IGZpbGw9IiMwMDAwMDAiIGZvbnQtZmFtaWx5PSJzYW5zLXNlcmlmIiBmb250LXNpemU9IjE0IiBmb250LXdlaWdodD0iYm9sZCIgbGVuZ3RoQWRqdXN0PSJzcGFjaW5nIiB0ZXh0TGVuZ3RoPSIyODIiIHg9IjE0NzYiIHk9IjMzOS4yMzQ0Ij5ibGFja2phY2thcHA6OmNvbXBvbmVudHM6OmdhbWVib2FyZC5kYXJ0PC90ZXh0PjwvZz48IS0tTUQ1PVs4ZTI5NmM0YzU4OWFkMjA2OGQ3MjkxMTVmNzgyYTVhY10KY2x1c3RlciBibGFja2phY2thcHA6Om1haW4uZGFydC0tPjxnIGlkPSJjbHVzdGVyX2JsYWNramFja2FwcDo6bWFpbi5kYXJ0Ij48cGF0aCBkPSJNMTc5Ni41LDMyNCBMMTk1OS41LDMyNCBBMy43NSwzLjc1IDAgMCAxIDE5NjIsMzI2LjUgTDE5NjksMzQ0Ljk4NDQgTDE5NjkuNSwzNDQuOTg0NCBBMi41LDIuNSAwIDAgMSAxOTcyLDM0Ny40ODQ0IEwxOTcyLDQzMy41IEEyLjUsMi41IDAgMCAxIDE5NjkuNSw0MzYgTDE3OTYuNSw0MzYgQTIuNSwyLjUgMCAwIDEgMTc5NCw0MzMuNSBMMTc5NCwzMjYuNSBBMi41LDIuNSAwIDAgMSAxNzk2LjUsMzI0ICIgc3R5bGU9InN0cm9rZTojMDAwMDAwO3N0cm9rZS13aWR0aDoxLjU7ZmlsbDpub25lOyIvPjxsaW5lIHN0eWxlPSJzdHJva2U6IzAwMDAwMDtzdHJva2Utd2lkdGg6MS41O2ZpbGw6bm9uZTsiIHgxPSIxNzk0IiB4Mj0iMTk2OSIgeTE9IjM0NC45ODQ0IiB5Mj0iMzQ0Ljk4NDQiLz48dGV4dCBmaWxsPSIjMDAwMDAwIiBmb250LWZhbWlseT0ic2Fucy1zZXJpZiIgZm9udC1zaXplPSIxNCIgZm9udC13ZWlnaHQ9ImJvbGQiIGxlbmd0aEFkanVzdD0ic3BhY2luZyIgdGV4dExlbmd0aD0iMTYyIiB4PSIxNzk4IiB5PSIzMzkuMjM0NCI+YmxhY2tqYWNrYXBwOjptYWluLmRhcnQ8L3RleHQ+PC9nPjwhLS1NRDU9W2IzM2Y2ZTA5YjJlZTlhZDY4NjZkZjJhYjM3ZDFkM2ZmXQpjbHVzdGVyIGJsYWNramFja2FwcDo6bW9kZWxzOjpjYXJkX21vZGVsLmRhcnQtLT48ZyBpZD0iY2x1c3Rlcl9ibGFja2phY2thcHA6Om1vZGVsczo6Y2FyZF9tb2RlbC5kYXJ0Ij48cGF0aCBkPSJNNTE2LjUsNiBMNzc4LjUsNiBBMy43NSwzLjc1IDAgMCAxIDc4MSw4LjUgTDc4OCwyNi45ODQ0IEw3ODguNSwyNi45ODQ0IEEyLjUsMi41IDAgMCAxIDc5MSwyOS40ODQ0IEw3OTEsNDc4LjUgQTIuNSwyLjUgMCAwIDEgNzg4LjUsNDgxIEw1MTYuNSw0ODEgQTIuNSwyLjUgMCAwIDEgNTE0LDQ3OC41IEw1MTQsOC41IEEyLjUsMi41IDAgMCAxIDUxNi41LDYgIiBzdHlsZT0ic3Ryb2tlOiMwMDAwMDA7c3Ryb2tlLXdpZHRoOjEuNTtmaWxsOm5vbmU7Ii8+PGxpbmUgc3R5bGU9InN0cm9rZTojMDAwMDAwO3N0cm9rZS13aWR0aDoxLjU7ZmlsbDpub25lOyIgeDE9IjUxNCIgeDI9Ijc4OCIgeTE9IjI2Ljk4NDQiIHkyPSIyNi45ODQ0Ii8+PHRleHQgZmlsbD0iIzAwMDAwMCIgZm9udC1mYW1pbHk9InNhbnMtc2VyaWYiIGZvbnQtc2l6ZT0iMTQiIGZvbnQtd2VpZ2h0PSJib2xkIiBsZW5ndGhBZGp1c3Q9InNwYWNpbmciIHRleHRMZW5ndGg9IjI2MSIgeD0iNTE4IiB5PSIyMS4yMzQ0Ij5ibGFja2phY2thcHA6Om1vZGVsczo6Y2FyZF9tb2RlbC5kYXJ0PC90ZXh0PjwvZz48IS0tTUQ1PVswZDYxNzUzMmU0YzgwNTAzNGM5NmRhNDRhMmIyNmY1OF0KY2x1c3RlciBibGFja2phY2thcHA6Om1vZGVsczo6ZGVja19tb2RlbC5kYXJ0LS0+PGcgaWQ9ImNsdXN0ZXJfYmxhY2tqYWNrYXBwOjptb2RlbHM6OmRlY2tfbW9kZWwuZGFydCI+PHBhdGggZD0iTTM2MzAuNSwzNiBMMzg5Mi41LDM2IEEzLjc1LDMuNzUgMCAwIDEgMzg5NSwzOC41IEwzOTAyLDU2Ljk4NDQgTDM5MDIuNSw1Ni45ODQ0IEEyLjUsMi41IDAgMCAxIDM5MDUsNTkuNDg0NCBMMzkwNSwxNzUuNSBBMi41LDIuNSAwIDAgMSAzOTAyLjUsMTc4IEwzNjMwLjUsMTc4IEEyLjUsMi41IDAgMCAxIDM2MjgsMTc1LjUgTDM2MjgsMzguNSBBMi41LDIuNSAwIDAgMSAzNjMwLjUsMzYgIiBzdHlsZT0ic3Ryb2tlOiMwMDAwMDA7c3Ryb2tlLXdpZHRoOjEuNTtmaWxsOm5vbmU7Ii8+PGxpbmUgc3R5bGU9InN0cm9rZTojMDAwMDAwO3N0cm9rZS13aWR0aDoxLjU7ZmlsbDpub25lOyIgeDE9IjM2MjgiIHgyPSIzOTAyIiB5MT0iNTYuOTg0NCIgeTI9IjU2Ljk4NDQiLz48dGV4dCBmaWxsPSIjMDAwMDAwIiBmb250LWZhbWlseT0ic2Fucy1zZXJpZiIgZm9udC1zaXplPSIxNCIgZm9udC13ZWlnaHQ9ImJvbGQiIGxlbmd0aEFkanVzdD0ic3BhY2luZyIgdGV4dExlbmd0aD0iMjYxIiB4PSIzNjMyIiB5PSI1MS4yMzQ0Ij5ibGFja2phY2thcHA6Om1vZGVsczo6ZGVja19tb2RlbC5kYXJ0PC90ZXh0PjwvZz48IS0tTUQ1PVswMzc4NDg4NTYyZDY1ZTY5ZGJhYTUwNGM1ZmRmMjUzNl0KY2x1c3RlciBibGFja2phY2thcHA6Om1vZGVsczo6ZHJhd19tb2RlbC5kYXJ0LS0+PGcgaWQ9ImNsdXN0ZXJfYmxhY2tqYWNrYXBwOjptb2RlbHM6OmRyYXdfbW9kZWwuZGFydCI+PHBhdGggZD0iTTM5MzEuNSw0My41IEw0MTk0LjUsNDMuNSBBMy43NSwzLjc1IDAgMCAxIDQxOTcsNDYgTDQyMDQsNjQuNDg0NCBMNDIwNC41LDY0LjQ4NDQgQTIuNSwyLjUgMCAwIDEgNDIwNyw2Ni45ODQ0IEw0MjA3LDE2OCBBMi41LDIuNSAwIDAgMSA0MjA0LjUsMTcwLjUgTDM5MzEuNSwxNzAuNSBBMi41LDIuNSAwIDAgMSAzOTI5LDE2OCBMMzkyOSw0NiBBMi41LDIuNSAwIDAgMSAzOTMxLjUsNDMuNSAiIHN0eWxlPSJzdHJva2U6IzAwMDAwMDtzdHJva2Utd2lkdGg6MS41O2ZpbGw6bm9uZTsiLz48bGluZSBzdHlsZT0ic3Ryb2tlOiMwMDAwMDA7c3Ryb2tlLXdpZHRoOjEuNTtmaWxsOm5vbmU7IiB4MT0iMzkyOSIgeDI9IjQyMDQiIHkxPSI2NC40ODQ0IiB5Mj0iNjQuNDg0NCIvPjx0ZXh0IGZpbGw9IiMwMDAwMDAiIGZvbnQtZmFtaWx5PSJzYW5zLXNlcmlmIiBmb250LXNpemU9IjE0IiBmb250LXdlaWdodD0iYm9sZCIgbGVuZ3RoQWRqdXN0PSJzcGFjaW5nIiB0ZXh0TGVuZ3RoPSIyNjIiIHg9IjM5MzMiIHk9IjU4LjczNDQiPmJsYWNramFja2FwcDo6bW9kZWxzOjpkcmF3X21vZGVsLmRhcnQ8L3RleHQ+PC9nPjwhLS1NRDU9WzJlOTVkZGY5MTc3MTdjMjk4NGQzM2QwZGFlNWMwYzQ5XQpjbHVzdGVyIGJsYWNramFja2FwcDo6bW9kZWxzOjpwbGF5ZXJfbW9kZWwuZGFydC0tPjxnIGlkPSJjbHVzdGVyX2JsYWNramFja2FwcDo6bW9kZWxzOjpwbGF5ZXJfbW9kZWwuZGFydCI+PHBhdGggZD0iTTQyMzMuNSwzNiBMNDUwOS41LDM2IEEzLjc1LDMuNzUgMCAwIDEgNDUxMiwzOC41IEw0NTE5LDU2Ljk4NDQgTDQ1MTkuNSw1Ni45ODQ0IEEyLjUsMi41IDAgMCAxIDQ1MjIsNTkuNDg0NCBMNDUyMiwxNzUuNSBBMi41LDIuNSAwIDAgMSA0NTE5LjUsMTc4IEw0MjMzLjUsMTc4IEEyLjUsMi41IDAgMCAxIDQyMzEsMTc1LjUgTDQyMzEsMzguNSBBMi41LDIuNSAwIDAgMSA0MjMzLjUsMzYgIiBzdHlsZT0ic3Ryb2tlOiMwMDAwMDA7c3Ryb2tlLXdpZHRoOjEuNTtmaWxsOm5vbmU7Ii8+PGxpbmUgc3R5bGU9InN0cm9rZTojMDAwMDAwO3N0cm9rZS13aWR0aDoxLjU7ZmlsbDpub25lOyIgeDE9IjQyMzEiIHgyPSI0NTE5IiB5MT0iNTYuOTg0NCIgeTI9IjU2Ljk4NDQiLz48dGV4dCBmaWxsPSIjMDAwMDAwIiBmb250LWZhbWlseT0ic2Fucy1zZXJpZiIgZm9udC1zaXplPSIxNCIgZm9udC13ZWlnaHQ9ImJvbGQiIGxlbmd0aEFkanVzdD0ic3BhY2luZyIgdGV4dExlbmd0aD0iMjc1IiB4PSI0MjM1IiB5PSI1MS4yMzQ0Ij5ibGFja2phY2thcHA6Om1vZGVsczo6cGxheWVyX21vZGVsLmRhcnQ8L3RleHQ+PC9nPjwhLS1NRDU9WzFiNWIyY2YxOWFiNTQxYmExYzhkNTVhMjQ3NjY1OWVjXQpjbHVzdGVyIGJsYWNramFja2FwcDo6c2NyZWVuczo6Z2FtZV9zY3JlZW4uZGFydC0tPjxnIGlkPSJjbHVzdGVyX2JsYWNramFja2FwcDo6c2NyZWVuczo6Z2FtZV9zY3JlZW4uZGFydCI+PHBhdGggZD0iTTE5OTguNSwzMDkgTDIyNzMuNSwzMDkgQTMuNzUsMy43NSAwIDAgMSAyMjc2LDMxMS41IEwyMjgzLDMyOS45ODQ0IEwyNDUyLjUsMzI5Ljk4NDQgQTIuNSwyLjUgMCAwIDEgMjQ1NSwzMzIuNDg0NCBMMjQ1NSw0NDguNSBBMi41LDIuNSAwIDAgMSAyNDUyLjUsNDUxIEwxOTk4LjUsNDUxIEEyLjUsMi41IDAgMCAxIDE5OTYsNDQ4LjUgTDE5OTYsMzExLjUgQTIuNSwyLjUgMCAwIDEgMTk5OC41LDMwOSAiIHN0eWxlPSJzdHJva2U6IzAwMDAwMDtzdHJva2Utd2lkdGg6MS41O2ZpbGw6bm9uZTsiLz48bGluZSBzdHlsZT0ic3Ryb2tlOiMwMDAwMDA7c3Ryb2tlLXdpZHRoOjEuNTtmaWxsOm5vbmU7IiB4MT0iMTk5NiIgeDI9IjIyODMiIHkxPSIzMjkuOTg0NCIgeTI9IjMyOS45ODQ0Ii8+PHRleHQgZmlsbD0iIzAwMDAwMCIgZm9udC1mYW1pbHk9InNhbnMtc2VyaWYiIGZvbnQtc2l6ZT0iMTQiIGZvbnQtd2VpZ2h0PSJib2xkIiBsZW5ndGhBZGp1c3Q9InNwYWNpbmciIHRleHRMZW5ndGg9IjI3NCIgeD0iMjAwMCIgeT0iMzI0LjIzNDQiPmJsYWNramFja2FwcDo6c2NyZWVuczo6Z2FtZV9zY3JlZW4uZGFydDwvdGV4dD48L2c+PCEtLU1ENT1bYWE3YWMyYTM5Y2UwODBlMWUxMzgxOTQxMDFmNzA2ZjVdCmNsdXN0ZXIgYmxhY2tqYWNrYXBwOjpzY3JlZW5zOjpob21lcGFnZS5kYXJ0LS0+PGcgaWQ9ImNsdXN0ZXJfYmxhY2tqYWNrYXBwOjpzY3JlZW5zOjpob21lcGFnZS5kYXJ0Ij48cGF0aCBkPSJNMzAxNi41LDI4Ni41IEwzMjcwLjUsMjg2LjUgQTMuNzUsMy43NSAwIDAgMSAzMjczLDI4OSBMMzI4MCwzMDcuNDg0NCBMMzYxMi41LDMwNy40ODQ0IEEyLjUsMi41IDAgMCAxIDM2MTUsMzA5Ljk4NDQgTDM2MTUsNDcxIEEyLjUsMi41IDAgMCAxIDM2MTIuNSw0NzMuNSBMMzAxNi41LDQ3My41IEEyLjUsMi41IDAgMCAxIDMwMTQsNDcxIEwzMDE0LDI4OSBBMi41LDIuNSAwIDAgMSAzMDE2LjUsMjg2LjUgIiBzdHlsZT0ic3Ryb2tlOiMwMDAwMDA7c3Ryb2tlLXdpZHRoOjEuNTtmaWxsOm5vbmU7Ii8+PGxpbmUgc3R5bGU9InN0cm9rZTojMDAwMDAwO3N0cm9rZS13aWR0aDoxLjU7ZmlsbDpub25lOyIgeDE9IjMwMTQiIHgyPSIzMjgwIiB5MT0iMzA3LjQ4NDQiIHkyPSIzMDcuNDg0NCIvPjx0ZXh0IGZpbGw9IiMwMDAwMDAiIGZvbnQtZmFtaWx5PSJzYW5zLXNlcmlmIiBmb250LXNpemU9IjE0IiBmb250LXdlaWdodD0iYm9sZCIgbGVuZ3RoQWRqdXN0PSJzcGFjaW5nIiB0ZXh0TGVuZ3RoPSIyNTMiIHg9IjMwMTgiIHk9IjMwMS43MzQ0Ij5ibGFja2phY2thcHA6OnNjcmVlbnM6OmhvbWVwYWdlLmRhcnQ8L3RleHQ+PC9nPjwhLS1NRDU9Wzk3NTE3NjI2MmQ4OWZiNDM2YTYzNjFlZTk3MWFmODJiXQpjbHVzdGVyIGZsdXR0ZXI6OnNyYzo6YW5pbWF0aW9uOjphbmltYXRpb25fY29udHJvbGxlci5kYXJ0LS0+PGcgaWQ9ImNsdXN0ZXJfZmx1dHRlcjo6c3JjOjphbmltYXRpb246OmFuaW1hdGlvbl9jb250cm9sbGVyLmRhcnQiPjxwYXRoIGQ9Ik0yOTcwLjUsNTY1IEwzMzIzLjUsNTY1IEEzLjc1LDMuNzUgMCAwIDEgMzMyNiw1NjcuNSBMMzMzMyw1ODUuOTg0NCBMMzMzMy41LDU4NS45ODQ0IEEyLjUsMi41IDAgMCAxIDMzMzYsNTg4LjQ4NDQgTDMzMzYsNjU5LjUgQTIuNSwyLjUgMCAwIDEgMzMzMy41LDY2MiBMMjk3MC41LDY2MiBBMi41LDIuNSAwIDAgMSAyOTY4LDY1OS41IEwyOTY4LDU2Ny41IEEyLjUsMi41IDAgMCAxIDI5NzAuNSw1NjUgIiBzdHlsZT0ic3Ryb2tlOiMwMDAwMDA7c3Ryb2tlLXdpZHRoOjEuNTtmaWxsOm5vbmU7Ii8+PGxpbmUgc3R5bGU9InN0cm9rZTojMDAwMDAwO3N0cm9rZS13aWR0aDoxLjU7ZmlsbDpub25lOyIgeDE9IjI5NjgiIHgyPSIzMzMzIiB5MT0iNTg1Ljk4NDQiIHkyPSI1ODUuOTg0NCIvPjx0ZXh0IGZpbGw9IiMwMDAwMDAiIGZvbnQtZmFtaWx5PSJzYW5zLXNlcmlmIiBmb250LXNpemU9IjE0IiBmb250LXdlaWdodD0iYm9sZCIgbGVuZ3RoQWRqdXN0PSJzcGFjaW5nIiB0ZXh0TGVuZ3RoPSIzNTIiIHg9IjI5NzIiIHk9IjU4MC4yMzQ0Ij5mbHV0dGVyOjpzcmM6OmFuaW1hdGlvbjo6YW5pbWF0aW9uX2NvbnRyb2xsZXIuZGFydDwvdGV4dD48L2c+PCEtLU1ENT1bZTUxNjE0Mzk3NDI5OWE0NzhkYmE5NjE4NGM0OWMxNzldCmNsdXN0ZXIgZmx1dHRlcjo6c3JjOjphbmltYXRpb246OmFuaW1hdGlvbi5kYXJ0LS0+PGcgaWQ9ImNsdXN0ZXJfZmx1dHRlcjo6c3JjOjphbmltYXRpb246OmFuaW1hdGlvbi5kYXJ0Ij48cGF0aCBkPSJNMzM2Mi41LDU2NSBMMzYzOC41LDU2NSBBMy43NSwzLjc1IDAgMCAxIDM2NDEsNTY3LjUgTDM2NDgsNTg1Ljk4NDQgTDM3MTQuNSw1ODUuOTg0NCBBMi41LDIuNSAwIDAgMSAzNzE3LDU4OC40ODQ0IEwzNzE3LDY1OS41IEEyLjUsMi41IDAgMCAxIDM3MTQuNSw2NjIgTDMzNjIuNSw2NjIgQTIuNSwyLjUgMCAwIDEgMzM2MCw2NTkuNSBMMzM2MCw1NjcuNSBBMi41LDIuNSAwIDAgMSAzMzYyLjUsNTY1ICIgc3R5bGU9InN0cm9rZTojMDAwMDAwO3N0cm9rZS13aWR0aDoxLjU7ZmlsbDpub25lOyIvPjxsaW5lIHN0eWxlPSJzdHJva2U6IzAwMDAwMDtzdHJva2Utd2lkdGg6MS41O2ZpbGw6bm9uZTsiIHgxPSIzMzYwIiB4Mj0iMzY0OCIgeTE9IjU4NS45ODQ0IiB5Mj0iNTg1Ljk4NDQiLz48dGV4dCBmaWxsPSIjMDAwMDAwIiBmb250LWZhbWlseT0ic2Fucy1zZXJpZiIgZm9udC1zaXplPSIxNCIgZm9udC13ZWlnaHQ9ImJvbGQiIGxlbmd0aEFkanVzdD0ic3BhY2luZyIgdGV4dExlbmd0aD0iMjc1IiB4PSIzMzY0IiB5PSI1ODAuMjM0NCI+Zmx1dHRlcjo6c3JjOjphbmltYXRpb246OmFuaW1hdGlvbi5kYXJ0PC90ZXh0PjwvZz48IS0tTUQ1PVtkNzhhZTUyODJiYmJiYzg1NzQ2NTBmOWI1MGQwODFlMF0KY2x1c3RlciBmbHV0dGVyOjpzcmM6OndpZGdldHM6OnRpY2tlcl9wcm92aWRlci5kYXJ0LS0+PGcgaWQ9ImNsdXN0ZXJfZmx1dHRlcjo6c3JjOjp3aWRnZXRzOjp0aWNrZXJfcHJvdmlkZXIuZGFydCI+PHBhdGggZD0iTTMyODguNSw1OC41IEwzNTkxLjUsNTguNSBBMy43NSwzLjc1IDAgMCAxIDM1OTQsNjEgTDM2MDEsNzkuNDg0NCBMMzYwMS41LDc5LjQ4NDQgQTIuNSwyLjUgMCAwIDEgMzYwNCw4MS45ODQ0IEwzNjA0LDE1MyBBMi41LDIuNSAwIDAgMSAzNjAxLjUsMTU1LjUgTDMyODguNSwxNTUuNSBBMi41LDIuNSAwIDAgMSAzMjg2LDE1MyBMMzI4Niw2MSBBMi41LDIuNSAwIDAgMSAzMjg4LjUsNTguNSAiIHN0eWxlPSJzdHJva2U6IzAwMDAwMDtzdHJva2Utd2lkdGg6MS41O2ZpbGw6bm9uZTsiLz48bGluZSBzdHlsZT0ic3Ryb2tlOiMwMDAwMDA7c3Ryb2tlLXdpZHRoOjEuNTtmaWxsOm5vbmU7IiB4MT0iMzI4NiIgeDI9IjM2MDEiIHkxPSI3OS40ODQ0IiB5Mj0iNzkuNDg0NCIvPjx0ZXh0IGZpbGw9IiMwMDAwMDAiIGZvbnQtZmFtaWx5PSJzYW5zLXNlcmlmIiBmb250LXNpemU9IjE0IiBmb250LXdlaWdodD0iYm9sZCIgbGVuZ3RoQWRqdXN0PSJzcGFjaW5nIiB0ZXh0TGVuZ3RoPSIzMDIiIHg9IjMyOTAiIHk9IjczLjczNDQiPmZsdXR0ZXI6OnNyYzo6d2lkZ2V0czo6dGlja2VyX3Byb3ZpZGVyLmRhcnQ8L3RleHQ+PC9nPjwhLS1NRDU9W2JiNzIwMTJlODZkMTRkOGVmMWZkMjVmZTE0NDZkN2Q0XQpjbHVzdGVyIGJsYWNramFja2FwcDo6c2NyZWVuczo6c3BsYXNoc2NyZWVuLmRhcnQtLT48ZyBpZD0iY2x1c3Rlcl9ibGFja2phY2thcHA6OnNjcmVlbnM6OnNwbGFzaHNjcmVlbi5kYXJ0Ij48cGF0aCBkPSJNMjQ4MS41LDMwMS41IEwyNzYyLjUsMzAxLjUgQTMuNzUsMy43NSAwIDAgMSAyNzY1LDMwNCBMMjc3MiwzMjIuNDg0NCBMMjk4Ny41LDMyMi40ODQ0IEEyLjUsMi41IDAgMCAxIDI5OTAsMzI0Ljk4NDQgTDI5OTAsNDU2IEEyLjUsMi41IDAgMCAxIDI5ODcuNSw0NTguNSBMMjQ4MS41LDQ1OC41IEEyLjUsMi41IDAgMCAxIDI0NzksNDU2IEwyNDc5LDMwNCBBMi41LDIuNSAwIDAgMSAyNDgxLjUsMzAxLjUgIiBzdHlsZT0ic3Ryb2tlOiMwMDAwMDA7c3Ryb2tlLXdpZHRoOjEuNTtmaWxsOm5vbmU7Ii8+PGxpbmUgc3R5bGU9InN0cm9rZTojMDAwMDAwO3N0cm9rZS13aWR0aDoxLjU7ZmlsbDpub25lOyIgeDE9IjI0NzkiIHgyPSIyNzcyIiB5MT0iMzIyLjQ4NDQiIHkyPSIzMjIuNDg0NCIvPjx0ZXh0IGZpbGw9IiMwMDAwMDAiIGZvbnQtZmFtaWx5PSJzYW5zLXNlcmlmIiBmb250LXNpemU9IjE0IiBmb250LXdlaWdodD0iYm9sZCIgbGVuZ3RoQWRqdXN0PSJzcGFjaW5nIiB0ZXh0TGVuZ3RoPSIyODAiIHg9IjI0ODMiIHk9IjMxNi43MzQ0Ij5ibGFja2phY2thcHA6OnNjcmVlbnM6OnNwbGFzaHNjcmVlbi5kYXJ0PC90ZXh0PjwvZz48IS0tTUQ1PVswNjgwOWI4ZDVkZTNkNzVjMjg4ZjQ3OTZmNDFhY2Q5Y10KY2x1c3RlciBibGFja2phY2thcHA6OnNlcnZpY2VzOjphcGlfc2VydmljZS5kYXJ0LS0+PGcgaWQ9ImNsdXN0ZXJfYmxhY2tqYWNrYXBwOjpzZXJ2aWNlczo6YXBpX3NlcnZpY2UuZGFydCI+PHBhdGggZD0iTTQ1NDguNSwzNiBMNDgyOS41LDM2IEEzLjc1LDMuNzUgMCAwIDEgNDgzMiwzOC41IEw0ODM5LDU2Ljk4NDQgTDQ4NzEuNSw1Ni45ODQ0IEEyLjUsMi41IDAgMCAxIDQ4NzQsNTkuNDg0NCBMNDg3NCwxNzUuNSBBMi41LDIuNSAwIDAgMSA0ODcxLjUsMTc4IEw0NTQ4LjUsMTc4IEEyLjUsMi41IDAgMCAxIDQ1NDYsMTc1LjUgTDQ1NDYsMzguNSBBMi41LDIuNSAwIDAgMSA0NTQ4LjUsMzYgIiBzdHlsZT0ic3Ryb2tlOiMwMDAwMDA7c3Ryb2tlLXdpZHRoOjEuNTtmaWxsOm5vbmU7Ii8+PGxpbmUgc3R5bGU9InN0cm9rZTojMDAwMDAwO3N0cm9rZS13aWR0aDoxLjU7ZmlsbDpub25lOyIgeDE9IjQ1NDYiIHgyPSI0ODM5IiB5MT0iNTYuOTg0NCIgeTI9IjU2Ljk4NDQiLz48dGV4dCBmaWxsPSIjMDAwMDAwIiBmb250LWZhbWlseT0ic2Fucy1zZXJpZiIgZm9udC1zaXplPSIxNCIgZm9udC13ZWlnaHQ9ImJvbGQiIGxlbmd0aEFkanVzdD0ic3BhY2luZyIgdGV4dExlbmd0aD0iMjgwIiB4PSI0NTUwIiB5PSI1MS4yMzQ0Ij5ibGFja2phY2thcHA6OnNlcnZpY2VzOjphcGlfc2VydmljZS5kYXJ0PC90ZXh0PjwvZz48IS0tTUQ1PVtlYzY2OTU1NWExYWI2YWY3MjIxMTA5YzA0NTg3MzU5Yl0KY2x1c3RlciBibGFja2phY2thcHA6OnNlcnZpY2VzOjpkZWNrX3NlcnZpY2UuZGFydC0tPjxnIGlkPSJjbHVzdGVyX2JsYWNramFja2FwcDo6c2VydmljZXM6OmRlY2tfc2VydmljZS5kYXJ0Ij48cGF0aCBkPSJNNDU3Ny41LDMxNi41IEw0ODY1LjUsMzE2LjUgQTMuNzUsMy43NSAwIDAgMSA0ODY4LDMxOSBMNDg3NSwzMzcuNDg0NCBMNDg3NS41LDMzNy40ODQ0IEEyLjUsMi41IDAgMCAxIDQ4NzgsMzM5Ljk4NDQgTDQ4NzgsNDQxIEEyLjUsMi41IDAgMCAxIDQ4NzUuNSw0NDMuNSBMNDU3Ny41LDQ0My41IEEyLjUsMi41IDAgMCAxIDQ1NzUsNDQxIEw0NTc1LDMxOSBBMi41LDIuNSAwIDAgMSA0NTc3LjUsMzE2LjUgIiBzdHlsZT0ic3Ryb2tlOiMwMDAwMDA7c3Ryb2tlLXdpZHRoOjEuNTtmaWxsOm5vbmU7Ii8+PGxpbmUgc3R5bGU9InN0cm9rZTojMDAwMDAwO3N0cm9rZS13aWR0aDoxLjU7ZmlsbDpub25lOyIgeDE9IjQ1NzUiIHgyPSI0ODc1IiB5MT0iMzM3LjQ4NDQiIHkyPSIzMzcuNDg0NCIvPjx0ZXh0IGZpbGw9IiMwMDAwMDAiIGZvbnQtZmFtaWx5PSJzYW5zLXNlcmlmIiBmb250LXNpemU9IjE0IiBmb250LXdlaWdodD0iYm9sZCIgbGVuZ3RoQWRqdXN0PSJzcGFjaW5nIiB0ZXh0TGVuZ3RoPSIyODciIHg9IjQ1NzkiIHk9IjMzMS43MzQ0Ij5ibGFja2phY2thcHA6OnNlcnZpY2VzOjpkZWNrX3NlcnZpY2UuZGFydDwvdGV4dD48L2c+PCEtLU1ENT1bODdmNWFhMjYzNzVhYzFjMzcwODU3MWFlYWQ4M2U1MjFdCmNsYXNzIGJsYWNramFja2FwcDo6YXBpOjpjYXJkdmFsdWUuZGFydDo6Q2FyZFR5cGUtLT48ZyBpZD0iZWxlbV9ibGFja2phY2thcHA6OmFwaTo6Y2FyZHZhbHVlLmRhcnQ6OkNhcmRUeXBlIj48cmVjdCBjb2RlTGluZT0iMyIgZmlsbD0iI0YxRjFGMSIgaGVpZ2h0PSIyNzIuNzY1NiIgaWQ9ImJsYWNramFja2FwcDo6YXBpOjpjYXJkdmFsdWUuZGFydDo6Q2FyZFR5cGUiIHJ4PSIyLjUiIHJ5PSIyLjUiIHN0eWxlPSJzdHJva2U6IzE4MTgxODtzdHJva2Utd2lkdGg6MC41OyIgd2lkdGg9IjE3MyIgeD0iMjgyLjUiIHk9IjI1MiIvPjxlbGxpcHNlIGN4PSIzMzYuNzUiIGN5PSIyNjgiIGZpbGw9IiNBREQxQjIiIHJ4PSIxMSIgcnk9IjExIiBzdHlsZT0ic3Ryb2tlOiMxODE4MTg7c3Ryb2tlLXdpZHRoOjEuMDsiLz48cGF0aCBkPSJNMzM0LjM3NSwyNzIuMjUgTDMzNC4zNzUsMjc0IEwzMzkuMzEyNSwyNzQgTDMzOS4zMTI1LDI3Mi4yNSBMMzM0LjM3NSwyNzIuMjUgWiBNMzM1LjA2MjUsMjcyLjkzNzUgUTMzNS4wNjI1LDI3Mi45Mzc1IDMzNS4wNjI1LDI2My43NSBMMzMzLjMxMjUsMjYzLjc1IFEzMzMuMzEyNSwyNjMuNzUgMzMzLjMxMjUsMjcyLjkzNzUgTDMzNS4wNjI1LDI3Mi45Mzc1IFogTTMzOC42MjUsMjcyLjkzNzUgTDM0MC4zNzUsMjcyLjkzNzUgUTM0MC4zNzUsMjcyLjkzNzUgMzQwLjM3NSwyNzAuMTI1IEwzMzguNjI1LDI3MC4xMjUgUTMzOC42MjUsMjcwLjEyNSAzMzguNjI1LDI3Mi45Mzc1IFogTTMzOC42MjUsMjYzLjc1IFEzMzguNjI1LDI2My43NSAzMzguNjI1LDI2Ni41NjI1IEwzNDAuMzc1LDI2Ni41NjI1IFEzNDAuMzc1LDI2Ni41NjI1IDM0MC4zNzUsMjYzLjc1IEwzMzguNjI1LDI2My43NSBaIE0zMzQuMzc1LDI2NC40Mzc1IEwzMzkuMzEyNSwyNjQuNDM3NSBMMzM5LjMxMjUsMjYyLjY4NzUgTDMzNC4zNzUsMjYyLjY4NzUgTDMzNC4zNzUsMjY0LjQzNzUgWiAiIGZpbGw9IiMwMDAwMDAiLz48dGV4dCBmaWxsPSIjMDAwMDAwIiBmb250LWZhbWlseT0ic2Fucy1zZXJpZiIgZm9udC1zaXplPSIxNCIgbGVuZ3RoQWRqdXN0PSJzcGFjaW5nIiB0ZXh0TGVuZ3RoPSI1NiIgeD0iMzU3LjI1IiB5PSIyNzMuNzQyMiI+Q2FyZFR5cGU8L3RleHQ+PGxpbmUgc3R5bGU9InN0cm9rZTojMTgxODE4O3N0cm9rZS13aWR0aDowLjU7IiB4MT0iMjgzLjUiIHgyPSI0NTQuNSIgeTE9IjI4NCIgeTI9IjI4NCIvPjxlbGxpcHNlIGN4PSIyOTMuNSIgY3k9IjI5NSIgZmlsbD0ibm9uZSIgcng9IjMiIHJ5PSIzIiBzdHlsZT0ic3Ryb2tlOiMwMzgwNDg7c3Ryb2tlLXdpZHRoOjEuMDsiLz48dGV4dCBmaWxsPSIjMDAwMDAwIiBmb250LWZhbWlseT0ic2Fucy1zZXJpZiIgZm9udC1zaXplPSIxNCIgbGVuZ3RoQWRqdXN0PSJzcGFjaW5nIiB0ZXh0TGVuZ3RoPSI2MyIgeD0iMzAyLjUiIHk9IjMwMS4yMzQ0Ij5pbnQgaW5kZXg8L3RleHQ+PGVsbGlwc2UgY3g9IjI5My41IiBjeT0iMzA5Ljk4NDQiIGZpbGw9Im5vbmUiIHJ4PSIzIiByeT0iMyIgc3R5bGU9InN0cm9rZTojMDM4MDQ4O3N0cm9rZS13aWR0aDoxLjA7Ii8+PHRleHQgZmlsbD0iIzAwMDAwMCIgZm9udC1mYW1pbHk9InNhbnMtc2VyaWYiIGZvbnQtc2l6ZT0iMTQiIGxlbmd0aEFkanVzdD0ic3BhY2luZyIgdGV4dC1kZWNvcmF0aW9uPSJ1bmRlcmxpbmUiIHRleHRMZW5ndGg9IjE0NyIgeD0iMzAyLjUiIHk9IjMxNi4yMTg4Ij5MaXN0Jmx0O0NhcmRUeXBlJmd0OyB2YWx1ZXM8L3RleHQ+PGVsbGlwc2UgY3g9IjI5My41IiBjeT0iMzI0Ljk2ODgiIGZpbGw9Im5vbmUiIHJ4PSIzIiByeT0iMyIgc3R5bGU9InN0cm9rZTojMDM4MDQ4O3N0cm9rZS13aWR0aDoxLjA7Ii8+PHRleHQgZmlsbD0iIzAwMDAwMCIgZm9udC1mYW1pbHk9InNhbnMtc2VyaWYiIGZvbnQtc2l6ZT0iMTQiIGxlbmd0aEFkanVzdD0ic3BhY2luZyIgdGV4dC1kZWNvcmF0aW9uPSJ1bmRlcmxpbmUiIHRleHRMZW5ndGg9Ijg0IiB4PSIzMDIuNSIgeT0iMzMxLjIwMzEiPkNhcmRUeXBlIG9uZTwvdGV4dD48ZWxsaXBzZSBjeD0iMjkzLjUiIGN5PSIzMzkuOTUzMSIgZmlsbD0ibm9uZSIgcng9IjMiIHJ5PSIzIiBzdHlsZT0ic3Ryb2tlOiMwMzgwNDg7c3Ryb2tlLXdpZHRoOjEuMDsiLz48dGV4dCBmaWxsPSIjMDAwMDAwIiBmb250LWZhbWlseT0ic2Fucy1zZXJpZiIgZm9udC1zaXplPSIxNCIgbGVuZ3RoQWRqdXN0PSJzcGFjaW5nIiB0ZXh0LWRlY29yYXRpb249InVuZGVybGluZSIgdGV4dExlbmd0aD0iODUiIHg9IjMwMi41IiB5PSIzNDYuMTg3NSI+Q2FyZFR5cGUgdHdvPC90ZXh0PjxlbGxpcHNlIGN4PSIyOTMuNSIgY3k9IjM1NC45Mzc1IiBmaWxsPSJub25lIiByeD0iMyIgcnk9IjMiIHN0eWxlPSJzdHJva2U6IzAzODA0ODtzdHJva2Utd2lkdGg6MS4wOyIvPjx0ZXh0IGZpbGw9IiMwMDAwMDAiIGZvbnQtZmFtaWx5PSJzYW5zLXNlcmlmIiBmb250LXNpemU9IjE0IiBsZW5ndGhBZGp1c3Q9InNwYWNpbmciIHRleHQtZGVjb3JhdGlvbj0idW5kZXJsaW5lIiB0ZXh0TGVuZ3RoPSI5OCIgeD0iMzAyLjUiIHk9IjM2MS4xNzE5Ij5DYXJkVHlwZSB0aHJlZTwvdGV4dD48ZWxsaXBzZSBjeD0iMjkzLjUiIGN5PSIzNjkuOTIxOSIgZmlsbD0ibm9uZSIgcng9IjMiIHJ5PSIzIiBzdHlsZT0ic3Ryb2tlOiMwMzgwNDg7c3Ryb2tlLXdpZHRoOjEuMDsiLz48dGV4dCBmaWxsPSIjMDAwMDAwIiBmb250LWZhbWlseT0ic2Fucy1zZXJpZiIgZm9udC1zaXplPSIxNCIgbGVuZ3RoQWRqdXN0PSJzcGFjaW5nIiB0ZXh0LWRlY29yYXRpb249InVuZGVybGluZSIgdGV4dExlbmd0aD0iOTEiIHg9IjMwMi41IiB5PSIzNzYuMTU2MyI+Q2FyZFR5cGUgZm91cjwvdGV4dD48ZWxsaXBzZSBjeD0iMjkzLjUiIGN5PSIzODQuOTA2MyIgZmlsbD0ibm9uZSIgcng9IjMiIHJ5PSIzIiBzdHlsZT0ic3Ryb2tlOiMwMzgwNDg7c3Ryb2tlLXdpZHRoOjEuMDsiLz48dGV4dCBmaWxsPSIjMDAwMDAwIiBmb250LWZhbWlseT0ic2Fucy1zZXJpZiIgZm9udC1zaXplPSIxNCIgbGVuZ3RoQWRqdXN0PSJzcGFjaW5nIiB0ZXh0LWRlY29yYXRpb249InVuZGVybGluZSIgdGV4dExlbmd0aD0iOTEiIHg9IjMwMi41IiB5PSIzOTEuMTQwNiI+Q2FyZFR5cGUgZml2ZTwvdGV4dD48ZWxsaXBzZSBjeD0iMjkzLjUiIGN5PSIzOTkuODkwNiIgZmlsbD0ibm9uZSIgcng9IjMiIHJ5PSIzIiBzdHlsZT0ic3Ryb2tlOiMwMzgwNDg7c3Ryb2tlLXdpZHRoOjEuMDsiLz48dGV4dCBmaWxsPSIjMDAwMDAwIiBmb250LWZhbWlseT0ic2Fucy1zZXJpZiIgZm9udC1zaXplPSIxNCIgbGVuZ3RoQWRqdXN0PSJzcGFjaW5nIiB0ZXh0LWRlY29yYXRpb249InVuZGVybGluZSIgdGV4dExlbmd0aD0iODQiIHg9IjMwMi41IiB5PSI0MDYuMTI1Ij5DYXJkVHlwZSBzaXg8L3RleHQ+PGVsbGlwc2UgY3g9IjI5My41IiBjeT0iNDE0Ljg3NSIgZmlsbD0ibm9uZSIgcng9IjMiIHJ5PSIzIiBzdHlsZT0ic3Ryb2tlOiMwMzgwNDg7c3Ryb2tlLXdpZHRoOjEuMDsiLz48dGV4dCBmaWxsPSIjMDAwMDAwIiBmb250LWZhbWlseT0ic2Fucy1zZXJpZiIgZm9udC1zaXplPSIxNCIgbGVuZ3RoQWRqdXN0PSJzcGFjaW5nIiB0ZXh0LWRlY29yYXRpb249InVuZGVybGluZSIgdGV4dExlbmd0aD0iOTgiIHg9IjMwMi41IiB5PSI0MjEuMTA5NCI+Q2FyZFR5cGUgc2V2ZW48L3RleHQ+PGVsbGlwc2UgY3g9IjI5My41IiBjeT0iNDI5Ljg1OTQiIGZpbGw9Im5vbmUiIHJ4PSIzIiByeT0iMyIgc3R5bGU9InN0cm9rZTojMDM4MDQ4O3N0cm9rZS13aWR0aDoxLjA7Ii8+PHRleHQgZmlsbD0iIzAwMDAwMCIgZm9udC1mYW1pbHk9InNhbnMtc2VyaWYiIGZvbnQtc2l6ZT0iMTQiIGxlbmd0aEFkanVzdD0ic3BhY2luZyIgdGV4dC1kZWNvcmF0aW9uPSJ1bmRlcmxpbmUiIHRleHRMZW5ndGg9Ijk4IiB4PSIzMDIuNSIgeT0iNDM2LjA5MzgiPkNhcmRUeXBlIGVpZ2h0PC90ZXh0PjxlbGxpcHNlIGN4PSIyOTMuNSIgY3k9IjQ0NC44NDM4IiBmaWxsPSJub25lIiByeD0iMyIgcnk9IjMiIHN0eWxlPSJzdHJva2U6IzAzODA0ODtzdHJva2Utd2lkdGg6MS4wOyIvPjx0ZXh0IGZpbGw9IiMwMDAwMDAiIGZvbnQtZmFtaWx5PSJzYW5zLXNlcmlmIiBmb250LXNpemU9IjE0IiBsZW5ndGhBZGp1c3Q9InNwYWNpbmciIHRleHQtZGVjb3JhdGlvbj0idW5kZXJsaW5lIiB0ZXh0TGVuZ3RoPSI5MSIgeD0iMzAyLjUiIHk9IjQ1MS4wNzgxIj5DYXJkVHlwZSBuaW5lPC90ZXh0PjxlbGxpcHNlIGN4PSIyOTMuNSIgY3k9IjQ1OS44MjgxIiBmaWxsPSJub25lIiByeD0iMyIgcnk9IjMiIHN0eWxlPSJzdHJva2U6IzAzODA0ODtzdHJva2Utd2lkdGg6MS4wOyIvPjx0ZXh0IGZpbGw9IiMwMDAwMDAiIGZvbnQtZmFtaWx5PSJzYW5zLXNlcmlmIiBmb250LXNpemU9IjE0IiBsZW5ndGhBZGp1c3Q9InNwYWNpbmciIHRleHQtZGVjb3JhdGlvbj0idW5kZXJsaW5lIiB0ZXh0TGVuZ3RoPSI4NCIgeD0iMzAyLjUiIHk9IjQ2Ni4wNjI1Ij5DYXJkVHlwZSB0ZW48L3RleHQ+PGVsbGlwc2UgY3g9IjI5My41IiBjeT0iNDc0LjgxMjUiIGZpbGw9Im5vbmUiIHJ4PSIzIiByeT0iMyIgc3R5bGU9InN0cm9rZTojMDM4MDQ4O3N0cm9rZS13aWR0aDoxLjA7Ii8+PHRleHQgZmlsbD0iIzAwMDAwMCIgZm9udC1mYW1pbHk9InNhbnMtc2VyaWYiIGZvbnQtc2l6ZT0iMTQiIGxlbmd0aEFkanVzdD0ic3BhY2luZyIgdGV4dC1kZWNvcmF0aW9uPSJ1bmRlcmxpbmUiIHRleHRMZW5ndGg9IjkxIiB4PSIzMDIuNSIgeT0iNDgxLjA0NjkiPkNhcmRUeXBlIGphY2s8L3RleHQ+PGVsbGlwc2UgY3g9IjI5My41IiBjeT0iNDg5Ljc5NjkiIGZpbGw9Im5vbmUiIHJ4PSIzIiByeT0iMyIgc3R5bGU9InN0cm9rZTojMDM4MDQ4O3N0cm9rZS13aWR0aDoxLjA7Ii8+PHRleHQgZmlsbD0iIzAwMDAwMCIgZm9udC1mYW1pbHk9InNhbnMtc2VyaWYiIGZvbnQtc2l6ZT0iMTQiIGxlbmd0aEFkanVzdD0ic3BhY2luZyIgdGV4dC1kZWNvcmF0aW9uPSJ1bmRlcmxpbmUiIHRleHRMZW5ndGg9Ijk4IiB4PSIzMDIuNSIgeT0iNDk2LjAzMTMiPkNhcmRUeXBlIHF1ZWVuPC90ZXh0PjxlbGxpcHNlIGN4PSIyOTMuNSIgY3k9IjUwNC43ODEzIiBmaWxsPSJub25lIiByeD0iMyIgcnk9IjMiIHN0eWxlPSJzdHJva2U6IzAzODA0ODtzdHJva2Utd2lkdGg6MS4wOyIvPjx0ZXh0IGZpbGw9IiMwMDAwMDAiIGZvbnQtZmFtaWx5PSJzYW5zLXNlcmlmIiBmb250LXNpemU9IjE0IiBsZW5ndGhBZGp1c3Q9InNwYWNpbmciIHRleHQtZGVjb3JhdGlvbj0idW5kZXJsaW5lIiB0ZXh0TGVuZ3RoPSI5MSIgeD0iMzAyLjUiIHk9IjUxMS4wMTU2Ij5DYXJkVHlwZSBraW5nPC90ZXh0PjxsaW5lIHN0eWxlPSJzdHJva2U6IzE4MTgxODtzdHJva2Utd2lkdGg6MC41OyIgeDE9IjI4My41IiB4Mj0iNDU0LjUiIHkxPSI1MTYuNzY1NiIgeTI9IjUxNi43NjU2Ii8+PC9nPjwhLS1NRDU9WzkxYzRhY2E1ZGY2MWQ1ZTYxYTBjMjcyZjM0ZjRiY2UyXQpjbGFzcyBibGFja2phY2thcHA6OmFwaTo6Y2FyZHZhbHVlLmRhcnQ6OlN1aXQtLT48ZyBpZD0iZWxlbV9ibGFja2phY2thcHA6OmFwaTo6Y2FyZHZhbHVlLmRhcnQ6OlN1aXQiPjxyZWN0IGNvZGVMaW5lPSIyNCIgZmlsbD0iI0YxRjFGMSIgaGVpZ2h0PSIxNTIuODkwNiIgaWQ9ImJsYWNramFja2FwcDo6YXBpOjpjYXJkdmFsdWUuZGFydDo6U3VpdCIgcng9IjIuNSIgcnk9IjIuNSIgc3R5bGU9InN0cm9rZTojMTgxODE4O3N0cm9rZS13aWR0aDowLjU7IiB3aWR0aD0iMTQ1IiB4PSI4NC41IiB5PSIzMTIiLz48ZWxsaXBzZSBjeD0iMTM4Ljc1IiBjeT0iMzI4IiBmaWxsPSIjQUREMUIyIiByeD0iMTEiIHJ5PSIxMSIgc3R5bGU9InN0cm9rZTojMTgxODE4O3N0cm9rZS13aWR0aDoxLjA7Ii8+PHBhdGggZD0iTTEzNi4zNzUsMzMyLjI1IEwxMzYuMzc1LDMzNCBMMTQxLjMxMjUsMzM0IEwxNDEuMzEyNSwzMzIuMjUgTDEzNi4zNzUsMzMyLjI1IFogTTEzNy4wNjI1LDMzMi45Mzc1IFExMzcuMDYyNSwzMzIuOTM3NSAxMzcuMDYyNSwzMjMuNzUgTDEzNS4zMTI1LDMyMy43NSBRMTM1LjMxMjUsMzIzLjc1IDEzNS4zMTI1LDMzMi45Mzc1IEwxMzcuMDYyNSwzMzIuOTM3NSBaIE0xNDAuNjI1LDMzMi45Mzc1IEwxNDIuMzc1LDMzMi45Mzc1IFExNDIuMzc1LDMzMi45Mzc1IDE0Mi4zNzUsMzMwLjEyNSBMMTQwLjYyNSwzMzAuMTI1IFExNDAuNjI1LDMzMC4xMjUgMTQwLjYyNSwzMzIuOTM3NSBaIE0xNDAuNjI1LDMyMy43NSBRMTQwLjYyNSwzMjMuNzUgMTQwLjYyNSwzMjYuNTYyNSBMMTQyLjM3NSwzMjYuNTYyNSBRMTQyLjM3NSwzMjYuNTYyNSAxNDIuMzc1LDMyMy43NSBMMTQwLjYyNSwzMjMuNzUgWiBNMTM2LjM3NSwzMjQuNDM3NSBMMTQxLjMxMjUsMzI0LjQzNzUgTDE0MS4zMTI1LDMyMi42ODc1IEwxMzYuMzc1LDMyMi42ODc1IEwxMzYuMzc1LDMyNC40Mzc1IFogIiBmaWxsPSIjMDAwMDAwIi8+PHRleHQgZmlsbD0iIzAwMDAwMCIgZm9udC1mYW1pbHk9InNhbnMtc2VyaWYiIGZvbnQtc2l6ZT0iMTQiIGxlbmd0aEFkanVzdD0ic3BhY2luZyIgdGV4dExlbmd0aD0iMjgiIHg9IjE1OS4yNSIgeT0iMzMzLjc0MjIiPlN1aXQ8L3RleHQ+PGxpbmUgc3R5bGU9InN0cm9rZTojMTgxODE4O3N0cm9rZS13aWR0aDowLjU7IiB4MT0iODUuNSIgeDI9IjIyOC41IiB5MT0iMzQ0IiB5Mj0iMzQ0Ii8+PGVsbGlwc2UgY3g9Ijk1LjUiIGN5PSIzNTUiIGZpbGw9Im5vbmUiIHJ4PSIzIiByeT0iMyIgc3R5bGU9InN0cm9rZTojMDM4MDQ4O3N0cm9rZS13aWR0aDoxLjA7Ii8+PHRleHQgZmlsbD0iIzAwMDAwMCIgZm9udC1mYW1pbHk9InNhbnMtc2VyaWYiIGZvbnQtc2l6ZT0iMTQiIGxlbmd0aEFkanVzdD0ic3BhY2luZyIgdGV4dExlbmd0aD0iNjMiIHg9IjEwNC41IiB5PSIzNjEuMjM0NCI+aW50IGluZGV4PC90ZXh0PjxlbGxpcHNlIGN4PSI5NS41IiBjeT0iMzY5Ljk4NDQiIGZpbGw9Im5vbmUiIHJ4PSIzIiByeT0iMyIgc3R5bGU9InN0cm9rZTojMDM4MDQ4O3N0cm9rZS13aWR0aDoxLjA7Ii8+PHRleHQgZmlsbD0iIzAwMDAwMCIgZm9udC1mYW1pbHk9InNhbnMtc2VyaWYiIGZvbnQtc2l6ZT0iMTQiIGxlbmd0aEFkanVzdD0ic3BhY2luZyIgdGV4dC1kZWNvcmF0aW9uPSJ1bmRlcmxpbmUiIHRleHRMZW5ndGg9IjExOSIgeD0iMTA0LjUiIHk9IjM3Ni4yMTg4Ij5MaXN0Jmx0O1N1aXQmZ3Q7IHZhbHVlczwvdGV4dD48ZWxsaXBzZSBjeD0iOTUuNSIgY3k9IjM4NC45Njg4IiBmaWxsPSJub25lIiByeD0iMyIgcnk9IjMiIHN0eWxlPSJzdHJva2U6IzAzODA0ODtzdHJva2Utd2lkdGg6MS4wOyIvPjx0ZXh0IGZpbGw9IiMwMDAwMDAiIGZvbnQtZmFtaWx5PSJzYW5zLXNlcmlmIiBmb250LXNpemU9IjE0IiBsZW5ndGhBZGp1c3Q9InNwYWNpbmciIHRleHQtZGVjb3JhdGlvbj0idW5kZXJsaW5lIiB0ZXh0TGVuZ3RoPSI3NyIgeD0iMTA0LjUiIHk9IjM5MS4yMDMxIj5TdWl0IHNwYWRlczwvdGV4dD48ZWxsaXBzZSBjeD0iOTUuNSIgY3k9IjM5OS45NTMxIiBmaWxsPSJub25lIiByeD0iMyIgcnk9IjMiIHN0eWxlPSJzdHJva2U6IzAzODA0ODtzdHJva2Utd2lkdGg6MS4wOyIvPjx0ZXh0IGZpbGw9IiMwMDAwMDAiIGZvbnQtZmFtaWx5PSJzYW5zLXNlcmlmIiBmb250LXNpemU9IjE0IiBsZW5ndGhBZGp1c3Q9InNwYWNpbmciIHRleHQtZGVjb3JhdGlvbj0idW5kZXJsaW5lIiB0ZXh0TGVuZ3RoPSI3NyIgeD0iMTA0LjUiIHk9IjQwNi4xODc1Ij5TdWl0IGhlYXJ0czwvdGV4dD48ZWxsaXBzZSBjeD0iOTUuNSIgY3k9IjQxNC45Mzc1IiBmaWxsPSJub25lIiByeD0iMyIgcnk9IjMiIHN0eWxlPSJzdHJva2U6IzAzODA0ODtzdHJva2Utd2lkdGg6MS4wOyIvPjx0ZXh0IGZpbGw9IiMwMDAwMDAiIGZvbnQtZmFtaWx5PSJzYW5zLXNlcmlmIiBmb250LXNpemU9IjE0IiBsZW5ndGhBZGp1c3Q9InNwYWNpbmciIHRleHQtZGVjb3JhdGlvbj0idW5kZXJsaW5lIiB0ZXh0TGVuZ3RoPSI5MiIgeD0iMTA0LjUiIHk9IjQyMS4xNzE5Ij5TdWl0IGRpYW1vbmRzPC90ZXh0PjxlbGxpcHNlIGN4PSI5NS41IiBjeT0iNDI5LjkyMTkiIGZpbGw9Im5vbmUiIHJ4PSIzIiByeT0iMyIgc3R5bGU9InN0cm9rZTojMDM4MDQ4O3N0cm9rZS13aWR0aDoxLjA7Ii8+PHRleHQgZmlsbD0iIzAwMDAwMCIgZm9udC1mYW1pbHk9InNhbnMtc2VyaWYiIGZvbnQtc2l6ZT0iMTQiIGxlbmd0aEFkanVzdD0ic3BhY2luZyIgdGV4dC1kZWNvcmF0aW9uPSJ1bmRlcmxpbmUiIHRleHRMZW5ndGg9IjcwIiB4PSIxMDQuNSIgeT0iNDM2LjE1NjMiPlN1aXQgY2x1YnM8L3RleHQ+PGVsbGlwc2UgY3g9Ijk1LjUiIGN5PSI0NDQuOTA2MyIgZmlsbD0ibm9uZSIgcng9IjMiIHJ5PSIzIiBzdHlsZT0ic3Ryb2tlOiMwMzgwNDg7c3Ryb2tlLXdpZHRoOjEuMDsiLz48dGV4dCBmaWxsPSIjMDAwMDAwIiBmb250LWZhbWlseT0ic2Fucy1zZXJpZiIgZm9udC1zaXplPSIxNCIgbGVuZ3RoQWRqdXN0PSJzcGFjaW5nIiB0ZXh0LWRlY29yYXRpb249InVuZGVybGluZSIgdGV4dExlbmd0aD0iNzAiIHg9IjEwNC41IiB5PSI0NTEuMTQwNiI+U3VpdCBqb2tlcjwvdGV4dD48bGluZSBzdHlsZT0ic3Ryb2tlOiMxODE4MTg7c3Ryb2tlLXdpZHRoOjAuNTsiIHgxPSI4NS41IiB4Mj0iMjI4LjUiIHkxPSI0NTYuODkwNiIgeTI9IjQ1Ni44OTA2Ii8+PC9nPjwhLS1NRDU9W2Q2ZmEzNGMxMDYxOTRiMmYxYjM1MjYzYzIxMmVlZjRlXQpjbGFzcyBkYXJ0Ojpjb3JlOjpFbnVtLS0+PGcgaWQ9ImVsZW1fZGFydDo6Y29yZTo6RW51bSI+PHJlY3QgZmlsbD0iI0YxRjFGMSIgaGVpZ2h0PSI0OCIgaWQ9ImRhcnQ6OmNvcmU6OkVudW0iIHJ4PSIyLjUiIHJ5PSIyLjUiIHN0eWxlPSJzdHJva2U6IzE4MTgxODtzdHJva2Utd2lkdGg6MC41OyIgd2lkdGg9IjYxIiB4PSIzMzguNSIgeT0iOTEuNSIvPjxlbGxpcHNlIGN4PSIzNTMuNSIgY3k9IjEwNy41IiBmaWxsPSIjQUREMUIyIiByeD0iMTEiIHJ5PSIxMSIgc3R5bGU9InN0cm9rZTojMTgxODE4O3N0cm9rZS13aWR0aDoxLjA7Ii8+PHBhdGggZD0iTTM1MS4xMjUsMTExLjc1IEwzNTEuMTI1LDExMy41IEwzNTYuMDYyNSwxMTMuNSBMMzU2LjA2MjUsMTExLjc1IEwzNTEuMTI1LDExMS43NSBaIE0zNTEuODEyNSwxMTIuNDM3NSBRMzUxLjgxMjUsMTEyLjQzNzUgMzUxLjgxMjUsMTAzLjI1IEwzNTAuMDYyNSwxMDMuMjUgUTM1MC4wNjI1LDEwMy4yNSAzNTAuMDYyNSwxMTIuNDM3NSBMMzUxLjgxMjUsMTEyLjQzNzUgWiBNMzU1LjM3NSwxMTIuNDM3NSBMMzU3LjEyNSwxMTIuNDM3NSBRMzU3LjEyNSwxMTIuNDM3NSAzNTcuMTI1LDEwOS42MjUgTDM1NS4zNzUsMTA5LjYyNSBRMzU1LjM3NSwxMDkuNjI1IDM1NS4zNzUsMTEyLjQzNzUgWiBNMzU1LjM3NSwxMDMuMjUgUTM1NS4zNzUsMTAzLjI1IDM1NS4zNzUsMTA2LjA2MjUgTDM1Ny4xMjUsMTA2LjA2MjUgUTM1Ny4xMjUsMTA2LjA2MjUgMzU3LjEyNSwxMDMuMjUgTDM1NS4zNzUsMTAzLjI1IFogTTM1MS4xMjUsMTAzLjkzNzUgTDM1Ni4wNjI1LDEwMy45Mzc1IEwzNTYuMDYyNSwxMDIuMTg3NSBMMzUxLjEyNSwxMDIuMTg3NSBMMzUxLjEyNSwxMDMuOTM3NSBaICIgZmlsbD0iIzAwMDAwMCIvPjx0ZXh0IGZpbGw9IiMwMDAwMDAiIGZvbnQtZmFtaWx5PSJzYW5zLXNlcmlmIiBmb250LXNpemU9IjE0IiBsZW5ndGhBZGp1c3Q9InNwYWNpbmciIHRleHRMZW5ndGg9IjI5IiB4PSIzNjcuNSIgeT0iMTEzLjI0MjIiPkVudW08L3RleHQ+PGxpbmUgc3R5bGU9InN0cm9rZTojMTgxODE4O3N0cm9rZS13aWR0aDowLjU7IiB4MT0iMzM5LjUiIHgyPSIzOTguNSIgeTE9IjEyMy41IiB5Mj0iMTIzLjUiLz48bGluZSBzdHlsZT0ic3Ryb2tlOiMxODE4MTg7c3Ryb2tlLXdpZHRoOjAuNTsiIHgxPSIzMzkuNSIgeDI9IjM5OC41IiB5MT0iMTMxLjUiIHkyPSIxMzEuNSIvPjwvZz48IS0tTUQ1PVsxNGZkMmRjY2ExMzQ2OWFjMDgyM2I3YTdkNjMxMzAyYl0KY2xhc3MgYmxhY2tqYWNrYXBwOjphcGk6OnBsYXlpbmdjYXJkLmRhcnQ6OlBsYXlpbmdDYXJkLS0+PGcgaWQ9ImVsZW1fYmxhY2tqYWNrYXBwOjphcGk6OnBsYXlpbmdjYXJkLmRhcnQ6OlBsYXlpbmdDYXJkIj48cmVjdCBjb2RlTGluZT0iMzciIGZpbGw9IiNGMUYxRjEiIGhlaWdodD0iNzcuOTY4OCIgaWQ9ImJsYWNramFja2FwcDo6YXBpOjpwbGF5aW5nY2FyZC5kYXJ0OjpQbGF5aW5nQ2FyZCIgcng9IjIuNSIgcnk9IjIuNSIgc3R5bGU9InN0cm9rZTojMTgxODE4O3N0cm9rZS13aWR0aDowLjU7IiB3aWR0aD0iMTI0IiB4PSIxMTEiIHk9Ijc2LjUiLz48ZWxsaXBzZSBjeD0iMTMyLjc1IiBjeT0iOTIuNSIgZmlsbD0iI0FERDFCMiIgcng9IjExIiByeT0iMTEiIHN0eWxlPSJzdHJva2U6IzE4MTgxODtzdHJva2Utd2lkdGg6MS4wOyIvPjxwYXRoIGQ9Ik0xMzAuMzc1LDk2Ljc1IEwxMzAuMzc1LDk4LjUgTDEzNS4zMTI1LDk4LjUgTDEzNS4zMTI1LDk2Ljc1IEwxMzAuMzc1LDk2Ljc1IFogTTEzMS4wNjI1LDk3LjQzNzUgUTEzMS4wNjI1LDk3LjQzNzUgMTMxLjA2MjUsODguMjUgTDEyOS4zMTI1LDg4LjI1IFExMjkuMzEyNSw4OC4yNSAxMjkuMzEyNSw5Ny40Mzc1IEwxMzEuMDYyNSw5Ny40Mzc1IFogTTEzNC42MjUsOTcuNDM3NSBMMTM2LjM3NSw5Ny40Mzc1IFExMzYuMzc1LDk3LjQzNzUgMTM2LjM3NSw5NC42MjUgTDEzNC42MjUsOTQuNjI1IFExMzQuNjI1LDk0LjYyNSAxMzQuNjI1LDk3LjQzNzUgWiBNMTM0LjYyNSw4OC4yNSBRMTM0LjYyNSw4OC4yNSAxMzQuNjI1LDkxLjA2MjUgTDEzNi4zNzUsOTEuMDYyNSBRMTM2LjM3NSw5MS4wNjI1IDEzNi4zNzUsODguMjUgTDEzNC42MjUsODguMjUgWiBNMTMwLjM3NSw4OC45Mzc1IEwxMzUuMzEyNSw4OC45Mzc1IEwxMzUuMzEyNSw4Ny4xODc1IEwxMzAuMzc1LDg3LjE4NzUgTDEzMC4zNzUsODguOTM3NSBaICIgZmlsbD0iIzAwMDAwMCIvPjx0ZXh0IGZpbGw9IiMwMDAwMDAiIGZvbnQtZmFtaWx5PSJzYW5zLXNlcmlmIiBmb250LXNpemU9IjE0IiBsZW5ndGhBZGp1c3Q9InNwYWNpbmciIHRleHRMZW5ndGg9Ijc3IiB4PSIxNDguMjUiIHk9Ijk4LjI0MjIiPlBsYXlpbmdDYXJkPC90ZXh0PjxsaW5lIHN0eWxlPSJzdHJva2U6IzE4MTgxODtzdHJva2Utd2lkdGg6MC41OyIgeDE9IjExMiIgeDI9IjIzNCIgeTE9IjEwOC41IiB5Mj0iMTA4LjUiLz48ZWxsaXBzZSBjeD0iMTIyIiBjeT0iMTE5LjUiIGZpbGw9Im5vbmUiIHJ4PSIzIiByeT0iMyIgc3R5bGU9InN0cm9rZTojMDM4MDQ4O3N0cm9rZS13aWR0aDoxLjA7Ii8+PHRleHQgZmlsbD0iIzAwMDAwMCIgZm9udC1mYW1pbHk9InNhbnMtc2VyaWYiIGZvbnQtc2l6ZT0iMTQiIGxlbmd0aEFkanVzdD0ic3BhY2luZyIgdGV4dExlbmd0aD0iNjMiIHg9IjEzMSIgeT0iMTI1LjczNDQiPlN1aXQgc3VpdDwvdGV4dD48ZWxsaXBzZSBjeD0iMTIyIiBjeT0iMTM0LjQ4NDQiIGZpbGw9Im5vbmUiIHJ4PSIzIiByeT0iMyIgc3R5bGU9InN0cm9rZTojMDM4MDQ4O3N0cm9rZS13aWR0aDoxLjA7Ii8+PHRleHQgZmlsbD0iIzAwMDAwMCIgZm9udC1mYW1pbHk9InNhbnMtc2VyaWYiIGZvbnQtc2l6ZT0iMTQiIGxlbmd0aEFkanVzdD0ic3BhY2luZyIgdGV4dExlbmd0aD0iOTgiIHg9IjEzMSIgeT0iMTQwLjcxODgiPkNhcmRUeXBlIHZhbHVlPC90ZXh0PjxsaW5lIHN0eWxlPSJzdHJva2U6IzE4MTgxODtzdHJva2Utd2lkdGg6MC41OyIgeDE9IjExMiIgeDI9IjIzNCIgeTE9IjE0Ni40Njg4IiB5Mj0iMTQ2LjQ2ODgiLz48L2c+PCEtLU1ENT1bZTEzNjI4OGI2ZjgwOWZmMmFlN2E4ZGQ0OGQ4NDgzNjNdCmNsYXNzIGJsYWNramFja2FwcDo6Y29tcG9uZW50czo6Y2FyZGJhY2suZGFydDo6Q2FyZEJhY2stLT48ZyBpZD0iZWxlbV9ibGFja2phY2thcHA6OmNvbXBvbmVudHM6OmNhcmRiYWNrLmRhcnQ6OkNhcmRCYWNrIj48cmVjdCBjb2RlTGluZT0iNDUiIGZpbGw9IiNGMUYxRjEiIGhlaWdodD0iNzcuOTY4OCIgaWQ9ImJsYWNramFja2FwcDo6Y29tcG9uZW50czo6Y2FyZGJhY2suZGFydDo6Q2FyZEJhY2siIHJ4PSIyLjUiIHJ5PSIyLjUiIHN0eWxlPSJzdHJva2U6IzE4MTgxODtzdHJva2Utd2lkdGg6MC41OyIgd2lkdGg9IjEyNiIgeD0iOTYzIiB5PSIzNDkuNSIvPjxlbGxpcHNlIGN4PSI5OTUuMSIgY3k9IjM2NS41IiBmaWxsPSIjQUREMUIyIiByeD0iMTEiIHJ5PSIxMSIgc3R5bGU9InN0cm9rZTojMTgxODE4O3N0cm9rZS13aWR0aDoxLjA7Ii8+PHBhdGggZD0iTTk5Mi43MjUsMzY5Ljc1IEw5OTIuNzI1LDM3MS41IEw5OTcuNjYyNSwzNzEuNSBMOTk3LjY2MjUsMzY5Ljc1IEw5OTIuNzI1LDM2OS43NSBaIE05OTMuNDEyNSwzNzAuNDM3NSBROTkzLjQxMjUsMzcwLjQzNzUgOTkzLjQxMjUsMzYxLjI1IEw5OTEuNjYyNSwzNjEuMjUgUTk5MS42NjI1LDM2MS4yNSA5OTEuNjYyNSwzNzAuNDM3NSBMOTkzLjQxMjUsMzcwLjQzNzUgWiBNOTk2Ljk3NSwzNzAuNDM3NSBMOTk4LjcyNSwzNzAuNDM3NSBROTk4LjcyNSwzNzAuNDM3NSA5OTguNzI1LDM2Ny42MjUgTDk5Ni45NzUsMzY3LjYyNSBROTk2Ljk3NSwzNjcuNjI1IDk5Ni45NzUsMzcwLjQzNzUgWiBNOTk2Ljk3NSwzNjEuMjUgUTk5Ni45NzUsMzYxLjI1IDk5Ni45NzUsMzY0LjA2MjUgTDk5OC43MjUsMzY0LjA2MjUgUTk5OC43MjUsMzY0LjA2MjUgOTk4LjcyNSwzNjEuMjUgTDk5Ni45NzUsMzYxLjI1IFogTTk5Mi43MjUsMzYxLjkzNzUgTDk5Ny42NjI1LDM2MS45Mzc1IEw5OTcuNjYyNSwzNjAuMTg3NSBMOTkyLjcyNSwzNjAuMTg3NSBMOTkyLjcyNSwzNjEuOTM3NSBaICIgZmlsbD0iIzAwMDAwMCIvPjx0ZXh0IGZpbGw9IiMwMDAwMDAiIGZvbnQtZmFtaWx5PSJzYW5zLXNlcmlmIiBmb250LXNpemU9IjE0IiBsZW5ndGhBZGp1c3Q9InNwYWNpbmciIHRleHRMZW5ndGg9IjU2IiB4PSIxMDEyLjkiIHk9IjM3MS4yNDIyIj5DYXJkQmFjazwvdGV4dD48bGluZSBzdHlsZT0ic3Ryb2tlOiMxODE4MTg7c3Ryb2tlLXdpZHRoOjAuNTsiIHgxPSI5NjQiIHgyPSIxMDg4IiB5MT0iMzgxLjUiIHkyPSIzODEuNSIvPjxlbGxpcHNlIGN4PSI5NzQiIGN5PSIzOTIuNSIgZmlsbD0ibm9uZSIgcng9IjMiIHJ5PSIzIiBzdHlsZT0ic3Ryb2tlOiMwMzgwNDg7c3Ryb2tlLXdpZHRoOjEuMDsiLz48dGV4dCBmaWxsPSIjMDAwMDAwIiBmb250LWZhbWlseT0ic2Fucy1zZXJpZiIgZm9udC1zaXplPSIxNCIgbGVuZ3RoQWRqdXN0PSJzcGFjaW5nIiB0ZXh0TGVuZ3RoPSI5MiIgeD0iOTgzIiB5PSIzOTguNzM0NCI+ZHluYW1pYyBjb2xvcjwvdGV4dD48bGluZSBzdHlsZT0ic3Ryb2tlOiMxODE4MTg7c3Ryb2tlLXdpZHRoOjAuNTsiIHgxPSI5NjQiIHgyPSIxMDg4IiB5MT0iNDA0LjQ4NDQiIHkyPSI0MDQuNDg0NCIvPjxlbGxpcHNlIGN4PSI5NzQiIGN5PSI0MTUuNDg0NCIgZmlsbD0iIzg0QkU4NCIgcng9IjMiIHJ5PSIzIiBzdHlsZT0ic3Ryb2tlOiMwMzgwNDg7c3Ryb2tlLXdpZHRoOjEuMDsiLz48dGV4dCBmaWxsPSIjMDAwMDAwIiBmb250LWZhbWlseT0ic2Fucy1zZXJpZiIgZm9udC1zaXplPSIxNCIgbGVuZ3RoQWRqdXN0PSJzcGFjaW5nIiB0ZXh0TGVuZ3RoPSIxMDAiIHg9Ijk4MyIgeT0iNDIxLjcxODgiPldpZGdldCBidWlsZCgpPC90ZXh0PjwvZz48IS0tTUQ1PVtlZmM5ZmY4MzgyZWFiZDBmMGI4MjJkMWJlMThhOThhOV0KY2xhc3MgZmx1dHRlcjo6c3JjOjp3aWRnZXRzOjpmcmFtZXdvcmsuZGFydDo6U3RhdGVsZXNzV2lkZ2V0LS0+PGcgaWQ9ImVsZW1fZmx1dHRlcjo6c3JjOjp3aWRnZXRzOjpmcmFtZXdvcmsuZGFydDo6U3RhdGVsZXNzV2lkZ2V0Ij48cmVjdCBmaWxsPSIjRjFGMUYxIiBoZWlnaHQ9IjQ4IiBpZD0iZmx1dHRlcjo6c3JjOjp3aWRnZXRzOjpmcmFtZXdvcmsuZGFydDo6U3RhdGVsZXNzV2lkZ2V0IiByeD0iMi41IiByeT0iMi41IiBzdHlsZT0ic3Ryb2tlOiMxODE4MTg7c3Ryb2tlLXdpZHRoOjAuNTsiIHdpZHRoPSIxMzciIHg9IjE5NDUuNSIgeT0iOTEuNSIvPjxlbGxpcHNlIGN4PSIxOTYwLjUiIGN5PSIxMDcuNSIgZmlsbD0iI0FERDFCMiIgcng9IjExIiByeT0iMTEiIHN0eWxlPSJzdHJva2U6IzE4MTgxODtzdHJva2Utd2lkdGg6MS4wOyIvPjxwYXRoIGQ9Ik0xOTU4LjEyNSwxMTEuNzUgTDE5NTguMTI1LDExMy41IEwxOTYzLjA2MjUsMTEzLjUgTDE5NjMuMDYyNSwxMTEuNzUgTDE5NTguMTI1LDExMS43NSBaIE0xOTU4LjgxMjUsMTEyLjQzNzUgUTE5NTguODEyNSwxMTIuNDM3NSAxOTU4LjgxMjUsMTAzLjI1IEwxOTU3LjA2MjUsMTAzLjI1IFExOTU3LjA2MjUsMTAzLjI1IDE5NTcuMDYyNSwxMTIuNDM3NSBMMTk1OC44MTI1LDExMi40Mzc1IFogTTE5NjIuMzc1LDExMi40Mzc1IEwxOTY0LjEyNSwxMTIuNDM3NSBRMTk2NC4xMjUsMTEyLjQzNzUgMTk2NC4xMjUsMTA5LjYyNSBMMTk2Mi4zNzUsMTA5LjYyNSBRMTk2Mi4zNzUsMTA5LjYyNSAxOTYyLjM3NSwxMTIuNDM3NSBaIE0xOTYyLjM3NSwxMDMuMjUgUTE5NjIuMzc1LDEwMy4yNSAxOTYyLjM3NSwxMDYuMDYyNSBMMTk2NC4xMjUsMTA2LjA2MjUgUTE5NjQuMTI1LDEwNi4wNjI1IDE5NjQuMTI1LDEwMy4yNSBMMTk2Mi4zNzUsMTAzLjI1IFogTTE5NTguMTI1LDEwMy45Mzc1IEwxOTYzLjA2MjUsMTAzLjkzNzUgTDE5NjMuMDYyNSwxMDIuMTg3NSBMMTk1OC4xMjUsMTAyLjE4NzUgTDE5NTguMTI1LDEwMy45Mzc1IFogIiBmaWxsPSIjMDAwMDAwIi8+PHRleHQgZmlsbD0iIzAwMDAwMCIgZm9udC1mYW1pbHk9InNhbnMtc2VyaWYiIGZvbnQtc2l6ZT0iMTQiIGxlbmd0aEFkanVzdD0ic3BhY2luZyIgdGV4dExlbmd0aD0iMTA1IiB4PSIxOTc0LjUiIHk9IjExMy4yNDIyIj5TdGF0ZWxlc3NXaWRnZXQ8L3RleHQ+PGxpbmUgc3R5bGU9InN0cm9rZTojMTgxODE4O3N0cm9rZS13aWR0aDowLjU7IiB4MT0iMTk0Ni41IiB4Mj0iMjA4MS41IiB5MT0iMTIzLjUiIHkyPSIxMjMuNSIvPjxsaW5lIHN0eWxlPSJzdHJva2U6IzE4MTgxODtzdHJva2Utd2lkdGg6MC41OyIgeDE9IjE5NDYuNSIgeDI9IjIwODEuNSIgeTE9IjEzMS41IiB5Mj0iMTMxLjUiLz48L2c+PCEtLU1ENT1bYWEzZjdlZWFmZWM1MjJiYTliYzhmNTliMzE1NTA4MmNdCmNsYXNzIGZsdXR0ZXI6OnNyYzo6d2lkZ2V0czo6ZnJhbWV3b3JrLmRhcnQ6OlN0YXRlZnVsV2lkZ2V0LS0+PGcgaWQ9ImVsZW1fZmx1dHRlcjo6c3JjOjp3aWRnZXRzOjpmcmFtZXdvcmsuZGFydDo6U3RhdGVmdWxXaWRnZXQiPjxyZWN0IGZpbGw9IiNGMUYxRjEiIGhlaWdodD0iNDgiIGlkPSJmbHV0dGVyOjpzcmM6OndpZGdldHM6OmZyYW1ld29yay5kYXJ0OjpTdGF0ZWZ1bFdpZGdldCIgcng9IjIuNSIgcnk9IjIuNSIgc3R5bGU9InN0cm9rZTojMTgxODE4O3N0cm9rZS13aWR0aDowLjU7IiB3aWR0aD0iMTMwIiB4PSIyMTE4IiB5PSI5MS41Ii8+PGVsbGlwc2UgY3g9IjIxMzMiIGN5PSIxMDcuNSIgZmlsbD0iI0FERDFCMiIgcng9IjExIiByeT0iMTEiIHN0eWxlPSJzdHJva2U6IzE4MTgxODtzdHJva2Utd2lkdGg6MS4wOyIvPjxwYXRoIGQ9Ik0yMTMwLjYyNSwxMTEuNzUgTDIxMzAuNjI1LDExMy41IEwyMTM1LjU2MjUsMTEzLjUgTDIxMzUuNTYyNSwxMTEuNzUgTDIxMzAuNjI1LDExMS43NSBaIE0yMTMxLjMxMjUsMTEyLjQzNzUgUTIxMzEuMzEyNSwxMTIuNDM3NSAyMTMxLjMxMjUsMTAzLjI1IEwyMTI5LjU2MjUsMTAzLjI1IFEyMTI5LjU2MjUsMTAzLjI1IDIxMjkuNTYyNSwxMTIuNDM3NSBMMjEzMS4zMTI1LDExMi40Mzc1IFogTTIxMzQuODc1LDExMi40Mzc1IEwyMTM2LjYyNSwxMTIuNDM3NSBRMjEzNi42MjUsMTEyLjQzNzUgMjEzNi42MjUsMTA5LjYyNSBMMjEzNC44NzUsMTA5LjYyNSBRMjEzNC44NzUsMTA5LjYyNSAyMTM0Ljg3NSwxMTIuNDM3NSBaIE0yMTM0Ljg3NSwxMDMuMjUgUTIxMzQuODc1LDEwMy4yNSAyMTM0Ljg3NSwxMDYuMDYyNSBMMjEzNi42MjUsMTA2LjA2MjUgUTIxMzYuNjI1LDEwNi4wNjI1IDIxMzYuNjI1LDEwMy4yNSBMMjEzNC44NzUsMTAzLjI1IFogTTIxMzAuNjI1LDEwMy45Mzc1IEwyMTM1LjU2MjUsMTAzLjkzNzUgTDIxMzUuNTYyNSwxMDIuMTg3NSBMMjEzMC42MjUsMTAyLjE4NzUgTDIxMzAuNjI1LDEwMy45Mzc1IFogIiBmaWxsPSIjMDAwMDAwIi8+PHRleHQgZmlsbD0iIzAwMDAwMCIgZm9udC1mYW1pbHk9InNhbnMtc2VyaWYiIGZvbnQtc2l6ZT0iMTQiIGxlbmd0aEFkanVzdD0ic3BhY2luZyIgdGV4dExlbmd0aD0iOTgiIHg9IjIxNDciIHk9IjExMy4yNDIyIj5TdGF0ZWZ1bFdpZGdldDwvdGV4dD48bGluZSBzdHlsZT0ic3Ryb2tlOiMxODE4MTg7c3Ryb2tlLXdpZHRoOjAuNTsiIHgxPSIyMTE5IiB4Mj0iMjI0NyIgeTE9IjEyMy41IiB5Mj0iMTIzLjUiLz48bGluZSBzdHlsZT0ic3Ryb2tlOiMxODE4MTg7c3Ryb2tlLXdpZHRoOjAuNTsiIHgxPSIyMTE5IiB4Mj0iMjI0NyIgeTE9IjEzMS41IiB5Mj0iMTMxLjUiLz48L2c+PCEtLU1ENT1bOTQzMjYxOTc3NmU3MTgwMWZkNGI1ODU5NGVmNzM1MThdCmNsYXNzIGZsdXR0ZXI6OnNyYzo6d2lkZ2V0czo6ZnJhbWV3b3JrLmRhcnQ6OlN0YXRlLS0+PGcgaWQ9ImVsZW1fZmx1dHRlcjo6c3JjOjp3aWRnZXRzOjpmcmFtZXdvcmsuZGFydDo6U3RhdGUiPjxyZWN0IGZpbGw9IiNGMUYxRjEiIGhlaWdodD0iNDgiIGlkPSJmbHV0dGVyOjpzcmM6OndpZGdldHM6OmZyYW1ld29yay5kYXJ0OjpTdGF0ZSIgcng9IjIuNSIgcnk9IjIuNSIgc3R5bGU9InN0cm9rZTojMTgxODE4O3N0cm9rZS13aWR0aDowLjU7IiB3aWR0aD0iNjciIHg9IjIyODMuNSIgeT0iOTEuNSIvPjxlbGxpcHNlIGN4PSIyMjk4LjUiIGN5PSIxMDcuNSIgZmlsbD0iI0FERDFCMiIgcng9IjExIiByeT0iMTEiIHN0eWxlPSJzdHJva2U6IzE4MTgxODtzdHJva2Utd2lkdGg6MS4wOyIvPjxwYXRoIGQ9Ik0yMjk2LjEyNSwxMTEuNzUgTDIyOTYuMTI1LDExMy41IEwyMzAxLjA2MjUsMTEzLjUgTDIzMDEuMDYyNSwxMTEuNzUgTDIyOTYuMTI1LDExMS43NSBaIE0yMjk2LjgxMjUsMTEyLjQzNzUgUTIyOTYuODEyNSwxMTIuNDM3NSAyMjk2LjgxMjUsMTAzLjI1IEwyMjk1LjA2MjUsMTAzLjI1IFEyMjk1LjA2MjUsMTAzLjI1IDIyOTUuMDYyNSwxMTIuNDM3NSBMMjI5Ni44MTI1LDExMi40Mzc1IFogTTIzMDAuMzc1LDExMi40Mzc1IEwyMzAyLjEyNSwxMTIuNDM3NSBRMjMwMi4xMjUsMTEyLjQzNzUgMjMwMi4xMjUsMTA5LjYyNSBMMjMwMC4zNzUsMTA5LjYyNSBRMjMwMC4zNzUsMTA5LjYyNSAyMzAwLjM3NSwxMTIuNDM3NSBaIE0yMzAwLjM3NSwxMDMuMjUgUTIzMDAuMzc1LDEwMy4yNSAyMzAwLjM3NSwxMDYuMDYyNSBMMjMwMi4xMjUsMTA2LjA2MjUgUTIzMDIuMTI1LDEwNi4wNjI1IDIzMDIuMTI1LDEwMy4yNSBMMjMwMC4zNzUsMTAzLjI1IFogTTIyOTYuMTI1LDEwMy45Mzc1IEwyMzAxLjA2MjUsMTAzLjkzNzUgTDIzMDEuMDYyNSwxMDIuMTg3NSBMMjI5Ni4xMjUsMTAyLjE4NzUgTDIyOTYuMTI1LDEwMy45Mzc1IFogIiBmaWxsPSIjMDAwMDAwIi8+PHRleHQgZmlsbD0iIzAwMDAwMCIgZm9udC1mYW1pbHk9InNhbnMtc2VyaWYiIGZvbnQtc2l6ZT0iMTQiIGxlbmd0aEFkanVzdD0ic3BhY2luZyIgdGV4dExlbmd0aD0iMzUiIHg9IjIzMTIuNSIgeT0iMTEzLjI0MjIiPlN0YXRlPC90ZXh0PjxsaW5lIHN0eWxlPSJzdHJva2U6IzE4MTgxODtzdHJva2Utd2lkdGg6MC41OyIgeDE9IjIyODQuNSIgeDI9IjIzNDkuNSIgeTE9IjEyMy41IiB5Mj0iMTIzLjUiLz48bGluZSBzdHlsZT0ic3Ryb2tlOiMxODE4MTg7c3Ryb2tlLXdpZHRoOjAuNTsiIHgxPSIyMjg0LjUiIHgyPSIyMzQ5LjUiIHkxPSIxMzEuNSIgeTI9IjEzMS41Ii8+PC9nPjwhLS1NRDU9WzVhOTBhOGZmNjA1NmJjN2JmODNlYTU0YzkxNThiMTgwXQpjbGFzcyBibGFja2phY2thcHA6OmNvbXBvbmVudHM6OmNhcmR0ZW1wbGF0ZS5kYXJ0OjpDYXJkVGVtcGxhdGUtLT48ZyBpZD0iZWxlbV9ibGFja2phY2thcHA6OmNvbXBvbmVudHM6OmNhcmR0ZW1wbGF0ZS5kYXJ0OjpDYXJkVGVtcGxhdGUiPjxyZWN0IGNvZGVMaW5lPSI1MiIgZmlsbD0iI0YxRjFGMSIgaGVpZ2h0PSI5Mi45NTMxIiBpZD0iYmxhY2tqYWNrYXBwOjpjb21wb25lbnRzOjpjYXJkdGVtcGxhdGUuZGFydDo6Q2FyZFRlbXBsYXRlIiByeD0iMi41IiByeT0iMi41IiBzdHlsZT0ic3Ryb2tlOiMxODE4MTg7c3Ryb2tlLXdpZHRoOjAuNTsiIHdpZHRoPSIxMjYiIHg9IjEzMDYiIHk9IjM0MiIvPjxlbGxpcHNlIGN4PSIxMzI1LjA1IiBjeT0iMzU4IiBmaWxsPSIjQUREMUIyIiByeD0iMTEiIHJ5PSIxMSIgc3R5bGU9InN0cm9rZTojMTgxODE4O3N0cm9rZS13aWR0aDoxLjA7Ii8+PHBhdGggZD0iTTEzMjIuNjc1LDM2Mi4yNSBMMTMyMi42NzUsMzY0IEwxMzI3LjYxMjUsMzY0IEwxMzI3LjYxMjUsMzYyLjI1IEwxMzIyLjY3NSwzNjIuMjUgWiBNMTMyMy4zNjI1LDM2Mi45Mzc1IFExMzIzLjM2MjUsMzYyLjkzNzUgMTMyMy4zNjI1LDM1My43NSBMMTMyMS42MTI1LDM1My43NSBRMTMyMS42MTI1LDM1My43NSAxMzIxLjYxMjUsMzYyLjkzNzUgTDEzMjMuMzYyNSwzNjIuOTM3NSBaIE0xMzI2LjkyNSwzNjIuOTM3NSBMMTMyOC42NzUsMzYyLjkzNzUgUTEzMjguNjc1LDM2Mi45Mzc1IDEzMjguNjc1LDM2MC4xMjUgTDEzMjYuOTI1LDM2MC4xMjUgUTEzMjYuOTI1LDM2MC4xMjUgMTMyNi45MjUsMzYyLjkzNzUgWiBNMTMyNi45MjUsMzUzLjc1IFExMzI2LjkyNSwzNTMuNzUgMTMyNi45MjUsMzU2LjU2MjUgTDEzMjguNjc1LDM1Ni41NjI1IFExMzI4LjY3NSwzNTYuNTYyNSAxMzI4LjY3NSwzNTMuNzUgTDEzMjYuOTI1LDM1My43NSBaIE0xMzIyLjY3NSwzNTQuNDM3NSBMMTMyNy42MTI1LDM1NC40Mzc1IEwxMzI3LjYxMjUsMzUyLjY4NzUgTDEzMjIuNjc1LDM1Mi42ODc1IEwxMzIyLjY3NSwzNTQuNDM3NSBaICIgZmlsbD0iIzAwMDAwMCIvPjx0ZXh0IGZpbGw9IiMwMDAwMDAiIGZvbnQtZmFtaWx5PSJzYW5zLXNlcmlmIiBmb250LXNpemU9IjE0IiBsZW5ndGhBZGp1c3Q9InNwYWNpbmciIHRleHRMZW5ndGg9Ijg1IiB4PSIxMzM5Ljk1IiB5PSIzNjMuNzQyMiI+Q2FyZFRlbXBsYXRlPC90ZXh0PjxsaW5lIHN0eWxlPSJzdHJva2U6IzE4MTgxODtzdHJva2Utd2lkdGg6MC41OyIgeDE9IjEzMDciIHgyPSIxNDMxIiB5MT0iMzc0IiB5Mj0iMzc0Ii8+PGVsbGlwc2UgY3g9IjEzMTciIGN5PSIzODUiIGZpbGw9Im5vbmUiIHJ4PSIzIiByeT0iMyIgc3R5bGU9InN0cm9rZTojMDM4MDQ4O3N0cm9rZS13aWR0aDoxLjA7Ii8+PHRleHQgZmlsbD0iIzAwMDAwMCIgZm9udC1mYW1pbHk9InNhbnMtc2VyaWYiIGZvbnQtc2l6ZT0iMTQiIGxlbmd0aEFkanVzdD0ic3BhY2luZyIgdGV4dExlbmd0aD0iODUiIHg9IjEzMjYiIHk9IjM5MS4yMzQ0Ij5keW5hbWljIHN1aXQ8L3RleHQ+PGVsbGlwc2UgY3g9IjEzMTciIGN5PSIzOTkuOTg0NCIgZmlsbD0ibm9uZSIgcng9IjMiIHJ5PSIzIiBzdHlsZT0ic3Ryb2tlOiMwMzgwNDg7c3Ryb2tlLXdpZHRoOjEuMDsiLz48dGV4dCBmaWxsPSIjMDAwMDAwIiBmb250LWZhbWlseT0ic2Fucy1zZXJpZiIgZm9udC1zaXplPSIxNCIgbGVuZ3RoQWRqdXN0PSJzcGFjaW5nIiB0ZXh0TGVuZ3RoPSIxMDAiIHg9IjEzMjYiIHk9IjQwNi4yMTg4Ij5keW5hbWljIG51bWJlcjwvdGV4dD48bGluZSBzdHlsZT0ic3Ryb2tlOiMxODE4MTg7c3Ryb2tlLXdpZHRoOjAuNTsiIHgxPSIxMzA3IiB4Mj0iMTQzMSIgeTE9IjQxMS45Njg4IiB5Mj0iNDExLjk2ODgiLz48ZWxsaXBzZSBjeD0iMTMxNyIgY3k9IjQyMi45Njg4IiBmaWxsPSIjODRCRTg0IiByeD0iMyIgcnk9IjMiIHN0eWxlPSJzdHJva2U6IzAzODA0ODtzdHJva2Utd2lkdGg6MS4wOyIvPjx0ZXh0IGZpbGw9IiMwMDAwMDAiIGZvbnQtZmFtaWx5PSJzYW5zLXNlcmlmIiBmb250LXNpemU9IjE0IiBsZW5ndGhBZGp1c3Q9InNwYWNpbmciIHRleHRMZW5ndGg9IjEwMCIgeD0iMTMyNiIgeT0iNDI5LjIwMzEiPldpZGdldCBidWlsZCgpPC90ZXh0PjwvZz48IS0tTUQ1PVsyNTIxYTBmY2NlMzY5MDgxYTQyMGFlNWE2MjRiNGZmNV0KY2xhc3MgYmxhY2tqYWNrYXBwOjpjb21wb25lbnRzOjpnYW1lYm9hcmQuZGFydDo6R2FtZUJvYXJkLS0+PGcgaWQ9ImVsZW1fYmxhY2tqYWNrYXBwOjpjb21wb25lbnRzOjpnYW1lYm9hcmQuZGFydDo6R2FtZUJvYXJkIj48cmVjdCBjb2RlTGluZT0iNjAiIGZpbGw9IiNGMUYxRjEiIGhlaWdodD0iNjIuOTg0NCIgaWQ9ImJsYWNramFja2FwcDo6Y29tcG9uZW50czo6Z2FtZWJvYXJkLmRhcnQ6OkdhbWVCb2FyZCIgcng9IjIuNSIgcnk9IjIuNSIgc3R5bGU9InN0cm9rZTojMTgxODE4O3N0cm9rZS13aWR0aDowLjU7IiB3aWR0aD0iMTI2IiB4PSIxNjI4IiB5PSIzNTciLz48ZWxsaXBzZSBjeD0iMTY1Ni41IiBjeT0iMzczIiBmaWxsPSIjQUREMUIyIiByeD0iMTEiIHJ5PSIxMSIgc3R5bGU9InN0cm9rZTojMTgxODE4O3N0cm9rZS13aWR0aDoxLjA7Ii8+PHBhdGggZD0iTTE2NTQuMTI1LDM3Ny4yNSBMMTY1NC4xMjUsMzc5IEwxNjU5LjA2MjUsMzc5IEwxNjU5LjA2MjUsMzc3LjI1IEwxNjU0LjEyNSwzNzcuMjUgWiBNMTY1NC44MTI1LDM3Ny45Mzc1IFExNjU0LjgxMjUsMzc3LjkzNzUgMTY1NC44MTI1LDM2OC43NSBMMTY1My4wNjI1LDM2OC43NSBRMTY1My4wNjI1LDM2OC43NSAxNjUzLjA2MjUsMzc3LjkzNzUgTDE2NTQuODEyNSwzNzcuOTM3NSBaIE0xNjU4LjM3NSwzNzcuOTM3NSBMMTY2MC4xMjUsMzc3LjkzNzUgUTE2NjAuMTI1LDM3Ny45Mzc1IDE2NjAuMTI1LDM3NS4xMjUgTDE2NTguMzc1LDM3NS4xMjUgUTE2NTguMzc1LDM3NS4xMjUgMTY1OC4zNzUsMzc3LjkzNzUgWiBNMTY1OC4zNzUsMzY4Ljc1IFExNjU4LjM3NSwzNjguNzUgMTY1OC4zNzUsMzcxLjU2MjUgTDE2NjAuMTI1LDM3MS41NjI1IFExNjYwLjEyNSwzNzEuNTYyNSAxNjYwLjEyNSwzNjguNzUgTDE2NTguMzc1LDM2OC43NSBaIE0xNjU0LjEyNSwzNjkuNDM3NSBMMTY1OS4wNjI1LDM2OS40Mzc1IEwxNjU5LjA2MjUsMzY3LjY4NzUgTDE2NTQuMTI1LDM2Ny42ODc1IEwxNjU0LjEyNSwzNjkuNDM3NSBaICIgZmlsbD0iIzAwMDAwMCIvPjx0ZXh0IGZpbGw9IiMwMDAwMDAiIGZvbnQtZmFtaWx5PSJzYW5zLXNlcmlmIiBmb250LXNpemU9IjE0IiBsZW5ndGhBZGp1c3Q9InNwYWNpbmciIHRleHRMZW5ndGg9IjY0IiB4PSIxNjczLjUiIHk9IjM3OC43NDIyIj5HYW1lQm9hcmQ8L3RleHQ+PGxpbmUgc3R5bGU9InN0cm9rZTojMTgxODE4O3N0cm9rZS13aWR0aDowLjU7IiB4MT0iMTYyOSIgeDI9IjE3NTMiIHkxPSIzODkiIHkyPSIzODkiLz48bGluZSBzdHlsZT0ic3Ryb2tlOiMxODE4MTg7c3Ryb2tlLXdpZHRoOjAuNTsiIHgxPSIxNjI5IiB4Mj0iMTc1MyIgeTE9IjM5NyIgeTI9IjM5NyIvPjxlbGxpcHNlIGN4PSIxNjM5IiBjeT0iNDA4IiBmaWxsPSIjODRCRTg0IiByeD0iMyIgcnk9IjMiIHN0eWxlPSJzdHJva2U6IzAzODA0ODtzdHJva2Utd2lkdGg6MS4wOyIvPjx0ZXh0IGZpbGw9IiMwMDAwMDAiIGZvbnQtZmFtaWx5PSJzYW5zLXNlcmlmIiBmb250LXNpemU9IjE0IiBsZW5ndGhBZGp1c3Q9InNwYWNpbmciIHRleHRMZW5ndGg9IjEwMCIgeD0iMTY0OCIgeT0iNDE0LjIzNDQiPldpZGdldCBidWlsZCgpPC90ZXh0PjwvZz48IS0tTUQ1PVs0ZDhkMDYwMGY5M2NlMmNlMGVkYzQ0ZTllZTJkYjIzMF0KY2xhc3MgYmxhY2tqYWNrYXBwOjptYWluLmRhcnQ6Ok15QXBwLS0+PGcgaWQ9ImVsZW1fYmxhY2tqYWNrYXBwOjptYWluLmRhcnQ6Ok15QXBwIj48cmVjdCBjb2RlTGluZT0iNjYiIGZpbGw9IiNGMUYxRjEiIGhlaWdodD0iNjIuOTg0NCIgaWQ9ImJsYWNramFja2FwcDo6bWFpbi5kYXJ0OjpNeUFwcCIgcng9IjIuNSIgcnk9IjIuNSIgc3R5bGU9InN0cm9rZTojMTgxODE4O3N0cm9rZS13aWR0aDowLjU7IiB3aWR0aD0iMTI2IiB4PSIxODMwIiB5PSIzNTciLz48ZWxsaXBzZSBjeD0iMTg3MS41NSIgY3k9IjM3MyIgZmlsbD0iI0FERDFCMiIgcng9IjExIiByeT0iMTEiIHN0eWxlPSJzdHJva2U6IzE4MTgxODtzdHJva2Utd2lkdGg6MS4wOyIvPjxwYXRoIGQ9Ik0xODY5LjE3NSwzNzcuMjUgTDE4NjkuMTc1LDM3OSBMMTg3NC4xMTI1LDM3OSBMMTg3NC4xMTI1LDM3Ny4yNSBMMTg2OS4xNzUsMzc3LjI1IFogTTE4NjkuODYyNSwzNzcuOTM3NSBRMTg2OS44NjI1LDM3Ny45Mzc1IDE4NjkuODYyNSwzNjguNzUgTDE4NjguMTEyNSwzNjguNzUgUTE4NjguMTEyNSwzNjguNzUgMTg2OC4xMTI1LDM3Ny45Mzc1IEwxODY5Ljg2MjUsMzc3LjkzNzUgWiBNMTg3My40MjUsMzc3LjkzNzUgTDE4NzUuMTc1LDM3Ny45Mzc1IFExODc1LjE3NSwzNzcuOTM3NSAxODc1LjE3NSwzNzUuMTI1IEwxODczLjQyNSwzNzUuMTI1IFExODczLjQyNSwzNzUuMTI1IDE4NzMuNDI1LDM3Ny45Mzc1IFogTTE4NzMuNDI1LDM2OC43NSBRMTg3My40MjUsMzY4Ljc1IDE4NzMuNDI1LDM3MS41NjI1IEwxODc1LjE3NSwzNzEuNTYyNSBRMTg3NS4xNzUsMzcxLjU2MjUgMTg3NS4xNzUsMzY4Ljc1IEwxODczLjQyNSwzNjguNzUgWiBNMTg2OS4xNzUsMzY5LjQzNzUgTDE4NzQuMTEyNSwzNjkuNDM3NSBMMTg3NC4xMTI1LDM2Ny42ODc1IEwxODY5LjE3NSwzNjcuNjg3NSBMMTg2OS4xNzUsMzY5LjQzNzUgWiAiIGZpbGw9IiMwMDAwMDAiLz48dGV4dCBmaWxsPSIjMDAwMDAwIiBmb250LWZhbWlseT0ic2Fucy1zZXJpZiIgZm9udC1zaXplPSIxNCIgbGVuZ3RoQWRqdXN0PSJzcGFjaW5nIiB0ZXh0TGVuZ3RoPSIzNSIgeD0iMTg5MS40NSIgeT0iMzc4Ljc0MjIiPk15QXBwPC90ZXh0PjxsaW5lIHN0eWxlPSJzdHJva2U6IzE4MTgxODtzdHJva2Utd2lkdGg6MC41OyIgeDE9IjE4MzEiIHgyPSIxOTU1IiB5MT0iMzg5IiB5Mj0iMzg5Ii8+PGxpbmUgc3R5bGU9InN0cm9rZTojMTgxODE4O3N0cm9rZS13aWR0aDowLjU7IiB4MT0iMTgzMSIgeDI9IjE5NTUiIHkxPSIzOTciIHkyPSIzOTciLz48ZWxsaXBzZSBjeD0iMTg0MSIgY3k9IjQwOCIgZmlsbD0iIzg0QkU4NCIgcng9IjMiIHJ5PSIzIiBzdHlsZT0ic3Ryb2tlOiMwMzgwNDg7c3Ryb2tlLXdpZHRoOjEuMDsiLz48dGV4dCBmaWxsPSIjMDAwMDAwIiBmb250LWZhbWlseT0ic2Fucy1zZXJpZiIgZm9udC1zaXplPSIxNCIgbGVuZ3RoQWRqdXN0PSJzcGFjaW5nIiB0ZXh0TGVuZ3RoPSIxMDAiIHg9IjE4NTAiIHk9IjQxNC4yMzQ0Ij5XaWRnZXQgYnVpbGQoKTwvdGV4dD48L2c+PCEtLU1ENT1bYWUwNDAzODZiNWNlZDE5YzUzMDFjYTRlZTBhYmE1YjVdCmNsYXNzIGJsYWNramFja2FwcDo6bW9kZWxzOjpjYXJkX21vZGVsLmRhcnQ6OkNhcmRNb2RlbC0tPjxnIGlkPSJlbGVtX2JsYWNramFja2FwcDo6bW9kZWxzOjpjYXJkX21vZGVsLmRhcnQ6OkNhcmRNb2RlbCI+PHJlY3QgY29kZUxpbmU9IjcyIiBmaWxsPSIjRjFGMUYxIiBoZWlnaHQ9IjE1Mi44OTA2IiBpZD0iYmxhY2tqYWNrYXBwOjptb2RlbHM6OmNhcmRfbW9kZWwuZGFydDo6Q2FyZE1vZGVsIiByeD0iMi41IiByeT0iMi41IiBzdHlsZT0ic3Ryb2tlOiMxODE4MTg7c3Ryb2tlLXdpZHRoOjAuNTsiIHdpZHRoPSIxODIiIHg9IjUzMCIgeT0iMzkiLz48ZWxsaXBzZSBjeD0iNTg1LjI1IiBjeT0iNTUiIGZpbGw9IiNBREQxQjIiIHJ4PSIxMSIgcnk9IjExIiBzdHlsZT0ic3Ryb2tlOiMxODE4MTg7c3Ryb2tlLXdpZHRoOjEuMDsiLz48cGF0aCBkPSJNNTgyLjg3NSw1OS4yNSBMNTgyLjg3NSw2MSBMNTg3LjgxMjUsNjEgTDU4Ny44MTI1LDU5LjI1IEw1ODIuODc1LDU5LjI1IFogTTU4My41NjI1LDU5LjkzNzUgUTU4My41NjI1LDU5LjkzNzUgNTgzLjU2MjUsNTAuNzUgTDU4MS44MTI1LDUwLjc1IFE1ODEuODEyNSw1MC43NSA1ODEuODEyNSw1OS45Mzc1IEw1ODMuNTYyNSw1OS45Mzc1IFogTTU4Ny4xMjUsNTkuOTM3NSBMNTg4Ljg3NSw1OS45Mzc1IFE1ODguODc1LDU5LjkzNzUgNTg4Ljg3NSw1Ny4xMjUgTDU4Ny4xMjUsNTcuMTI1IFE1ODcuMTI1LDU3LjEyNSA1ODcuMTI1LDU5LjkzNzUgWiBNNTg3LjEyNSw1MC43NSBRNTg3LjEyNSw1MC43NSA1ODcuMTI1LDUzLjU2MjUgTDU4OC44NzUsNTMuNTYyNSBRNTg4Ljg3NSw1My41NjI1IDU4OC44NzUsNTAuNzUgTDU4Ny4xMjUsNTAuNzUgWiBNNTgyLjg3NSw1MS40Mzc1IEw1ODcuODEyNSw1MS40Mzc1IEw1ODcuODEyNSw0OS42ODc1IEw1ODIuODc1LDQ5LjY4NzUgTDU4Mi44NzUsNTEuNDM3NSBaICIgZmlsbD0iIzAwMDAwMCIvPjx0ZXh0IGZpbGw9IiMwMDAwMDAiIGZvbnQtZmFtaWx5PSJzYW5zLXNlcmlmIiBmb250LXNpemU9IjE0IiBsZW5ndGhBZGp1c3Q9InNwYWNpbmciIHRleHRMZW5ndGg9IjYzIiB4PSI2MDUuNzUiIHk9IjYwLjc0MjIiPkNhcmRNb2RlbDwvdGV4dD48bGluZSBzdHlsZT0ic3Ryb2tlOiMxODE4MTg7c3Ryb2tlLXdpZHRoOjAuNTsiIHgxPSI1MzEiIHgyPSI3MTEiIHkxPSI3MSIgeTI9IjcxIi8+PGVsbGlwc2UgY3g9IjU0MSIgY3k9IjgyIiBmaWxsPSJub25lIiByeD0iMyIgcnk9IjMiIHN0eWxlPSJzdHJva2U6IzAzODA0ODtzdHJva2Utd2lkdGg6MS4wOyIvPjx0ZXh0IGZpbGw9IiMwMDAwMDAiIGZvbnQtZmFtaWx5PSJzYW5zLXNlcmlmIiBmb250LXNpemU9IjE0IiBsZW5ndGhBZGp1c3Q9InNwYWNpbmciIHRleHRMZW5ndGg9Ijg1IiB4PSI1NTAiIHk9Ijg4LjIzNDQiPlN0cmluZyBpbWFnZTwvdGV4dD48ZWxsaXBzZSBjeD0iNTQxIiBjeT0iOTYuOTg0NCIgZmlsbD0ibm9uZSIgcng9IjMiIHJ5PSIzIiBzdHlsZT0ic3Ryb2tlOiMwMzgwNDg7c3Ryb2tlLXdpZHRoOjEuMDsiLz48dGV4dCBmaWxsPSIjMDAwMDAwIiBmb250LWZhbWlseT0ic2Fucy1zZXJpZiIgZm9udC1zaXplPSIxNCIgbGVuZ3RoQWRqdXN0PSJzcGFjaW5nIiB0ZXh0TGVuZ3RoPSI2MyIgeD0iNTUwIiB5PSIxMDMuMjE4OCI+U3VpdCBzdWl0PC90ZXh0PjxlbGxpcHNlIGN4PSI1NDEiIGN5PSIxMTEuOTY4OCIgZmlsbD0ibm9uZSIgcng9IjMiIHJ5PSIzIiBzdHlsZT0ic3Ryb2tlOiMwMzgwNDg7c3Ryb2tlLXdpZHRoOjEuMDsiLz48dGV4dCBmaWxsPSIjMDAwMDAwIiBmb250LWZhbWlseT0ic2Fucy1zZXJpZiIgZm9udC1zaXplPSIxNCIgbGVuZ3RoQWRqdXN0PSJzcGFjaW5nIiB0ZXh0TGVuZ3RoPSI4NCIgeD0iNTUwIiB5PSIxMTguMjAzMSI+U3RyaW5nIHZhbHVlPC90ZXh0PjxsaW5lIHN0eWxlPSJzdHJva2U6IzE4MTgxODtzdHJva2Utd2lkdGg6MC41OyIgeDE9IjUzMSIgeDI9IjcxMSIgeTE9IjEyMy45NTMxIiB5Mj0iMTIzLjk1MzEiLz48ZWxsaXBzZSBjeD0iNTQxIiBjeT0iMTM0Ljk1MzEiIGZpbGw9IiM4NEJFODQiIHJ4PSIzIiByeT0iMyIgc3R5bGU9InN0cm9rZTojMDM4MDQ4O3N0cm9rZS13aWR0aDoxLjA7Ii8+PHRleHQgZmlsbD0iIzAwMDAwMCIgZm9udC1mYW1pbHk9InNhbnMtc2VyaWYiIGZvbnQtc2l6ZT0iMTQiIGxlbmd0aEFkanVzdD0ic3BhY2luZyIgdGV4dC1kZWNvcmF0aW9uPSJ1bmRlcmxpbmUiIHRleHRMZW5ndGg9IjEzNSIgeD0iNTUwIiB5PSIxNDEuMTg3NSI+U3VpdCBzdHJpbmdUb1N1aXQoKTwvdGV4dD48ZWxsaXBzZSBjeD0iNTQxIiBjeT0iMTQ5LjkzNzUiIGZpbGw9IiM4NEJFODQiIHJ4PSIzIiByeT0iMyIgc3R5bGU9InN0cm9rZTojMDM4MDQ4O3N0cm9rZS13aWR0aDoxLjA7Ii8+PHRleHQgZmlsbD0iIzAwMDAwMCIgZm9udC1mYW1pbHk9InNhbnMtc2VyaWYiIGZvbnQtc2l6ZT0iMTQiIGxlbmd0aEFkanVzdD0ic3BhY2luZyIgdGV4dC1kZWNvcmF0aW9uPSJ1bmRlcmxpbmUiIHRleHRMZW5ndGg9IjE0OSIgeD0iNTUwIiB5PSIxNTYuMTcxOSI+U3RyaW5nIHN1aXRUb1N0cmluZygpPC90ZXh0PjxlbGxpcHNlIGN4PSI1NDEiIGN5PSIxNjQuOTIxOSIgZmlsbD0iIzg0QkU4NCIgcng9IjMiIHJ5PSIzIiBzdHlsZT0ic3Ryb2tlOiMwMzgwNDg7c3Ryb2tlLXdpZHRoOjEuMDsiLz48dGV4dCBmaWxsPSIjMDAwMDAwIiBmb250LWZhbWlseT0ic2Fucy1zZXJpZiIgZm9udC1zaXplPSIxNCIgbGVuZ3RoQWRqdXN0PSJzcGFjaW5nIiB0ZXh0LWRlY29yYXRpb249InVuZGVybGluZSIgdGV4dExlbmd0aD0iMTU2IiB4PSI1NTAiIHk9IjE3MS4xNTYzIj5TdHJpbmcgc3VpdFRvVW5pY29kZSgpPC90ZXh0PjxlbGxpcHNlIGN4PSI1NDEiIGN5PSIxNzkuOTA2MyIgZmlsbD0iIzg0QkU4NCIgcng9IjMiIHJ5PSIzIiBzdHlsZT0ic3Ryb2tlOiMwMzgwNDg7c3Ryb2tlLXdpZHRoOjEuMDsiLz48dGV4dCBmaWxsPSIjMDAwMDAwIiBmb250LWZhbWlseT0ic2Fucy1zZXJpZiIgZm9udC1zaXplPSIxNCIgbGVuZ3RoQWRqdXN0PSJzcGFjaW5nIiB0ZXh0LWRlY29yYXRpb249InVuZGVybGluZSIgdGV4dExlbmd0aD0iMTM1IiB4PSI1NTAiIHk9IjE4Ni4xNDA2Ij5Db2xvciBzdWl0VG9Db2xvcigpPC90ZXh0PjwvZz48IS0tTUQ1PVs3MzA0M2NiMTc1MTE5ZjUyM2I3MWI2ZWU1ZmQxYzUwNl0KY2xhc3MgYmxhY2tqYWNrYXBwOjptb2RlbHM6OmNhcmRfbW9kZWwuZGFydDo6U3VpdC0tPjxnIGlkPSJlbGVtX2JsYWNramFja2FwcDo6bW9kZWxzOjpjYXJkX21vZGVsLmRhcnQ6OlN1aXQiPjxyZWN0IGNvZGVMaW5lPSI4NCIgZmlsbD0iI0YxRjFGMSIgaGVpZ2h0PSIxNTIuODkwNiIgaWQ9ImJsYWNramFja2FwcDo6bW9kZWxzOjpjYXJkX21vZGVsLmRhcnQ6OlN1aXQiIHJ4PSIyLjUiIHJ5PSIyLjUiIHN0eWxlPSJzdHJva2U6IzE4MTgxODtzdHJva2Utd2lkdGg6MC41OyIgd2lkdGg9IjE0NSIgeD0iNTM5LjUiIHk9IjMxMiIvPjxlbGxpcHNlIGN4PSI1OTMuNzUiIGN5PSIzMjgiIGZpbGw9IiNBREQxQjIiIHJ4PSIxMSIgcnk9IjExIiBzdHlsZT0ic3Ryb2tlOiMxODE4MTg7c3Ryb2tlLXdpZHRoOjEuMDsiLz48cGF0aCBkPSJNNTkxLjM3NSwzMzIuMjUgTDU5MS4zNzUsMzM0IEw1OTYuMzEyNSwzMzQgTDU5Ni4zMTI1LDMzMi4yNSBMNTkxLjM3NSwzMzIuMjUgWiBNNTkyLjA2MjUsMzMyLjkzNzUgUTU5Mi4wNjI1LDMzMi45Mzc1IDU5Mi4wNjI1LDMyMy43NSBMNTkwLjMxMjUsMzIzLjc1IFE1OTAuMzEyNSwzMjMuNzUgNTkwLjMxMjUsMzMyLjkzNzUgTDU5Mi4wNjI1LDMzMi45Mzc1IFogTTU5NS42MjUsMzMyLjkzNzUgTDU5Ny4zNzUsMzMyLjkzNzUgUTU5Ny4zNzUsMzMyLjkzNzUgNTk3LjM3NSwzMzAuMTI1IEw1OTUuNjI1LDMzMC4xMjUgUTU5NS42MjUsMzMwLjEyNSA1OTUuNjI1LDMzMi45Mzc1IFogTTU5NS42MjUsMzIzLjc1IFE1OTUuNjI1LDMyMy43NSA1OTUuNjI1LDMyNi41NjI1IEw1OTcuMzc1LDMyNi41NjI1IFE1OTcuMzc1LDMyNi41NjI1IDU5Ny4zNzUsMzIzLjc1IEw1OTUuNjI1LDMyMy43NSBaIE01OTEuMzc1LDMyNC40Mzc1IEw1OTYuMzEyNSwzMjQuNDM3NSBMNTk2LjMxMjUsMzIyLjY4NzUgTDU5MS4zNzUsMzIyLjY4NzUgTDU5MS4zNzUsMzI0LjQzNzUgWiAiIGZpbGw9IiMwMDAwMDAiLz48dGV4dCBmaWxsPSIjMDAwMDAwIiBmb250LWZhbWlseT0ic2Fucy1zZXJpZiIgZm9udC1zaXplPSIxNCIgbGVuZ3RoQWRqdXN0PSJzcGFjaW5nIiB0ZXh0TGVuZ3RoPSIyOCIgeD0iNjE0LjI1IiB5PSIzMzMuNzQyMiI+U3VpdDwvdGV4dD48bGluZSBzdHlsZT0ic3Ryb2tlOiMxODE4MTg7c3Ryb2tlLXdpZHRoOjAuNTsiIHgxPSI1NDAuNSIgeDI9IjY4My41IiB5MT0iMzQ0IiB5Mj0iMzQ0Ii8+PGVsbGlwc2UgY3g9IjU1MC41IiBjeT0iMzU1IiBmaWxsPSJub25lIiByeD0iMyIgcnk9IjMiIHN0eWxlPSJzdHJva2U6IzAzODA0ODtzdHJva2Utd2lkdGg6MS4wOyIvPjx0ZXh0IGZpbGw9IiMwMDAwMDAiIGZvbnQtZmFtaWx5PSJzYW5zLXNlcmlmIiBmb250LXNpemU9IjE0IiBsZW5ndGhBZGp1c3Q9InNwYWNpbmciIHRleHRMZW5ndGg9IjYzIiB4PSI1NTkuNSIgeT0iMzYxLjIzNDQiPmludCBpbmRleDwvdGV4dD48ZWxsaXBzZSBjeD0iNTUwLjUiIGN5PSIzNjkuOTg0NCIgZmlsbD0ibm9uZSIgcng9IjMiIHJ5PSIzIiBzdHlsZT0ic3Ryb2tlOiMwMzgwNDg7c3Ryb2tlLXdpZHRoOjEuMDsiLz48dGV4dCBmaWxsPSIjMDAwMDAwIiBmb250LWZhbWlseT0ic2Fucy1zZXJpZiIgZm9udC1zaXplPSIxNCIgbGVuZ3RoQWRqdXN0PSJzcGFjaW5nIiB0ZXh0LWRlY29yYXRpb249InVuZGVybGluZSIgdGV4dExlbmd0aD0iMTE5IiB4PSI1NTkuNSIgeT0iMzc2LjIxODgiPkxpc3QmbHQ7U3VpdCZndDsgdmFsdWVzPC90ZXh0PjxlbGxpcHNlIGN4PSI1NTAuNSIgY3k9IjM4NC45Njg4IiBmaWxsPSJub25lIiByeD0iMyIgcnk9IjMiIHN0eWxlPSJzdHJva2U6IzAzODA0ODtzdHJva2Utd2lkdGg6MS4wOyIvPjx0ZXh0IGZpbGw9IiMwMDAwMDAiIGZvbnQtZmFtaWx5PSJzYW5zLXNlcmlmIiBmb250LXNpemU9IjE0IiBsZW5ndGhBZGp1c3Q9InNwYWNpbmciIHRleHQtZGVjb3JhdGlvbj0idW5kZXJsaW5lIiB0ZXh0TGVuZ3RoPSI3NyIgeD0iNTU5LjUiIHk9IjM5MS4yMDMxIj5TdWl0IGhlYXJ0czwvdGV4dD48ZWxsaXBzZSBjeD0iNTUwLjUiIGN5PSIzOTkuOTUzMSIgZmlsbD0ibm9uZSIgcng9IjMiIHJ5PSIzIiBzdHlsZT0ic3Ryb2tlOiMwMzgwNDg7c3Ryb2tlLXdpZHRoOjEuMDsiLz48dGV4dCBmaWxsPSIjMDAwMDAwIiBmb250LWZhbWlseT0ic2Fucy1zZXJpZiIgZm9udC1zaXplPSIxNCIgbGVuZ3RoQWRqdXN0PSJzcGFjaW5nIiB0ZXh0LWRlY29yYXRpb249InVuZGVybGluZSIgdGV4dExlbmd0aD0iNzAiIHg9IjU1OS41IiB5PSI0MDYuMTg3NSI+U3VpdCBjbHViczwvdGV4dD48ZWxsaXBzZSBjeD0iNTUwLjUiIGN5PSI0MTQuOTM3NSIgZmlsbD0ibm9uZSIgcng9IjMiIHJ5PSIzIiBzdHlsZT0ic3Ryb2tlOiMwMzgwNDg7c3Ryb2tlLXdpZHRoOjEuMDsiLz48dGV4dCBmaWxsPSIjMDAwMDAwIiBmb250LWZhbWlseT0ic2Fucy1zZXJpZiIgZm9udC1zaXplPSIxNCIgbGVuZ3RoQWRqdXN0PSJzcGFjaW5nIiB0ZXh0LWRlY29yYXRpb249InVuZGVybGluZSIgdGV4dExlbmd0aD0iOTIiIHg9IjU1OS41IiB5PSI0MjEuMTcxOSI+U3VpdCBkaWFtb25kczwvdGV4dD48ZWxsaXBzZSBjeD0iNTUwLjUiIGN5PSI0MjkuOTIxOSIgZmlsbD0ibm9uZSIgcng9IjMiIHJ5PSIzIiBzdHlsZT0ic3Ryb2tlOiMwMzgwNDg7c3Ryb2tlLXdpZHRoOjEuMDsiLz48dGV4dCBmaWxsPSIjMDAwMDAwIiBmb250LWZhbWlseT0ic2Fucy1zZXJpZiIgZm9udC1zaXplPSIxNCIgbGVuZ3RoQWRqdXN0PSJzcGFjaW5nIiB0ZXh0LWRlY29yYXRpb249InVuZGVybGluZSIgdGV4dExlbmd0aD0iNzciIHg9IjU1OS41IiB5PSI0MzYuMTU2MyI+U3VpdCBzcGFkZXM8L3RleHQ+PGVsbGlwc2UgY3g9IjU1MC41IiBjeT0iNDQ0LjkwNjMiIGZpbGw9Im5vbmUiIHJ4PSIzIiByeT0iMyIgc3R5bGU9InN0cm9rZTojMDM4MDQ4O3N0cm9rZS13aWR0aDoxLjA7Ii8+PHRleHQgZmlsbD0iIzAwMDAwMCIgZm9udC1mYW1pbHk9InNhbnMtc2VyaWYiIGZvbnQtc2l6ZT0iMTQiIGxlbmd0aEFkanVzdD0ic3BhY2luZyIgdGV4dC1kZWNvcmF0aW9uPSJ1bmRlcmxpbmUiIHRleHRMZW5ndGg9IjcwIiB4PSI1NTkuNSIgeT0iNDUxLjE0MDYiPlN1aXQgb3RoZXI8L3RleHQ+PGxpbmUgc3R5bGU9InN0cm9rZTojMTgxODE4O3N0cm9rZS13aWR0aDowLjU7IiB4MT0iNTQwLjUiIHgyPSI2ODMuNSIgeTE9IjQ1Ni44OTA2IiB5Mj0iNDU2Ljg5MDYiLz48L2c+PCEtLU1ENT1bYWEyNjY5ZTcyNWI3ZmJlZGEyZjVmNWE0ZWRjM2JlZjNdCmNsYXNzIGJsYWNramFja2FwcDo6bW9kZWxzOjpkZWNrX21vZGVsLmRhcnQ6OkRlY2tNb2RlbC0tPjxnIGlkPSJlbGVtX2JsYWNramFja2FwcDo6bW9kZWxzOjpkZWNrX21vZGVsLmRhcnQ6OkRlY2tNb2RlbCI+PHJlY3QgY29kZUxpbmU9Ijk3IiBmaWxsPSIjRjFGMUYxIiBoZWlnaHQ9IjkyLjk1MzEiIGlkPSJibGFja2phY2thcHA6Om1vZGVsczo6ZGVja19tb2RlbC5kYXJ0OjpEZWNrTW9kZWwiIHJ4PSIyLjUiIHJ5PSIyLjUiIHN0eWxlPSJzdHJva2U6IzE4MTgxODtzdHJva2Utd2lkdGg6MC41OyIgd2lkdGg9IjExOCIgeD0iMzcwNyIgeT0iNjkiLz48ZWxsaXBzZSBjeD0iMzczMi4zNSIgY3k9Ijg1IiBmaWxsPSIjQUREMUIyIiByeD0iMTEiIHJ5PSIxMSIgc3R5bGU9InN0cm9rZTojMTgxODE4O3N0cm9rZS13aWR0aDoxLjA7Ii8+PHBhdGggZD0iTTM3MjkuOTc1LDg5LjI1IEwzNzI5Ljk3NSw5MSBMMzczNC45MTI1LDkxIEwzNzM0LjkxMjUsODkuMjUgTDM3MjkuOTc1LDg5LjI1IFogTTM3MzAuNjYyNSw4OS45Mzc1IFEzNzMwLjY2MjUsODkuOTM3NSAzNzMwLjY2MjUsODAuNzUgTDM3MjguOTEyNSw4MC43NSBRMzcyOC45MTI1LDgwLjc1IDM3MjguOTEyNSw4OS45Mzc1IEwzNzMwLjY2MjUsODkuOTM3NSBaIE0zNzM0LjIyNSw4OS45Mzc1IEwzNzM1Ljk3NSw4OS45Mzc1IFEzNzM1Ljk3NSw4OS45Mzc1IDM3MzUuOTc1LDg3LjEyNSBMMzczNC4yMjUsODcuMTI1IFEzNzM0LjIyNSw4Ny4xMjUgMzczNC4yMjUsODkuOTM3NSBaIE0zNzM0LjIyNSw4MC43NSBRMzczNC4yMjUsODAuNzUgMzczNC4yMjUsODMuNTYyNSBMMzczNS45NzUsODMuNTYyNSBRMzczNS45NzUsODMuNTYyNSAzNzM1Ljk3NSw4MC43NSBMMzczNC4yMjUsODAuNzUgWiBNMzcyOS45NzUsODEuNDM3NSBMMzczNC45MTI1LDgxLjQzNzUgTDM3MzQuOTEyNSw3OS42ODc1IEwzNzI5Ljk3NSw3OS42ODc1IEwzNzI5Ljk3NSw4MS40Mzc1IFogIiBmaWxsPSIjMDAwMDAwIi8+PHRleHQgZmlsbD0iIzAwMDAwMCIgZm9udC1mYW1pbHk9InNhbnMtc2VyaWYiIGZvbnQtc2l6ZT0iMTQiIGxlbmd0aEFkanVzdD0ic3BhY2luZyIgdGV4dExlbmd0aD0iNjMiIHg9IjM3NDguNjUiIHk9IjkwLjc0MjIiPkRlY2tNb2RlbDwvdGV4dD48bGluZSBzdHlsZT0ic3Ryb2tlOiMxODE4MTg7c3Ryb2tlLXdpZHRoOjAuNTsiIHgxPSIzNzA4IiB4Mj0iMzgyNCIgeTE9IjEwMSIgeTI9IjEwMSIvPjxlbGxpcHNlIGN4PSIzNzE4IiBjeT0iMTEyIiBmaWxsPSJub25lIiByeD0iMyIgcnk9IjMiIHN0eWxlPSJzdHJva2U6IzAzODA0ODtzdHJva2Utd2lkdGg6MS4wOyIvPjx0ZXh0IGZpbGw9IiMwMDAwMDAiIGZvbnQtZmFtaWx5PSJzYW5zLXNlcmlmIiBmb250LXNpemU9IjE0IiBsZW5ndGhBZGp1c3Q9InNwYWNpbmciIHRleHRMZW5ndGg9IjkxIiB4PSIzNzI3IiB5PSIxMTguMjM0NCI+U3RyaW5nIGRlY2tJZDwvdGV4dD48ZWxsaXBzZSBjeD0iMzcxOCIgY3k9IjEyNi45ODQ0IiBmaWxsPSJub25lIiByeD0iMyIgcnk9IjMiIHN0eWxlPSJzdHJva2U6IzAzODA0ODtzdHJva2Utd2lkdGg6MS4wOyIvPjx0ZXh0IGZpbGw9IiMwMDAwMDAiIGZvbnQtZmFtaWx5PSJzYW5zLXNlcmlmIiBmb250LXNpemU9IjE0IiBsZW5ndGhBZGp1c3Q9InNwYWNpbmciIHRleHRMZW5ndGg9IjkxIiB4PSIzNzI3IiB5PSIxMzMuMjE4OCI+Ym9vbCBzaHVmZmxlZDwvdGV4dD48ZWxsaXBzZSBjeD0iMzcxOCIgY3k9IjE0MS45Njg4IiBmaWxsPSJub25lIiByeD0iMyIgcnk9IjMiIHN0eWxlPSJzdHJva2U6IzAzODA0ODtzdHJva2Utd2lkdGg6MS4wOyIvPjx0ZXh0IGZpbGw9IiMwMDAwMDAiIGZvbnQtZmFtaWx5PSJzYW5zLXNlcmlmIiBmb250LXNpemU9IjE0IiBsZW5ndGhBZGp1c3Q9InNwYWNpbmciIHRleHRMZW5ndGg9IjkyIiB4PSIzNzI3IiB5PSIxNDguMjAzMSI+aW50IHJlbWFpbmluZzwvdGV4dD48bGluZSBzdHlsZT0ic3Ryb2tlOiMxODE4MTg7c3Ryb2tlLXdpZHRoOjAuNTsiIHgxPSIzNzA4IiB4Mj0iMzgyNCIgeTE9IjE1My45NTMxIiB5Mj0iMTUzLjk1MzEiLz48L2c+PCEtLU1ENT1bYmUyZTdkMTNhYzc4MGEwMzJlNGFkMjI5MTMwYTllZWRdCmNsYXNzIGJsYWNramFja2FwcDo6bW9kZWxzOjpkcmF3X21vZGVsLmRhcnQ6OkRyYXdNb2RlbC0tPjxnIGlkPSJlbGVtX2JsYWNramFja2FwcDo6bW9kZWxzOjpkcmF3X21vZGVsLmRhcnQ6OkRyYXdNb2RlbCI+PHJlY3QgY29kZUxpbmU9IjEwMyIgZmlsbD0iI0YxRjFGMSIgaGVpZ2h0PSI3Ny45Njg4IiBpZD0iYmxhY2tqYWNrYXBwOjptb2RlbHM6OmRyYXdfbW9kZWwuZGFydDo6RHJhd01vZGVsIiByeD0iMi41IiByeT0iMi41IiBzdHlsZT0ic3Ryb2tlOiMxODE4MTg7c3Ryb2tlLXdpZHRoOjAuNTsiIHdpZHRoPSIxNzMiIHg9IjM5ODEuNSIgeT0iNzYuNSIvPjxlbGxpcHNlIGN4PSI0MDMxLjc1IiBjeT0iOTIuNSIgZmlsbD0iI0FERDFCMiIgcng9IjExIiByeT0iMTEiIHN0eWxlPSJzdHJva2U6IzE4MTgxODtzdHJva2Utd2lkdGg6MS4wOyIvPjxwYXRoIGQ9Ik00MDI5LjM3NSw5Ni43NSBMNDAyOS4zNzUsOTguNSBMNDAzNC4zMTI1LDk4LjUgTDQwMzQuMzEyNSw5Ni43NSBMNDAyOS4zNzUsOTYuNzUgWiBNNDAzMC4wNjI1LDk3LjQzNzUgUTQwMzAuMDYyNSw5Ny40Mzc1IDQwMzAuMDYyNSw4OC4yNSBMNDAyOC4zMTI1LDg4LjI1IFE0MDI4LjMxMjUsODguMjUgNDAyOC4zMTI1LDk3LjQzNzUgTDQwMzAuMDYyNSw5Ny40Mzc1IFogTTQwMzMuNjI1LDk3LjQzNzUgTDQwMzUuMzc1LDk3LjQzNzUgUTQwMzUuMzc1LDk3LjQzNzUgNDAzNS4zNzUsOTQuNjI1IEw0MDMzLjYyNSw5NC42MjUgUTQwMzMuNjI1LDk0LjYyNSA0MDMzLjYyNSw5Ny40Mzc1IFogTTQwMzMuNjI1LDg4LjI1IFE0MDMzLjYyNSw4OC4yNSA0MDMzLjYyNSw5MS4wNjI1IEw0MDM1LjM3NSw5MS4wNjI1IFE0MDM1LjM3NSw5MS4wNjI1IDQwMzUuMzc1LDg4LjI1IEw0MDMzLjYyNSw4OC4yNSBaIE00MDI5LjM3NSw4OC45Mzc1IEw0MDM0LjMxMjUsODguOTM3NSBMNDAzNC4zMTI1LDg3LjE4NzUgTDQwMjkuMzc1LDg3LjE4NzUgTDQwMjkuMzc1LDg4LjkzNzUgWiAiIGZpbGw9IiMwMDAwMDAiLz48dGV4dCBmaWxsPSIjMDAwMDAwIiBmb250LWZhbWlseT0ic2Fucy1zZXJpZiIgZm9udC1zaXplPSIxNCIgbGVuZ3RoQWRqdXN0PSJzcGFjaW5nIiB0ZXh0TGVuZ3RoPSI2NCIgeD0iNDA1Mi4yNSIgeT0iOTguMjQyMiI+RHJhd01vZGVsPC90ZXh0PjxsaW5lIHN0eWxlPSJzdHJva2U6IzE4MTgxODtzdHJva2Utd2lkdGg6MC41OyIgeDE9IjM5ODIuNSIgeDI9IjQxNTMuNSIgeTE9IjEwOC41IiB5Mj0iMTA4LjUiLz48ZWxsaXBzZSBjeD0iMzk5Mi41IiBjeT0iMTE5LjUiIGZpbGw9Im5vbmUiIHJ4PSIzIiByeT0iMyIgc3R5bGU9InN0cm9rZTojMDM4MDQ4O3N0cm9rZS13aWR0aDoxLjA7Ii8+PHRleHQgZmlsbD0iIzAwMDAwMCIgZm9udC1mYW1pbHk9InNhbnMtc2VyaWYiIGZvbnQtc2l6ZT0iMTQiIGxlbmd0aEFkanVzdD0ic3BhY2luZyIgdGV4dExlbmd0aD0iOTIiIHg9IjQwMDEuNSIgeT0iMTI1LjczNDQiPmludCByZW1haW5pbmc8L3RleHQ+PGVsbGlwc2UgY3g9IjM5OTIuNSIgY3k9IjEzNC40ODQ0IiBmaWxsPSJub25lIiByeD0iMyIgcnk9IjMiIHN0eWxlPSJzdHJva2U6IzAzODA0ODtzdHJva2Utd2lkdGg6MS4wOyIvPjx0ZXh0IGZpbGw9IiMwMDAwMDAiIGZvbnQtZmFtaWx5PSJzYW5zLXNlcmlmIiBmb250LXNpemU9IjE0IiBsZW5ndGhBZGp1c3Q9InNwYWNpbmciIHRleHRMZW5ndGg9IjE0NyIgeD0iNDAwMS41IiB5PSIxNDAuNzE4OCI+TGlzdCZsdDtDYXJkTW9kZWwmZ3Q7IGNhcmRzPC90ZXh0PjxsaW5lIHN0eWxlPSJzdHJva2U6IzE4MTgxODtzdHJva2Utd2lkdGg6MC41OyIgeDE9IjM5ODIuNSIgeDI9IjQxNTMuNSIgeTE9IjE0Ni40Njg4IiB5Mj0iMTQ2LjQ2ODgiLz48L2c+PCEtLU1ENT1bMjI3MDEwMTY3ZGZjODU4ZmVmMzlkOGM0MWM3OGQwZWNdCmNsYXNzIGJsYWNramFja2FwcDo6bW9kZWxzOjpwbGF5ZXJfbW9kZWwuZGFydDo6UGxheWVyTW9kZWwtLT48ZyBpZD0iZWxlbV9ibGFja2phY2thcHA6Om1vZGVsczo6cGxheWVyX21vZGVsLmRhcnQ6OlBsYXllck1vZGVsIj48cmVjdCBjb2RlTGluZT0iMTA4IiBmaWxsPSIjRjFGMUYxIiBoZWlnaHQ9IjkyLjk1MzEiIGlkPSJibGFja2phY2thcHA6Om1vZGVsczo6cGxheWVyX21vZGVsLmRhcnQ6OlBsYXllck1vZGVsIiByeD0iMi41IiByeT0iMi41IiBzdHlsZT0ic3Ryb2tlOiMxODE4MTg7c3Ryb2tlLXdpZHRoOjAuNTsiIHdpZHRoPSIxNzMiIHg9IjQyODkuNSIgeT0iNjkiLz48ZWxsaXBzZSBjeD0iNDMzMy4zIiBjeT0iODUiIGZpbGw9IiNBREQxQjIiIHJ4PSIxMSIgcnk9IjExIiBzdHlsZT0ic3Ryb2tlOiMxODE4MTg7c3Ryb2tlLXdpZHRoOjEuMDsiLz48cGF0aCBkPSJNNDMzMC45MjUsODkuMjUgTDQzMzAuOTI1LDkxIEw0MzM1Ljg2MjUsOTEgTDQzMzUuODYyNSw4OS4yNSBMNDMzMC45MjUsODkuMjUgWiBNNDMzMS42MTI1LDg5LjkzNzUgUTQzMzEuNjEyNSw4OS45Mzc1IDQzMzEuNjEyNSw4MC43NSBMNDMyOS44NjI1LDgwLjc1IFE0MzI5Ljg2MjUsODAuNzUgNDMyOS44NjI1LDg5LjkzNzUgTDQzMzEuNjEyNSw4OS45Mzc1IFogTTQzMzUuMTc1LDg5LjkzNzUgTDQzMzYuOTI1LDg5LjkzNzUgUTQzMzYuOTI1LDg5LjkzNzUgNDMzNi45MjUsODcuMTI1IEw0MzM1LjE3NSw4Ny4xMjUgUTQzMzUuMTc1LDg3LjEyNSA0MzM1LjE3NSw4OS45Mzc1IFogTTQzMzUuMTc1LDgwLjc1IFE0MzM1LjE3NSw4MC43NSA0MzM1LjE3NSw4My41NjI1IEw0MzM2LjkyNSw4My41NjI1IFE0MzM2LjkyNSw4My41NjI1IDQzMzYuOTI1LDgwLjc1IEw0MzM1LjE3NSw4MC43NSBaIE00MzMwLjkyNSw4MS40Mzc1IEw0MzM1Ljg2MjUsODEuNDM3NSBMNDMzNS44NjI1LDc5LjY4NzUgTDQzMzAuOTI1LDc5LjY4NzUgTDQzMzAuOTI1LDgxLjQzNzUgWiAiIGZpbGw9IiMwMDAwMDAiLz48dGV4dCBmaWxsPSIjMDAwMDAwIiBmb250LWZhbWlseT0ic2Fucy1zZXJpZiIgZm9udC1zaXplPSIxNCIgbGVuZ3RoQWRqdXN0PSJzcGFjaW5nIiB0ZXh0TGVuZ3RoPSI3NyIgeD0iNDM1My43IiB5PSI5MC43NDIyIj5QbGF5ZXJNb2RlbDwvdGV4dD48bGluZSBzdHlsZT0ic3Ryb2tlOiMxODE4MTg7c3Ryb2tlLXdpZHRoOjAuNTsiIHgxPSI0MjkwLjUiIHgyPSI0NDYxLjUiIHkxPSIxMDEiIHkyPSIxMDEiLz48ZWxsaXBzZSBjeD0iNDMwMC41IiBjeT0iMTEyIiBmaWxsPSJub25lIiByeD0iMyIgcnk9IjMiIHN0eWxlPSJzdHJva2U6IzAzODA0ODtzdHJva2Utd2lkdGg6MS4wOyIvPjx0ZXh0IGZpbGw9IiMwMDAwMDAiIGZvbnQtZmFtaWx5PSJzYW5zLXNlcmlmIiBmb250LXNpemU9IjE0IiBsZW5ndGhBZGp1c3Q9InNwYWNpbmciIHRleHRMZW5ndGg9Ijc4IiB4PSI0MzA5LjUiIHk9IjExOC4yMzQ0Ij5TdHJpbmcgbmFtZTwvdGV4dD48ZWxsaXBzZSBjeD0iNDMwMC41IiBjeT0iMTI2Ljk4NDQiIGZpbGw9Im5vbmUiIHJ4PSIzIiByeT0iMyIgc3R5bGU9InN0cm9rZTojMDM4MDQ4O3N0cm9rZS13aWR0aDoxLjA7Ii8+PHRleHQgZmlsbD0iIzAwMDAwMCIgZm9udC1mYW1pbHk9InNhbnMtc2VyaWYiIGZvbnQtc2l6ZT0iMTQiIGxlbmd0aEFkanVzdD0ic3BhY2luZyIgdGV4dExlbmd0aD0iODUiIHg9IjQzMDkuNSIgeT0iMTMzLjIxODgiPmJvb2wgaXNIdW1hbjwvdGV4dD48ZWxsaXBzZSBjeD0iNDMwMC41IiBjeT0iMTQxLjk2ODgiIGZpbGw9Im5vbmUiIHJ4PSIzIiByeT0iMyIgc3R5bGU9InN0cm9rZTojMDM4MDQ4O3N0cm9rZS13aWR0aDoxLjA7Ii8+PHRleHQgZmlsbD0iIzAwMDAwMCIgZm9udC1mYW1pbHk9InNhbnMtc2VyaWYiIGZvbnQtc2l6ZT0iMTQiIGxlbmd0aEFkanVzdD0ic3BhY2luZyIgdGV4dExlbmd0aD0iMTQ3IiB4PSI0MzA5LjUiIHk9IjE0OC4yMDMxIj5MaXN0Jmx0O0NhcmRNb2RlbCZndDsgY2FyZHM8L3RleHQ+PGxpbmUgc3R5bGU9InN0cm9rZTojMTgxODE4O3N0cm9rZS13aWR0aDowLjU7IiB4MT0iNDI5MC41IiB4Mj0iNDQ2MS41IiB5MT0iMTUzLjk1MzEiIHkyPSIxNTMuOTUzMSIvPjwvZz48IS0tTUQ1PVsyYTZkNWNmYTc4ZGNhM2ZkZDZhMjFlMTdhOWQ0OWFkOV0KY2xhc3MgYmxhY2tqYWNrYXBwOjpzY3JlZW5zOjpnYW1lX3NjcmVlbi5kYXJ0OjpHYW1lU2NyZWVuLS0+PGcgaWQ9ImVsZW1fYmxhY2tqYWNrYXBwOjpzY3JlZW5zOjpnYW1lX3NjcmVlbi5kYXJ0OjpHYW1lU2NyZWVuIj48cmVjdCBjb2RlTGluZT0iMTE0IiBmaWxsPSIjRjFGMUYxIiBoZWlnaHQ9IjYyLjk4NDQiIGlkPSJibGFja2phY2thcHA6OnNjcmVlbnM6OmdhbWVfc2NyZWVuLmRhcnQ6OkdhbWVTY3JlZW4iIHJ4PSIyLjUiIHJ5PSIyLjUiIHN0eWxlPSJzdHJva2U6IzE4MTgxODtzdHJva2Utd2lkdGg6MC41OyIgd2lkdGg9IjI0NiIgeD0iMjAxMiIgeT0iMzU3Ii8+PGVsbGlwc2UgY3g9IjIwOTUuMjUiIGN5PSIzNzMiIGZpbGw9IiNBREQxQjIiIHJ4PSIxMSIgcnk9IjExIiBzdHlsZT0ic3Ryb2tlOiMxODE4MTg7c3Ryb2tlLXdpZHRoOjEuMDsiLz48cGF0aCBkPSJNMjA5Mi44NzUsMzc3LjI1IEwyMDkyLjg3NSwzNzkgTDIwOTcuODEyNSwzNzkgTDIwOTcuODEyNSwzNzcuMjUgTDIwOTIuODc1LDM3Ny4yNSBaIE0yMDkzLjU2MjUsMzc3LjkzNzUgUTIwOTMuNTYyNSwzNzcuOTM3NSAyMDkzLjU2MjUsMzY4Ljc1IEwyMDkxLjgxMjUsMzY4Ljc1IFEyMDkxLjgxMjUsMzY4Ljc1IDIwOTEuODEyNSwzNzcuOTM3NSBMMjA5My41NjI1LDM3Ny45Mzc1IFogTTIwOTcuMTI1LDM3Ny45Mzc1IEwyMDk4Ljg3NSwzNzcuOTM3NSBRMjA5OC44NzUsMzc3LjkzNzUgMjA5OC44NzUsMzc1LjEyNSBMMjA5Ny4xMjUsMzc1LjEyNSBRMjA5Ny4xMjUsMzc1LjEyNSAyMDk3LjEyNSwzNzcuOTM3NSBaIE0yMDk3LjEyNSwzNjguNzUgUTIwOTcuMTI1LDM2OC43NSAyMDk3LjEyNSwzNzEuNTYyNSBMMjA5OC44NzUsMzcxLjU2MjUgUTIwOTguODc1LDM3MS41NjI1IDIwOTguODc1LDM2OC43NSBMMjA5Ny4xMjUsMzY4Ljc1IFogTTIwOTIuODc1LDM2OS40Mzc1IEwyMDk3LjgxMjUsMzY5LjQzNzUgTDIwOTcuODEyNSwzNjcuNjg3NSBMMjA5Mi44NzUsMzY3LjY4NzUgTDIwOTIuODc1LDM2OS40Mzc1IFogIiBmaWxsPSIjMDAwMDAwIi8+PHRleHQgZmlsbD0iIzAwMDAwMCIgZm9udC1mYW1pbHk9InNhbnMtc2VyaWYiIGZvbnQtc2l6ZT0iMTQiIGxlbmd0aEFkanVzdD0ic3BhY2luZyIgdGV4dExlbmd0aD0iNzEiIHg9IjIxMTUuNzUiIHk9IjM3OC43NDIyIj5HYW1lU2NyZWVuPC90ZXh0PjxsaW5lIHN0eWxlPSJzdHJva2U6IzE4MTgxODtzdHJva2Utd2lkdGg6MC41OyIgeDE9IjIwMTMiIHgyPSIyMjU3IiB5MT0iMzg5IiB5Mj0iMzg5Ii8+PGxpbmUgc3R5bGU9InN0cm9rZTojMTgxODE4O3N0cm9rZS13aWR0aDowLjU7IiB4MT0iMjAxMyIgeDI9IjIyNTciIHkxPSIzOTciIHkyPSIzOTciLz48ZWxsaXBzZSBjeD0iMjAyMyIgY3k9IjQwOCIgZmlsbD0iIzg0QkU4NCIgcng9IjMiIHJ5PSIzIiBzdHlsZT0ic3Ryb2tlOiMwMzgwNDg7c3Ryb2tlLXdpZHRoOjEuMDsiLz48dGV4dCBmaWxsPSIjMDAwMDAwIiBmb250LWZhbWlseT0ic2Fucy1zZXJpZiIgZm9udC1zaXplPSIxNCIgbGVuZ3RoQWRqdXN0PSJzcGFjaW5nIiB0ZXh0TGVuZ3RoPSIyMjAiIHg9IjIwMzIiIHk9IjQxNC4yMzQ0Ij5TdGF0ZSZsdDtHYW1lU2NyZWVuJmd0OyBjcmVhdGVTdGF0ZSgpPC90ZXh0PjwvZz48IS0tTUQ1PVs3NjZiOGM0YjVkMTk1Mjk2NzM0ZTZjYmY0ZDQzNWUxM10KY2xhc3MgYmxhY2tqYWNrYXBwOjpzY3JlZW5zOjpnYW1lX3NjcmVlbi5kYXJ0OjpfR2FtZVNjcmVlblN0YXRlLS0+PGcgaWQ9ImVsZW1fYmxhY2tqYWNrYXBwOjpzY3JlZW5zOjpnYW1lX3NjcmVlbi5kYXJ0OjpfR2FtZVNjcmVlblN0YXRlIj48cmVjdCBjb2RlTGluZT0iMTIwIiBmaWxsPSIjRjFGMUYxIiBoZWlnaHQ9IjkyLjk1MzEiIGlkPSJibGFja2phY2thcHA6OnNjcmVlbnM6OmdhbWVfc2NyZWVuLmRhcnQ6Ol9HYW1lU2NyZWVuU3RhdGUiIHJ4PSIyLjUiIHJ5PSIyLjUiIHN0eWxlPSJzdHJva2U6IzE4MTgxODtzdHJva2Utd2lkdGg6MC41OyIgd2lkdGg9IjE0NSIgeD0iMjI5My41IiB5PSIzNDIiLz48ZWxsaXBzZSBjeD0iMjMwOC41IiBjeT0iMzU4IiBmaWxsPSIjQUREMUIyIiByeD0iMTEiIHJ5PSIxMSIgc3R5bGU9InN0cm9rZTojMTgxODE4O3N0cm9rZS13aWR0aDoxLjA7Ii8+PHBhdGggZD0iTTIzMDYuMTI1LDM2Mi4yNSBMMjMwNi4xMjUsMzY0IEwyMzExLjA2MjUsMzY0IEwyMzExLjA2MjUsMzYyLjI1IEwyMzA2LjEyNSwzNjIuMjUgWiBNMjMwNi44MTI1LDM2Mi45Mzc1IFEyMzA2LjgxMjUsMzYyLjkzNzUgMjMwNi44MTI1LDM1My43NSBMMjMwNS4wNjI1LDM1My43NSBRMjMwNS4wNjI1LDM1My43NSAyMzA1LjA2MjUsMzYyLjkzNzUgTDIzMDYuODEyNSwzNjIuOTM3NSBaIE0yMzEwLjM3NSwzNjIuOTM3NSBMMjMxMi4xMjUsMzYyLjkzNzUgUTIzMTIuMTI1LDM2Mi45Mzc1IDIzMTIuMTI1LDM2MC4xMjUgTDIzMTAuMzc1LDM2MC4xMjUgUTIzMTAuMzc1LDM2MC4xMjUgMjMxMC4zNzUsMzYyLjkzNzUgWiBNMjMxMC4zNzUsMzUzLjc1IFEyMzEwLjM3NSwzNTMuNzUgMjMxMC4zNzUsMzU2LjU2MjUgTDIzMTIuMTI1LDM1Ni41NjI1IFEyMzEyLjEyNSwzNTYuNTYyNSAyMzEyLjEyNSwzNTMuNzUgTDIzMTAuMzc1LDM1My43NSBaIE0yMzA2LjEyNSwzNTQuNDM3NSBMMjMxMS4wNjI1LDM1NC40Mzc1IEwyMzExLjA2MjUsMzUyLjY4NzUgTDIzMDYuMTI1LDM1Mi42ODc1IEwyMzA2LjEyNSwzNTQuNDM3NSBaICIgZmlsbD0iIzAwMDAwMCIvPjx0ZXh0IGZpbGw9IiMwMDAwMDAiIGZvbnQtZmFtaWx5PSJzYW5zLXNlcmlmIiBmb250LXNpemU9IjE0IiBsZW5ndGhBZGp1c3Q9InNwYWNpbmciIHRleHRMZW5ndGg9IjExMyIgeD0iMjMyMi41IiB5PSIzNjMuNzQyMiI+X0dhbWVTY3JlZW5TdGF0ZTwvdGV4dD48bGluZSBzdHlsZT0ic3Ryb2tlOiMxODE4MTg7c3Ryb2tlLXdpZHRoOjAuNTsiIHgxPSIyMjk0LjUiIHgyPSIyNDM3LjUiIHkxPSIzNzQiIHkyPSIzNzQiLz48bGluZSBzdHlsZT0ic3Ryb2tlOiMxODE4MTg7c3Ryb2tlLXdpZHRoOjAuNTsiIHgxPSIyMjk0LjUiIHgyPSIyNDM3LjUiIHkxPSIzODIiIHkyPSIzODIiLz48ZWxsaXBzZSBjeD0iMjMwNC41IiBjeT0iMzkzIiBmaWxsPSIjODRCRTg0IiByeD0iMyIgcnk9IjMiIHN0eWxlPSJzdHJva2U6IzAzODA0ODtzdHJva2Utd2lkdGg6MS4wOyIvPjx0ZXh0IGZpbGw9IiMwMDAwMDAiIGZvbnQtZmFtaWx5PSJzYW5zLXNlcmlmIiBmb250LXNpemU9IjE0IiBsZW5ndGhBZGp1c3Q9InNwYWNpbmciIHRleHRMZW5ndGg9IjExNCIgeD0iMjMxMy41IiB5PSIzOTkuMjM0NCI+dm9pZCBpbml0U3RhdGUoKTwvdGV4dD48ZWxsaXBzZSBjeD0iMjMwNC41IiBjeT0iNDA3Ljk4NDQiIGZpbGw9IiM4NEJFODQiIHJ4PSIzIiByeT0iMyIgc3R5bGU9InN0cm9rZTojMDM4MDQ4O3N0cm9rZS13aWR0aDoxLjA7Ii8+PHRleHQgZmlsbD0iIzAwMDAwMCIgZm9udC1mYW1pbHk9InNhbnMtc2VyaWYiIGZvbnQtc2l6ZT0iMTQiIGxlbmd0aEFkanVzdD0ic3BhY2luZyIgdGV4dExlbmd0aD0iMTA4IiB4PSIyMzEzLjUiIHk9IjQxNC4yMTg4Ij52b2lkIHRlbXBGdW5jKCk8L3RleHQ+PGVsbGlwc2UgY3g9IjIzMDQuNSIgY3k9IjQyMi45Njg4IiBmaWxsPSIjODRCRTg0IiByeD0iMyIgcnk9IjMiIHN0eWxlPSJzdHJva2U6IzAzODA0ODtzdHJva2Utd2lkdGg6MS4wOyIvPjx0ZXh0IGZpbGw9IiMwMDAwMDAiIGZvbnQtZmFtaWx5PSJzYW5zLXNlcmlmIiBmb250LXNpemU9IjE0IiBsZW5ndGhBZGp1c3Q9InNwYWNpbmciIHRleHRMZW5ndGg9IjEwMCIgeD0iMjMxMy41IiB5PSI0MjkuMjAzMSI+V2lkZ2V0IGJ1aWxkKCk8L3RleHQ+PC9nPjwhLS1NRDU9WzI2MDkxOTJlZDM2MWEwZThiYTk3Mjc4MzczMDA1MGMxXQpjbGFzcyBibGFja2phY2thcHA6OnNjcmVlbnM6OmhvbWVwYWdlLmRhcnQ6OkhvbWVwYWdlLS0+PGcgaWQ9ImVsZW1fYmxhY2tqYWNrYXBwOjpzY3JlZW5zOjpob21lcGFnZS5kYXJ0OjpIb21lcGFnZSI+PHJlY3QgY29kZUxpbmU9IjEyOCIgZmlsbD0iI0YxRjFGMSIgaGVpZ2h0PSI2Mi45ODQ0IiBpZD0iYmxhY2tqYWNrYXBwOjpzY3JlZW5zOjpob21lcGFnZS5kYXJ0OjpIb21lcGFnZSIgcng9IjIuNSIgcnk9IjIuNSIgc3R5bGU9InN0cm9rZTojMTgxODE4O3N0cm9rZS13aWR0aDowLjU7IiB3aWR0aD0iMjI1IiB4PSIzMDMwLjUiIHk9IjM1NyIvPjxlbGxpcHNlIGN4PSIzMTEwLjI1IiBjeT0iMzczIiBmaWxsPSIjQUREMUIyIiByeD0iMTEiIHJ5PSIxMSIgc3R5bGU9InN0cm9rZTojMTgxODE4O3N0cm9rZS13aWR0aDoxLjA7Ii8+PHBhdGggZD0iTTMxMDcuODc1LDM3Ny4yNSBMMzEwNy44NzUsMzc5IEwzMTEyLjgxMjUsMzc5IEwzMTEyLjgxMjUsMzc3LjI1IEwzMTA3Ljg3NSwzNzcuMjUgWiBNMzEwOC41NjI1LDM3Ny45Mzc1IFEzMTA4LjU2MjUsMzc3LjkzNzUgMzEwOC41NjI1LDM2OC43NSBMMzEwNi44MTI1LDM2OC43NSBRMzEwNi44MTI1LDM2OC43NSAzMTA2LjgxMjUsMzc3LjkzNzUgTDMxMDguNTYyNSwzNzcuOTM3NSBaIE0zMTEyLjEyNSwzNzcuOTM3NSBMMzExMy44NzUsMzc3LjkzNzUgUTMxMTMuODc1LDM3Ny45Mzc1IDMxMTMuODc1LDM3NS4xMjUgTDMxMTIuMTI1LDM3NS4xMjUgUTMxMTIuMTI1LDM3NS4xMjUgMzExMi4xMjUsMzc3LjkzNzUgWiBNMzExMi4xMjUsMzY4Ljc1IFEzMTEyLjEyNSwzNjguNzUgMzExMi4xMjUsMzcxLjU2MjUgTDMxMTMuODc1LDM3MS41NjI1IFEzMTEzLjg3NSwzNzEuNTYyNSAzMTEzLjg3NSwzNjguNzUgTDMxMTIuMTI1LDM2OC43NSBaIE0zMTA3Ljg3NSwzNjkuNDM3NSBMMzExMi44MTI1LDM2OS40Mzc1IEwzMTEyLjgxMjUsMzY3LjY4NzUgTDMxMDcuODc1LDM2Ny42ODc1IEwzMTA3Ljg3NSwzNjkuNDM3NSBaICIgZmlsbD0iIzAwMDAwMCIvPjx0ZXh0IGZpbGw9IiMwMDAwMDAiIGZvbnQtZmFtaWx5PSJzYW5zLXNlcmlmIiBmb250LXNpemU9IjE0IiBsZW5ndGhBZGp1c3Q9InNwYWNpbmciIHRleHRMZW5ndGg9IjU3IiB4PSIzMTMwLjc1IiB5PSIzNzguNzQyMiI+SG9tZXBhZ2U8L3RleHQ+PGxpbmUgc3R5bGU9InN0cm9rZTojMTgxODE4O3N0cm9rZS13aWR0aDowLjU7IiB4MT0iMzAzMS41IiB4Mj0iMzI1NC41IiB5MT0iMzg5IiB5Mj0iMzg5Ii8+PGxpbmUgc3R5bGU9InN0cm9rZTojMTgxODE4O3N0cm9rZS13aWR0aDowLjU7IiB4MT0iMzAzMS41IiB4Mj0iMzI1NC41IiB5MT0iMzk3IiB5Mj0iMzk3Ii8+PGVsbGlwc2UgY3g9IjMwNDEuNSIgY3k9IjQwOCIgZmlsbD0iIzg0QkU4NCIgcng9IjMiIHJ5PSIzIiBzdHlsZT0ic3Ryb2tlOiMwMzgwNDg7c3Ryb2tlLXdpZHRoOjEuMDsiLz48dGV4dCBmaWxsPSIjMDAwMDAwIiBmb250LWZhbWlseT0ic2Fucy1zZXJpZiIgZm9udC1zaXplPSIxNCIgbGVuZ3RoQWRqdXN0PSJzcGFjaW5nIiB0ZXh0TGVuZ3RoPSIxOTkiIHg9IjMwNTAuNSIgeT0iNDE0LjIzNDQiPl9Ib21lUGFnZVN0YXRlIGNyZWF0ZVN0YXRlKCk8L3RleHQ+PC9nPjwhLS1NRDU9W2YyYzc2ZTE5ZDNlOGI5MDllYjcyZmU2YWU4NmU2YjkyXQpjbGFzcyBibGFja2phY2thcHA6OnNjcmVlbnM6OmhvbWVwYWdlLmRhcnQ6Ol9Ib21lUGFnZVN0YXRlLS0+PGcgaWQ9ImVsZW1fYmxhY2tqYWNrYXBwOjpzY3JlZW5zOjpob21lcGFnZS5kYXJ0OjpfSG9tZVBhZ2VTdGF0ZSI+PHJlY3QgY29kZUxpbmU9IjEzNCIgZmlsbD0iI0YxRjFGMSIgaGVpZ2h0PSIxMzcuOTA2MyIgaWQ9ImJsYWNramFja2FwcDo6c2NyZWVuczo6aG9tZXBhZ2UuZGFydDo6X0hvbWVQYWdlU3RhdGUiIHJ4PSIyLjUiIHJ5PSIyLjUiIHN0eWxlPSJzdHJva2U6IzE4MTgxODtzdHJva2Utd2lkdGg6MC41OyIgd2lkdGg9IjMwOCIgeD0iMzI5MSIgeT0iMzE5LjUiLz48ZWxsaXBzZSBjeD0iMzM5MS4yNSIgY3k9IjMzNS41IiBmaWxsPSIjQUREMUIyIiByeD0iMTEiIHJ5PSIxMSIgc3R5bGU9InN0cm9rZTojMTgxODE4O3N0cm9rZS13aWR0aDoxLjA7Ii8+PHBhdGggZD0iTTMzODguODc1LDMzOS43NSBMMzM4OC44NzUsMzQxLjUgTDMzOTMuODEyNSwzNDEuNSBMMzM5My44MTI1LDMzOS43NSBMMzM4OC44NzUsMzM5Ljc1IFogTTMzODkuNTYyNSwzNDAuNDM3NSBRMzM4OS41NjI1LDM0MC40Mzc1IDMzODkuNTYyNSwzMzEuMjUgTDMzODcuODEyNSwzMzEuMjUgUTMzODcuODEyNSwzMzEuMjUgMzM4Ny44MTI1LDM0MC40Mzc1IEwzMzg5LjU2MjUsMzQwLjQzNzUgWiBNMzM5My4xMjUsMzQwLjQzNzUgTDMzOTQuODc1LDM0MC40Mzc1IFEzMzk0Ljg3NSwzNDAuNDM3NSAzMzk0Ljg3NSwzMzcuNjI1IEwzMzkzLjEyNSwzMzcuNjI1IFEzMzkzLjEyNSwzMzcuNjI1IDMzOTMuMTI1LDM0MC40Mzc1IFogTTMzOTMuMTI1LDMzMS4yNSBRMzM5My4xMjUsMzMxLjI1IDMzOTMuMTI1LDMzNC4wNjI1IEwzMzk0Ljg3NSwzMzQuMDYyNSBRMzM5NC44NzUsMzM0LjA2MjUgMzM5NC44NzUsMzMxLjI1IEwzMzkzLjEyNSwzMzEuMjUgWiBNMzM4OC44NzUsMzMxLjkzNzUgTDMzOTMuODEyNSwzMzEuOTM3NSBMMzM5My44MTI1LDMzMC4xODc1IEwzMzg4Ljg3NSwzMzAuMTg3NSBMMzM4OC44NzUsMzMxLjkzNzUgWiAiIGZpbGw9IiMwMDAwMDAiLz48dGV4dCBmaWxsPSIjMDAwMDAwIiBmb250LWZhbWlseT0ic2Fucy1zZXJpZiIgZm9udC1zaXplPSIxNCIgbGVuZ3RoQWRqdXN0PSJzcGFjaW5nIiB0ZXh0TGVuZ3RoPSI5OSIgeD0iMzQxMS43NSIgeT0iMzQxLjI0MjIiPl9Ib21lUGFnZVN0YXRlPC90ZXh0PjxsaW5lIHN0eWxlPSJzdHJva2U6IzE4MTgxODtzdHJva2Utd2lkdGg6MC41OyIgeDE9IjMyOTIiIHgyPSIzNTk4IiB5MT0iMzUxLjUiIHkyPSIzNTEuNSIvPjxyZWN0IGZpbGw9Im5vbmUiIGhlaWdodD0iNiIgc3R5bGU9InN0cm9rZTojQzgyOTMwO3N0cm9rZS13aWR0aDoxLjA7IiB3aWR0aD0iNiIgeD0iMzI5OSIgeT0iMzU5LjUiLz48dGV4dCBmaWxsPSIjMDAwMDAwIiBmb250LWZhbWlseT0ic2Fucy1zZXJpZiIgZm9udC1zaXplPSIxNCIgbGVuZ3RoQWRqdXN0PSJzcGFjaW5nIiB0ZXh0TGVuZ3RoPSIyODIiIHg9IjMzMTEiIHk9IjM2OC43MzQ0Ij5BbmltYXRpb25Db250cm9sbGVyIF9hbmltYXRpb25Db250cm9sbGVyPC90ZXh0PjxyZWN0IGZpbGw9Im5vbmUiIGhlaWdodD0iNiIgc3R5bGU9InN0cm9rZTojQzgyOTMwO3N0cm9rZS13aWR0aDoxLjA7IiB3aWR0aD0iNiIgeD0iMzI5OSIgeT0iMzc0LjQ4NDQiLz48dGV4dCBmaWxsPSIjMDAwMDAwIiBmb250LWZhbWlseT0ic2Fucy1zZXJpZiIgZm9udC1zaXplPSIxNCIgbGVuZ3RoQWRqdXN0PSJzcGFjaW5nIiB0ZXh0TGVuZ3RoPSIxOTgiIHg9IjMzMTEiIHk9IjM4My43MTg4Ij5BbmltYXRpb24mbHQ7ZG91YmxlJmd0OyBfYW5pbWF0aW9uPC90ZXh0PjxyZWN0IGZpbGw9Im5vbmUiIGhlaWdodD0iNiIgc3R5bGU9InN0cm9rZTojQzgyOTMwO3N0cm9rZS13aWR0aDoxLjA7IiB3aWR0aD0iNiIgeD0iMzI5OSIgeT0iMzg5LjQ2ODgiLz48dGV4dCBmaWxsPSIjMDAwMDAwIiBmb250LWZhbWlseT0ic2Fucy1zZXJpZiIgZm9udC1zaXplPSIxNCIgbGVuZ3RoQWRqdXN0PSJzcGFjaW5nIiB0ZXh0TGVuZ3RoPSIyMjYiIHg9IjMzMTEiIHk9IjM5OC43MDMxIj5BbmltYXRpb25TdGF0dXMgX2FuaW1hdGlvblN0YXR1czwvdGV4dD48bGluZSBzdHlsZT0ic3Ryb2tlOiMxODE4MTg7c3Ryb2tlLXdpZHRoOjAuNTsiIHgxPSIzMjkyIiB4Mj0iMzU5OCIgeTE9IjQwNC40NTMxIiB5Mj0iNDA0LjQ1MzEiLz48ZWxsaXBzZSBjeD0iMzMwMiIgY3k9IjQxNS40NTMxIiBmaWxsPSIjODRCRTg0IiByeD0iMyIgcnk9IjMiIHN0eWxlPSJzdHJva2U6IzAzODA0ODtzdHJva2Utd2lkdGg6MS4wOyIvPjx0ZXh0IGZpbGw9IiMwMDAwMDAiIGZvbnQtZmFtaWx5PSJzYW5zLXNlcmlmIiBmb250LXNpemU9IjE0IiBsZW5ndGhBZGp1c3Q9InNwYWNpbmciIHRleHRMZW5ndGg9IjExNCIgeD0iMzMxMSIgeT0iNDIxLjY4NzUiPnZvaWQgaW5pdFN0YXRlKCk8L3RleHQ+PGVsbGlwc2UgY3g9IjMzMDIiIGN5PSI0MzAuNDM3NSIgZmlsbD0iIzg0QkU4NCIgcng9IjMiIHJ5PSIzIiBzdHlsZT0ic3Ryb2tlOiMwMzgwNDg7c3Ryb2tlLXdpZHRoOjEuMDsiLz48dGV4dCBmaWxsPSIjMDAwMDAwIiBmb250LWZhbWlseT0ic2Fucy1zZXJpZiIgZm9udC1zaXplPSIxNCIgbGVuZ3RoQWRqdXN0PSJzcGFjaW5nIiB0ZXh0TGVuZ3RoPSIxMDAiIHg9IjMzMTEiIHk9IjQzNi42NzE5Ij5XaWRnZXQgYnVpbGQoKTwvdGV4dD48ZWxsaXBzZSBjeD0iMzMwMiIgY3k9IjQ0NS40MjE5IiBmaWxsPSIjODRCRTg0IiByeD0iMyIgcnk9IjMiIHN0eWxlPSJzdHJva2U6IzAzODA0ODtzdHJva2Utd2lkdGg6MS4wOyIvPjx0ZXh0IGZpbGw9IiMwMDAwMDAiIGZvbnQtZmFtaWx5PSJzYW5zLXNlcmlmIiBmb250LXNpemU9IjE0IiBsZW5ndGhBZGp1c3Q9InNwYWNpbmciIHRleHRMZW5ndGg9IjE3MCIgeD0iMzMxMSIgeT0iNDUxLjY1NjMiPldpZGdldCBnZXRGbGlwcGluZ0NhcmQoKTwvdGV4dD48L2c+PCEtLU1ENT1bZjhmM2Y1MDRmZGE5ZTcxNmFkNGQ2ZTMxODc0YjRkMDJdCmNsYXNzIGZsdXR0ZXI6OnNyYzo6YW5pbWF0aW9uOjphbmltYXRpb25fY29udHJvbGxlci5kYXJ0OjpBbmltYXRpb25Db250cm9sbGVyLS0+PGcgaWQ9ImVsZW1fZmx1dHRlcjo6c3JjOjphbmltYXRpb246OmFuaW1hdGlvbl9jb250cm9sbGVyLmRhcnQ6OkFuaW1hdGlvbkNvbnRyb2xsZXIiPjxyZWN0IGZpbGw9IiNGMUYxRjEiIGhlaWdodD0iNDgiIGlkPSJmbHV0dGVyOjpzcmM6OmFuaW1hdGlvbjo6YW5pbWF0aW9uX2NvbnRyb2xsZXIuZGFydDo6QW5pbWF0aW9uQ29udHJvbGxlciIgcng9IjIuNSIgcnk9IjIuNSIgc3R5bGU9InN0cm9rZTojMTgxODE4O3N0cm9rZS13aWR0aDowLjU7IiB3aWR0aD0iMTY2IiB4PSIzMTU0IiB5PSI1OTgiLz48ZWxsaXBzZSBjeD0iMzE2OSIgY3k9IjYxNCIgZmlsbD0iI0FERDFCMiIgcng9IjExIiByeT0iMTEiIHN0eWxlPSJzdHJva2U6IzE4MTgxODtzdHJva2Utd2lkdGg6MS4wOyIvPjxwYXRoIGQ9Ik0zMTY2LjYyNSw2MTguMjUgTDMxNjYuNjI1LDYyMCBMMzE3MS41NjI1LDYyMCBMMzE3MS41NjI1LDYxOC4yNSBMMzE2Ni42MjUsNjE4LjI1IFogTTMxNjcuMzEyNSw2MTguOTM3NSBRMzE2Ny4zMTI1LDYxOC45Mzc1IDMxNjcuMzEyNSw2MDkuNzUgTDMxNjUuNTYyNSw2MDkuNzUgUTMxNjUuNTYyNSw2MDkuNzUgMzE2NS41NjI1LDYxOC45Mzc1IEwzMTY3LjMxMjUsNjE4LjkzNzUgWiBNMzE3MC44NzUsNjE4LjkzNzUgTDMxNzIuNjI1LDYxOC45Mzc1IFEzMTcyLjYyNSw2MTguOTM3NSAzMTcyLjYyNSw2MTYuMTI1IEwzMTcwLjg3NSw2MTYuMTI1IFEzMTcwLjg3NSw2MTYuMTI1IDMxNzAuODc1LDYxOC45Mzc1IFogTTMxNzAuODc1LDYwOS43NSBRMzE3MC44NzUsNjA5Ljc1IDMxNzAuODc1LDYxMi41NjI1IEwzMTcyLjYyNSw2MTIuNTYyNSBRMzE3Mi42MjUsNjEyLjU2MjUgMzE3Mi42MjUsNjA5Ljc1IEwzMTcwLjg3NSw2MDkuNzUgWiBNMzE2Ni42MjUsNjEwLjQzNzUgTDMxNzEuNTYyNSw2MTAuNDM3NSBMMzE3MS41NjI1LDYwOC42ODc1IEwzMTY2LjYyNSw2MDguNjg3NSBMMzE2Ni42MjUsNjEwLjQzNzUgWiAiIGZpbGw9IiMwMDAwMDAiLz48dGV4dCBmaWxsPSIjMDAwMDAwIiBmb250LWZhbWlseT0ic2Fucy1zZXJpZiIgZm9udC1zaXplPSIxNCIgbGVuZ3RoQWRqdXN0PSJzcGFjaW5nIiB0ZXh0TGVuZ3RoPSIxMzQiIHg9IjMxODMiIHk9IjYxOS43NDIyIj5BbmltYXRpb25Db250cm9sbGVyPC90ZXh0PjxsaW5lIHN0eWxlPSJzdHJva2U6IzE4MTgxODtzdHJva2Utd2lkdGg6MC41OyIgeDE9IjMxNTUiIHgyPSIzMzE5IiB5MT0iNjMwIiB5Mj0iNjMwIi8+PGxpbmUgc3R5bGU9InN0cm9rZTojMTgxODE4O3N0cm9rZS13aWR0aDowLjU7IiB4MT0iMzE1NSIgeDI9IjMzMTkiIHkxPSI2MzgiIHkyPSI2MzgiLz48L2c+PCEtLU1ENT1bOGM5MDM2YzA5ZmIzNzc0YjkxNjY0OTVhZGQ2MTc2MjddCmNsYXNzIGZsdXR0ZXI6OnNyYzo6YW5pbWF0aW9uOjphbmltYXRpb24uZGFydDo6QW5pbWF0aW9uPGRvdWJsZT4tLT48ZyBpZD0iZWxlbV9mbHV0dGVyOjpzcmM6OmFuaW1hdGlvbjo6YW5pbWF0aW9uLmRhcnQ6OkFuaW1hdGlvbiZsdDtkb3VibGUmZ3Q7Ij48cmVjdCBmaWxsPSIjRjFGMUYxIiBoZWlnaHQ9IjQ4IiBpZD0iZmx1dHRlcjo6c3JjOjphbmltYXRpb246OmFuaW1hdGlvbi5kYXJ0OjpBbmltYXRpb24mbHQ7ZG91YmxlJmd0OyIgcng9IjIuNSIgcnk9IjIuNSIgc3R5bGU9InN0cm9rZTojMTgxODE4O3N0cm9rZS13aWR0aDowLjU7IiB3aWR0aD0iMTUyIiB4PSIzNTQ5IiB5PSI1OTgiLz48ZWxsaXBzZSBjeD0iMzU2NCIgY3k9IjYxNCIgZmlsbD0iI0FERDFCMiIgcng9IjExIiByeT0iMTEiIHN0eWxlPSJzdHJva2U6IzE4MTgxODtzdHJva2Utd2lkdGg6MS4wOyIvPjxwYXRoIGQ9Ik0zNTYxLjYyNSw2MTguMjUgTDM1NjEuNjI1LDYyMCBMMzU2Ni41NjI1LDYyMCBMMzU2Ni41NjI1LDYxOC4yNSBMMzU2MS42MjUsNjE4LjI1IFogTTM1NjIuMzEyNSw2MTguOTM3NSBRMzU2Mi4zMTI1LDYxOC45Mzc1IDM1NjIuMzEyNSw2MDkuNzUgTDM1NjAuNTYyNSw2MDkuNzUgUTM1NjAuNTYyNSw2MDkuNzUgMzU2MC41NjI1LDYxOC45Mzc1IEwzNTYyLjMxMjUsNjE4LjkzNzUgWiBNMzU2NS44NzUsNjE4LjkzNzUgTDM1NjcuNjI1LDYxOC45Mzc1IFEzNTY3LjYyNSw2MTguOTM3NSAzNTY3LjYyNSw2MTYuMTI1IEwzNTY1Ljg3NSw2MTYuMTI1IFEzNTY1Ljg3NSw2MTYuMTI1IDM1NjUuODc1LDYxOC45Mzc1IFogTTM1NjUuODc1LDYwOS43NSBRMzU2NS44NzUsNjA5Ljc1IDM1NjUuODc1LDYxMi41NjI1IEwzNTY3LjYyNSw2MTIuNTYyNSBRMzU2Ny42MjUsNjEyLjU2MjUgMzU2Ny42MjUsNjA5Ljc1IEwzNTY1Ljg3NSw2MDkuNzUgWiBNMzU2MS42MjUsNjEwLjQzNzUgTDM1NjYuNTYyNSw2MTAuNDM3NSBMMzU2Ni41NjI1LDYwOC42ODc1IEwzNTYxLjYyNSw2MDguNjg3NSBMMzU2MS42MjUsNjEwLjQzNzUgWiAiIGZpbGw9IiMwMDAwMDAiLz48dGV4dCBmaWxsPSIjMDAwMDAwIiBmb250LWZhbWlseT0ic2Fucy1zZXJpZiIgZm9udC1zaXplPSIxNCIgbGVuZ3RoQWRqdXN0PSJzcGFjaW5nIiB0ZXh0TGVuZ3RoPSIxMjAiIHg9IjM1NzgiIHk9IjYxOS43NDIyIj5BbmltYXRpb24mbHQ7ZG91YmxlJmd0OzwvdGV4dD48bGluZSBzdHlsZT0ic3Ryb2tlOiMxODE4MTg7c3Ryb2tlLXdpZHRoOjAuNTsiIHgxPSIzNTUwIiB4Mj0iMzcwMCIgeTE9IjYzMCIgeTI9IjYzMCIvPjxsaW5lIHN0eWxlPSJzdHJva2U6IzE4MTgxODtzdHJva2Utd2lkdGg6MC41OyIgeDE9IjM1NTAiIHgyPSIzNzAwIiB5MT0iNjM4IiB5Mj0iNjM4Ii8+PC9nPjwhLS1NRDU9WzMzNmY4NTBhZDM2OTAwMjNlMGY0NmVkOTkyYzBhZmU3XQpjbGFzcyBmbHV0dGVyOjpzcmM6OmFuaW1hdGlvbjo6YW5pbWF0aW9uLmRhcnQ6OkFuaW1hdGlvblN0YXR1cy0tPjxnIGlkPSJlbGVtX2ZsdXR0ZXI6OnNyYzo6YW5pbWF0aW9uOjphbmltYXRpb24uZGFydDo6QW5pbWF0aW9uU3RhdHVzIj48cmVjdCBmaWxsPSIjRjFGMUYxIiBoZWlnaHQ9IjQ4IiBpZD0iZmx1dHRlcjo6c3JjOjphbmltYXRpb246OmFuaW1hdGlvbi5kYXJ0OjpBbmltYXRpb25TdGF0dXMiIHJ4PSIyLjUiIHJ5PSIyLjUiIHN0eWxlPSJzdHJva2U6IzE4MTgxODtzdHJva2Utd2lkdGg6MC41OyIgd2lkdGg9IjEzOCIgeD0iMzM3NiIgeT0iNTk4Ii8+PGVsbGlwc2UgY3g9IjMzOTEiIGN5PSI2MTQiIGZpbGw9IiNBREQxQjIiIHJ4PSIxMSIgcnk9IjExIiBzdHlsZT0ic3Ryb2tlOiMxODE4MTg7c3Ryb2tlLXdpZHRoOjEuMDsiLz48cGF0aCBkPSJNMzM4OC42MjUsNjE4LjI1IEwzMzg4LjYyNSw2MjAgTDMzOTMuNTYyNSw2MjAgTDMzOTMuNTYyNSw2MTguMjUgTDMzODguNjI1LDYxOC4yNSBaIE0zMzg5LjMxMjUsNjE4LjkzNzUgUTMzODkuMzEyNSw2MTguOTM3NSAzMzg5LjMxMjUsNjA5Ljc1IEwzMzg3LjU2MjUsNjA5Ljc1IFEzMzg3LjU2MjUsNjA5Ljc1IDMzODcuNTYyNSw2MTguOTM3NSBMMzM4OS4zMTI1LDYxOC45Mzc1IFogTTMzOTIuODc1LDYxOC45Mzc1IEwzMzk0LjYyNSw2MTguOTM3NSBRMzM5NC42MjUsNjE4LjkzNzUgMzM5NC42MjUsNjE2LjEyNSBMMzM5Mi44NzUsNjE2LjEyNSBRMzM5Mi44NzUsNjE2LjEyNSAzMzkyLjg3NSw2MTguOTM3NSBaIE0zMzkyLjg3NSw2MDkuNzUgUTMzOTIuODc1LDYwOS43NSAzMzkyLjg3NSw2MTIuNTYyNSBMMzM5NC42MjUsNjEyLjU2MjUgUTMzOTQuNjI1LDYxMi41NjI1IDMzOTQuNjI1LDYwOS43NSBMMzM5Mi44NzUsNjA5Ljc1IFogTTMzODguNjI1LDYxMC40Mzc1IEwzMzkzLjU2MjUsNjEwLjQzNzUgTDMzOTMuNTYyNSw2MDguNjg3NSBMMzM4OC42MjUsNjA4LjY4NzUgTDMzODguNjI1LDYxMC40Mzc1IFogIiBmaWxsPSIjMDAwMDAwIi8+PHRleHQgZmlsbD0iIzAwMDAwMCIgZm9udC1mYW1pbHk9InNhbnMtc2VyaWYiIGZvbnQtc2l6ZT0iMTQiIGxlbmd0aEFkanVzdD0ic3BhY2luZyIgdGV4dExlbmd0aD0iMTA2IiB4PSIzNDA1IiB5PSI2MTkuNzQyMiI+QW5pbWF0aW9uU3RhdHVzPC90ZXh0PjxsaW5lIHN0eWxlPSJzdHJva2U6IzE4MTgxODtzdHJva2Utd2lkdGg6MC41OyIgeDE9IjMzNzciIHgyPSIzNTEzIiB5MT0iNjMwIiB5Mj0iNjMwIi8+PGxpbmUgc3R5bGU9InN0cm9rZTojMTgxODE4O3N0cm9rZS13aWR0aDowLjU7IiB4MT0iMzM3NyIgeDI9IjM1MTMiIHkxPSI2MzgiIHkyPSI2MzgiLz48L2c+PCEtLU1ENT1bYTZmM2IzNWU2NDZlOTVmOTViMmJlYTIwZjNhOGEzODldCmNsYXNzIGZsdXR0ZXI6OnNyYzo6d2lkZ2V0czo6dGlja2VyX3Byb3ZpZGVyLmRhcnQ6OlNpbmdsZVRpY2tlclByb3ZpZGVyU3RhdGVNaXhpbi0tPjxnIGlkPSJlbGVtX2ZsdXR0ZXI6OnNyYzo6d2lkZ2V0czo6dGlja2VyX3Byb3ZpZGVyLmRhcnQ6OlNpbmdsZVRpY2tlclByb3ZpZGVyU3RhdGVNaXhpbiI+PHJlY3QgZmlsbD0iI0YxRjFGMSIgaGVpZ2h0PSI0OCIgaWQ9ImZsdXR0ZXI6OnNyYzo6d2lkZ2V0czo6dGlja2VyX3Byb3ZpZGVyLmRhcnQ6OlNpbmdsZVRpY2tlclByb3ZpZGVyU3RhdGVNaXhpbiIgcng9IjIuNSIgcnk9IjIuNSIgc3R5bGU9InN0cm9rZTojMTgxODE4O3N0cm9rZS13aWR0aDowLjU7IiB3aWR0aD0iMjQyIiB4PSIzMzI0IiB5PSI5MS41Ii8+PGVsbGlwc2UgY3g9IjMzMzkiIGN5PSIxMDcuNSIgZmlsbD0iI0FERDFCMiIgcng9IjExIiByeT0iMTEiIHN0eWxlPSJzdHJva2U6IzE4MTgxODtzdHJva2Utd2lkdGg6MS4wOyIvPjxwYXRoIGQ9Ik0zMzM2LjYyNSwxMTEuNzUgTDMzMzYuNjI1LDExMy41IEwzMzQxLjU2MjUsMTEzLjUgTDMzNDEuNTYyNSwxMTEuNzUgTDMzMzYuNjI1LDExMS43NSBaIE0zMzM3LjMxMjUsMTEyLjQzNzUgUTMzMzcuMzEyNSwxMTIuNDM3NSAzMzM3LjMxMjUsMTAzLjI1IEwzMzM1LjU2MjUsMTAzLjI1IFEzMzM1LjU2MjUsMTAzLjI1IDMzMzUuNTYyNSwxMTIuNDM3NSBMMzMzNy4zMTI1LDExMi40Mzc1IFogTTMzNDAuODc1LDExMi40Mzc1IEwzMzQyLjYyNSwxMTIuNDM3NSBRMzM0Mi42MjUsMTEyLjQzNzUgMzM0Mi42MjUsMTA5LjYyNSBMMzM0MC44NzUsMTA5LjYyNSBRMzM0MC44NzUsMTA5LjYyNSAzMzQwLjg3NSwxMTIuNDM3NSBaIE0zMzQwLjg3NSwxMDMuMjUgUTMzNDAuODc1LDEwMy4yNSAzMzQwLjg3NSwxMDYuMDYyNSBMMzM0Mi42MjUsMTA2LjA2MjUgUTMzNDIuNjI1LDEwNi4wNjI1IDMzNDIuNjI1LDEwMy4yNSBMMzM0MC44NzUsMTAzLjI1IFogTTMzMzYuNjI1LDEwMy45Mzc1IEwzMzQxLjU2MjUsMTAzLjkzNzUgTDMzNDEuNTYyNSwxMDIuMTg3NSBMMzMzNi42MjUsMTAyLjE4NzUgTDMzMzYuNjI1LDEwMy45Mzc1IFogIiBmaWxsPSIjMDAwMDAwIi8+PHRleHQgZmlsbD0iIzAwMDAwMCIgZm9udC1mYW1pbHk9InNhbnMtc2VyaWYiIGZvbnQtc2l6ZT0iMTQiIGxlbmd0aEFkanVzdD0ic3BhY2luZyIgdGV4dExlbmd0aD0iMjEwIiB4PSIzMzUzIiB5PSIxMTMuMjQyMiI+U2luZ2xlVGlja2VyUHJvdmlkZXJTdGF0ZU1peGluPC90ZXh0PjxsaW5lIHN0eWxlPSJzdHJva2U6IzE4MTgxODtzdHJva2Utd2lkdGg6MC41OyIgeDE9IjMzMjUiIHgyPSIzNTY1IiB5MT0iMTIzLjUiIHkyPSIxMjMuNSIvPjxsaW5lIHN0eWxlPSJzdHJva2U6IzE4MTgxODtzdHJva2Utd2lkdGg6MC41OyIgeDE9IjMzMjUiIHgyPSIzNTY1IiB5MT0iMTMxLjUiIHkyPSIxMzEuNSIvPjwvZz48IS0tTUQ1PVs3ZDVlM2E0ZGFlMDI2ODdkMmM4MTlhZWJiMmI1MzFjNl0KY2xhc3MgYmxhY2tqYWNrYXBwOjpzY3JlZW5zOjpzcGxhc2hzY3JlZW4uZGFydDo6U3BsYXNoU2NyZWVuLS0+PGcgaWQ9ImVsZW1fYmxhY2tqYWNrYXBwOjpzY3JlZW5zOjpzcGxhc2hzY3JlZW4uZGFydDo6U3BsYXNoU2NyZWVuIj48cmVjdCBjb2RlTGluZT0iMTQ5IiBmaWxsPSIjRjFGMUYxIiBoZWlnaHQ9IjYyLjk4NDQiIGlkPSJibGFja2phY2thcHA6OnNjcmVlbnM6OnNwbGFzaHNjcmVlbi5kYXJ0OjpTcGxhc2hTY3JlZW4iIHJ4PSIyLjUiIHJ5PSIyLjUiIHN0eWxlPSJzdHJva2U6IzE4MTgxODtzdHJva2Utd2lkdGg6MC41OyIgd2lkdGg9IjI3MyIgeD0iMjQ5NS41IiB5PSIzNTciLz48ZWxsaXBzZSBjeD0iMjU4NS43NSIgY3k9IjM3MyIgZmlsbD0iI0FERDFCMiIgcng9IjExIiByeT0iMTEiIHN0eWxlPSJzdHJva2U6IzE4MTgxODtzdHJva2Utd2lkdGg6MS4wOyIvPjxwYXRoIGQ9Ik0yNTgzLjM3NSwzNzcuMjUgTDI1ODMuMzc1LDM3OSBMMjU4OC4zMTI1LDM3OSBMMjU4OC4zMTI1LDM3Ny4yNSBMMjU4My4zNzUsMzc3LjI1IFogTTI1ODQuMDYyNSwzNzcuOTM3NSBRMjU4NC4wNjI1LDM3Ny45Mzc1IDI1ODQuMDYyNSwzNjguNzUgTDI1ODIuMzEyNSwzNjguNzUgUTI1ODIuMzEyNSwzNjguNzUgMjU4Mi4zMTI1LDM3Ny45Mzc1IEwyNTg0LjA2MjUsMzc3LjkzNzUgWiBNMjU4Ny42MjUsMzc3LjkzNzUgTDI1ODkuMzc1LDM3Ny45Mzc1IFEyNTg5LjM3NSwzNzcuOTM3NSAyNTg5LjM3NSwzNzUuMTI1IEwyNTg3LjYyNSwzNzUuMTI1IFEyNTg3LjYyNSwzNzUuMTI1IDI1ODcuNjI1LDM3Ny45Mzc1IFogTTI1ODcuNjI1LDM2OC43NSBRMjU4Ny42MjUsMzY4Ljc1IDI1ODcuNjI1LDM3MS41NjI1IEwyNTg5LjM3NSwzNzEuNTYyNSBRMjU4OS4zNzUsMzcxLjU2MjUgMjU4OS4zNzUsMzY4Ljc1IEwyNTg3LjYyNSwzNjguNzUgWiBNMjU4My4zNzUsMzY5LjQzNzUgTDI1ODguMzEyNSwzNjkuNDM3NSBMMjU4OC4zMTI1LDM2Ny42ODc1IEwyNTgzLjM3NSwzNjcuNjg3NSBMMjU4My4zNzUsMzY5LjQzNzUgWiAiIGZpbGw9IiMwMDAwMDAiLz48dGV4dCBmaWxsPSIjMDAwMDAwIiBmb250LWZhbWlseT0ic2Fucy1zZXJpZiIgZm9udC1zaXplPSIxNCIgbGVuZ3RoQWRqdXN0PSJzcGFjaW5nIiB0ZXh0TGVuZ3RoPSI4NCIgeD0iMjYwNi4yNSIgeT0iMzc4Ljc0MjIiPlNwbGFzaFNjcmVlbjwvdGV4dD48bGluZSBzdHlsZT0ic3Ryb2tlOiMxODE4MTg7c3Ryb2tlLXdpZHRoOjAuNTsiIHgxPSIyNDk2LjUiIHgyPSIyNzY3LjUiIHkxPSIzODkiIHkyPSIzODkiLz48bGluZSBzdHlsZT0ic3Ryb2tlOiMxODE4MTg7c3Ryb2tlLXdpZHRoOjAuNTsiIHgxPSIyNDk2LjUiIHgyPSIyNzY3LjUiIHkxPSIzOTciIHkyPSIzOTciLz48ZWxsaXBzZSBjeD0iMjUwNi41IiBjeT0iNDA4IiBmaWxsPSIjODRCRTg0IiByeD0iMyIgcnk9IjMiIHN0eWxlPSJzdHJva2U6IzAzODA0ODtzdHJva2Utd2lkdGg6MS4wOyIvPjx0ZXh0IGZpbGw9IiMwMDAwMDAiIGZvbnQtZmFtaWx5PSJzYW5zLXNlcmlmIiBmb250LXNpemU9IjE0IiBsZW5ndGhBZGp1c3Q9InNwYWNpbmciIHRleHRMZW5ndGg9IjI0NyIgeD0iMjUxNS41IiB5PSI0MTQuMjM0NCI+U3RhdGUmbHQ7U3RhdGVmdWxXaWRnZXQmZ3Q7IGNyZWF0ZVN0YXRlKCk8L3RleHQ+PC9nPjwhLS1NRDU9WzM2M2Y1NDNmMmVmYTIyZTIyOGM0OWJlNmRiZDhjM2ZiXQpjbGFzcyBibGFja2phY2thcHA6OnNjcmVlbnM6OnNwbGFzaHNjcmVlbi5kYXJ0OjpTdGFydFN0YXRlLS0+PGcgaWQ9ImVsZW1fYmxhY2tqYWNrYXBwOjpzY3JlZW5zOjpzcGxhc2hzY3JlZW4uZGFydDo6U3RhcnRTdGF0ZSI+PHJlY3QgY29kZUxpbmU9IjE1NSIgZmlsbD0iI0YxRjFGMSIgaGVpZ2h0PSIxMDcuOTM3NSIgaWQ9ImJsYWNramFja2FwcDo6c2NyZWVuczo6c3BsYXNoc2NyZWVuLmRhcnQ6OlN0YXJ0U3RhdGUiIHJ4PSIyLjUiIHJ5PSIyLjUiIHN0eWxlPSJzdHJva2U6IzE4MTgxODtzdHJva2Utd2lkdGg6MC41OyIgd2lkdGg9IjE3MCIgeD0iMjgwNCIgeT0iMzM0LjUiLz48ZWxsaXBzZSBjeD0iMjg0OS43NSIgY3k9IjM1MC41IiBmaWxsPSIjQUREMUIyIiByeD0iMTEiIHJ5PSIxMSIgc3R5bGU9InN0cm9rZTojMTgxODE4O3N0cm9rZS13aWR0aDoxLjA7Ii8+PHBhdGggZD0iTTI4NDcuMzc1LDM1NC43NSBMMjg0Ny4zNzUsMzU2LjUgTDI4NTIuMzEyNSwzNTYuNSBMMjg1Mi4zMTI1LDM1NC43NSBMMjg0Ny4zNzUsMzU0Ljc1IFogTTI4NDguMDYyNSwzNTUuNDM3NSBRMjg0OC4wNjI1LDM1NS40Mzc1IDI4NDguMDYyNSwzNDYuMjUgTDI4NDYuMzEyNSwzNDYuMjUgUTI4NDYuMzEyNSwzNDYuMjUgMjg0Ni4zMTI1LDM1NS40Mzc1IEwyODQ4LjA2MjUsMzU1LjQzNzUgWiBNMjg1MS42MjUsMzU1LjQzNzUgTDI4NTMuMzc1LDM1NS40Mzc1IFEyODUzLjM3NSwzNTUuNDM3NSAyODUzLjM3NSwzNTIuNjI1IEwyODUxLjYyNSwzNTIuNjI1IFEyODUxLjYyNSwzNTIuNjI1IDI4NTEuNjI1LDM1NS40Mzc1IFogTTI4NTEuNjI1LDM0Ni4yNSBRMjg1MS42MjUsMzQ2LjI1IDI4NTEuNjI1LDM0OS4wNjI1IEwyODUzLjM3NSwzNDkuMDYyNSBRMjg1My4zNzUsMzQ5LjA2MjUgMjg1My4zNzUsMzQ2LjI1IEwyODUxLjYyNSwzNDYuMjUgWiBNMjg0Ny4zNzUsMzQ2LjkzNzUgTDI4NTIuMzEyNSwzNDYuOTM3NSBMMjg1Mi4zMTI1LDM0NS4xODc1IEwyODQ3LjM3NSwzNDUuMTg3NSBMMjg0Ny4zNzUsMzQ2LjkzNzUgWiAiIGZpbGw9IiMwMDAwMDAiLz48dGV4dCBmaWxsPSIjMDAwMDAwIiBmb250LWZhbWlseT0ic2Fucy1zZXJpZiIgZm9udC1zaXplPSIxNCIgbGVuZ3RoQWRqdXN0PSJzcGFjaW5nIiB0ZXh0TGVuZ3RoPSI3MCIgeD0iMjg3MC4yNSIgeT0iMzU2LjI0MjIiPlN0YXJ0U3RhdGU8L3RleHQ+PGxpbmUgc3R5bGU9InN0cm9rZTojMTgxODE4O3N0cm9rZS13aWR0aDowLjU7IiB4MT0iMjgwNSIgeDI9IjI5NzMiIHkxPSIzNjYuNSIgeTI9IjM2Ni41Ii8+PGxpbmUgc3R5bGU9InN0cm9rZTojMTgxODE4O3N0cm9rZS13aWR0aDowLjU7IiB4MT0iMjgwNSIgeDI9IjI5NzMiIHkxPSIzNzQuNSIgeTI9IjM3NC41Ii8+PGVsbGlwc2UgY3g9IjI4MTUiIGN5PSIzODUuNSIgZmlsbD0iIzg0QkU4NCIgcng9IjMiIHJ5PSIzIiBzdHlsZT0ic3Ryb2tlOiMwMzgwNDg7c3Ryb2tlLXdpZHRoOjEuMDsiLz48dGV4dCBmaWxsPSIjMDAwMDAwIiBmb250LWZhbWlseT0ic2Fucy1zZXJpZiIgZm9udC1zaXplPSIxNCIgbGVuZ3RoQWRqdXN0PSJzcGFjaW5nIiB0ZXh0TGVuZ3RoPSIxMTQiIHg9IjI4MjQiIHk9IjM5MS43MzQ0Ij52b2lkIGluaXRTdGF0ZSgpPC90ZXh0PjxlbGxpcHNlIGN4PSIyODE1IiBjeT0iNDAwLjQ4NDQiIGZpbGw9IiM4NEJFODQiIHJ4PSIzIiByeT0iMyIgc3R5bGU9InN0cm9rZTojMDM4MDQ4O3N0cm9rZS13aWR0aDoxLjA7Ii8+PHRleHQgZmlsbD0iIzAwMDAwMCIgZm9udC1mYW1pbHk9InNhbnMtc2VyaWYiIGZvbnQtc2l6ZT0iMTQiIGxlbmd0aEFkanVzdD0ic3BhY2luZyIgdGV4dExlbmd0aD0iMTQ0IiB4PSIyODI0IiB5PSI0MDYuNzE4OCI+ZHluYW1pYyBzdGFydFRpbWVyKCk8L3RleHQ+PGVsbGlwc2UgY3g9IjI4MTUiIGN5PSI0MTUuNDY4OCIgZmlsbD0iIzg0QkU4NCIgcng9IjMiIHJ5PSIzIiBzdHlsZT0ic3Ryb2tlOiMwMzgwNDg7c3Ryb2tlLXdpZHRoOjEuMDsiLz48dGV4dCBmaWxsPSIjMDAwMDAwIiBmb250LWZhbWlseT0ic2Fucy1zZXJpZiIgZm9udC1zaXplPSIxNCIgbGVuZ3RoQWRqdXN0PSJzcGFjaW5nIiB0ZXh0TGVuZ3RoPSIxMDgiIHg9IjI4MjQiIHk9IjQyMS43MDMxIj5keW5hbWljIHJvdXRlKCk8L3RleHQ+PGVsbGlwc2UgY3g9IjI4MTUiIGN5PSI0MzAuNDUzMSIgZmlsbD0iIzg0QkU4NCIgcng9IjMiIHJ5PSIzIiBzdHlsZT0ic3Ryb2tlOiMwMzgwNDg7c3Ryb2tlLXdpZHRoOjEuMDsiLz48dGV4dCBmaWxsPSIjMDAwMDAwIiBmb250LWZhbWlseT0ic2Fucy1zZXJpZiIgZm9udC1zaXplPSIxNCIgbGVuZ3RoQWRqdXN0PSJzcGFjaW5nIiB0ZXh0TGVuZ3RoPSIxMDAiIHg9IjI4MjQiIHk9IjQzNi42ODc1Ij5XaWRnZXQgYnVpbGQoKTwvdGV4dD48L2c+PCEtLU1ENT1bYjRhYTUxNzA2Y2ZjNDNiYWRkNmZkZWZkYjhlYjc1NGVdCmNsYXNzIGJsYWNramFja2FwcDo6c2VydmljZXM6OmFwaV9zZXJ2aWNlLmRhcnQ6OkFwaVNlcnZpY2UtLT48ZyBpZD0iZWxlbV9ibGFja2phY2thcHA6OnNlcnZpY2VzOjphcGlfc2VydmljZS5kYXJ0OjpBcGlTZXJ2aWNlIj48cmVjdCBjb2RlTGluZT0iMTY0IiBmaWxsPSIjRjFGMUYxIiBoZWlnaHQ9IjkyLjk1MzEiIGlkPSJibGFja2phY2thcHA6OnNlcnZpY2VzOjphcGlfc2VydmljZS5kYXJ0OjpBcGlTZXJ2aWNlIiByeD0iMi41IiByeT0iMi41IiBzdHlsZT0ic3Ryb2tlOiMxODE4MTg7c3Ryb2tlLXdpZHRoOjAuNTsiIHdpZHRoPSIyOTUiIHg9IjQ1NjIuNSIgeT0iNjkiLz48ZWxsaXBzZSBjeD0iNDY3MC43NSIgY3k9Ijg1IiBmaWxsPSIjQUREMUIyIiByeD0iMTEiIHJ5PSIxMSIgc3R5bGU9InN0cm9rZTojMTgxODE4O3N0cm9rZS13aWR0aDoxLjA7Ii8+PHBhdGggZD0iTTQ2NjguMzc1LDg5LjI1IEw0NjY4LjM3NSw5MSBMNDY3My4zMTI1LDkxIEw0NjczLjMxMjUsODkuMjUgTDQ2NjguMzc1LDg5LjI1IFogTTQ2NjkuMDYyNSw4OS45Mzc1IFE0NjY5LjA2MjUsODkuOTM3NSA0NjY5LjA2MjUsODAuNzUgTDQ2NjcuMzEyNSw4MC43NSBRNDY2Ny4zMTI1LDgwLjc1IDQ2NjcuMzEyNSw4OS45Mzc1IEw0NjY5LjA2MjUsODkuOTM3NSBaIE00NjcyLjYyNSw4OS45Mzc1IEw0Njc0LjM3NSw4OS45Mzc1IFE0Njc0LjM3NSw4OS45Mzc1IDQ2NzQuMzc1LDg3LjEyNSBMNDY3Mi42MjUsODcuMTI1IFE0NjcyLjYyNSw4Ny4xMjUgNDY3Mi42MjUsODkuOTM3NSBaIE00NjcyLjYyNSw4MC43NSBRNDY3Mi42MjUsODAuNzUgNDY3Mi42MjUsODMuNTYyNSBMNDY3NC4zNzUsODMuNTYyNSBRNDY3NC4zNzUsODMuNTYyNSA0Njc0LjM3NSw4MC43NSBMNDY3Mi42MjUsODAuNzUgWiBNNDY2OC4zNzUsODEuNDM3NSBMNDY3My4zMTI1LDgxLjQzNzUgTDQ2NzMuMzEyNSw3OS42ODc1IEw0NjY4LjM3NSw3OS42ODc1IEw0NjY4LjM3NSw4MS40Mzc1IFogIiBmaWxsPSIjMDAwMDAwIi8+PHRleHQgZmlsbD0iIzAwMDAwMCIgZm9udC1mYW1pbHk9InNhbnMtc2VyaWYiIGZvbnQtc2l6ZT0iMTQiIGxlbmd0aEFkanVzdD0ic3BhY2luZyIgdGV4dExlbmd0aD0iNzAiIHg9IjQ2OTEuMjUiIHk9IjkwLjc0MjIiPkFwaVNlcnZpY2U8L3RleHQ+PGxpbmUgc3R5bGU9InN0cm9rZTojMTgxODE4O3N0cm9rZS13aWR0aDowLjU7IiB4MT0iNDU2My41IiB4Mj0iNDg1Ni41IiB5MT0iMTAxIiB5Mj0iMTAxIi8+PGVsbGlwc2UgY3g9IjQ1NzMuNSIgY3k9IjExMiIgZmlsbD0ibm9uZSIgcng9IjMiIHJ5PSIzIiBzdHlsZT0ic3Ryb2tlOiMwMzgwNDg7c3Ryb2tlLXdpZHRoOjEuMDsiLz48dGV4dCBmaWxsPSIjMDAwMDAwIiBmb250LWZhbWlseT0ic2Fucy1zZXJpZiIgZm9udC1zaXplPSIxNCIgbGVuZ3RoQWRqdXN0PSJzcGFjaW5nIiB0ZXh0LWRlY29yYXRpb249InVuZGVybGluZSIgdGV4dExlbmd0aD0iOTgiIHg9IjQ1ODIuNSIgeT0iMTE4LjIzNDQiPlN0cmluZyBiYXNlVXJsPC90ZXh0PjxsaW5lIHN0eWxlPSJzdHJva2U6IzE4MTgxODtzdHJva2Utd2lkdGg6MC41OyIgeDE9IjQ1NjMuNSIgeDI9IjQ4NTYuNSIgeTE9IjEyMy45ODQ0IiB5Mj0iMTIzLjk4NDQiLz48cmVjdCBmaWxsPSIjRjI0RDVDIiBoZWlnaHQ9IjYiIHN0eWxlPSJzdHJva2U6I0M4MjkzMDtzdHJva2Utd2lkdGg6MS4wOyIgd2lkdGg9IjYiIHg9IjQ1NzAuNSIgeT0iMTMxLjk4NDQiLz48dGV4dCBmaWxsPSIjMDAwMDAwIiBmb250LWZhbWlseT0ic2Fucy1zZXJpZiIgZm9udC1zaXplPSIxNCIgbGVuZ3RoQWRqdXN0PSJzcGFjaW5nIiB0ZXh0TGVuZ3RoPSI3MiIgeD0iNDU4Mi41IiB5PSIxNDEuMjE4OCI+VXJpIF91cmwoKTwvdGV4dD48ZWxsaXBzZSBjeD0iNDU3My41IiBjeT0iMTQ5Ljk2ODgiIGZpbGw9IiM4NEJFODQiIHJ4PSIzIiByeT0iMyIgc3R5bGU9InN0cm9rZTojMDM4MDQ4O3N0cm9rZS13aWR0aDoxLjA7Ii8+PHRleHQgZmlsbD0iIzAwMDAwMCIgZm9udC1mYW1pbHk9InNhbnMtc2VyaWYiIGZvbnQtc2l6ZT0iMTQiIGxlbmd0aEFkanVzdD0ic3BhY2luZyIgdGV4dExlbmd0aD0iMjY5IiB4PSI0NTgyLjUiIHk9IjE1Ni4yMDMxIj5GdXR1cmUmbHQ7TWFwJmx0O1N0cmluZywgZHluYW1pYyZndDsmZ3Q7IGh0dHBHZXQoKTwvdGV4dD48L2c+PCEtLU1ENT1bZDIxZDMyNmMzNDdlOGY2YjRjZDVkMjhiNjlkYjNjNDldCmNsYXNzIGJsYWNramFja2FwcDo6c2VydmljZXM6OmRlY2tfc2VydmljZS5kYXJ0OjpEZWNrU2VydmljZS0tPjxnIGlkPSJlbGVtX2JsYWNramFja2FwcDo6c2VydmljZXM6OmRlY2tfc2VydmljZS5kYXJ0OjpEZWNrU2VydmljZSI+PHJlY3QgY29kZUxpbmU9IjE3MCIgZmlsbD0iI0YxRjFGMSIgaGVpZ2h0PSI3Ny45Njg4IiBpZD0iYmxhY2tqYWNrYXBwOjpzZXJ2aWNlczo6ZGVja19zZXJ2aWNlLmRhcnQ6OkRlY2tTZXJ2aWNlIiByeD0iMi41IiByeT0iMi41IiBzdHlsZT0ic3Ryb2tlOiMxODE4MTg7c3Ryb2tlLXdpZHRoOjAuNTsiIHdpZHRoPSIyMzMiIHg9IjQ1OTMuNSIgeT0iMzQ5LjUiLz48ZWxsaXBzZSBjeD0iNDY2Ny4yNSIgY3k9IjM2NS41IiBmaWxsPSIjQUREMUIyIiByeD0iMTEiIHJ5PSIxMSIgc3R5bGU9InN0cm9rZTojMTgxODE4O3N0cm9rZS13aWR0aDoxLjA7Ii8+PHBhdGggZD0iTTQ2NjQuODc1LDM2OS43NSBMNDY2NC44NzUsMzcxLjUgTDQ2NjkuODEyNSwzNzEuNSBMNDY2OS44MTI1LDM2OS43NSBMNDY2NC44NzUsMzY5Ljc1IFogTTQ2NjUuNTYyNSwzNzAuNDM3NSBRNDY2NS41NjI1LDM3MC40Mzc1IDQ2NjUuNTYyNSwzNjEuMjUgTDQ2NjMuODEyNSwzNjEuMjUgUTQ2NjMuODEyNSwzNjEuMjUgNDY2My44MTI1LDM3MC40Mzc1IEw0NjY1LjU2MjUsMzcwLjQzNzUgWiBNNDY2OS4xMjUsMzcwLjQzNzUgTDQ2NzAuODc1LDM3MC40Mzc1IFE0NjcwLjg3NSwzNzAuNDM3NSA0NjcwLjg3NSwzNjcuNjI1IEw0NjY5LjEyNSwzNjcuNjI1IFE0NjY5LjEyNSwzNjcuNjI1IDQ2NjkuMTI1LDM3MC40Mzc1IFogTTQ2NjkuMTI1LDM2MS4yNSBRNDY2OS4xMjUsMzYxLjI1IDQ2NjkuMTI1LDM2NC4wNjI1IEw0NjcwLjg3NSwzNjQuMDYyNSBRNDY3MC44NzUsMzY0LjA2MjUgNDY3MC44NzUsMzYxLjI1IEw0NjY5LjEyNSwzNjEuMjUgWiBNNDY2NC44NzUsMzYxLjkzNzUgTDQ2NjkuODEyNSwzNjEuOTM3NSBMNDY2OS44MTI1LDM2MC4xODc1IEw0NjY0Ljg3NSwzNjAuMTg3NSBMNDY2NC44NzUsMzYxLjkzNzUgWiAiIGZpbGw9IiMwMDAwMDAiLz48dGV4dCBmaWxsPSIjMDAwMDAwIiBmb250LWZhbWlseT0ic2Fucy1zZXJpZiIgZm9udC1zaXplPSIxNCIgbGVuZ3RoQWRqdXN0PSJzcGFjaW5nIiB0ZXh0TGVuZ3RoPSI3NyIgeD0iNDY4Ny43NSIgeT0iMzcxLjI0MjIiPkRlY2tTZXJ2aWNlPC90ZXh0PjxsaW5lIHN0eWxlPSJzdHJva2U6IzE4MTgxODtzdHJva2Utd2lkdGg6MC41OyIgeDE9IjQ1OTQuNSIgeDI9IjQ4MjUuNSIgeTE9IjM4MS41IiB5Mj0iMzgxLjUiLz48bGluZSBzdHlsZT0ic3Ryb2tlOiMxODE4MTg7c3Ryb2tlLXdpZHRoOjAuNTsiIHgxPSI0NTk0LjUiIHgyPSI0ODI1LjUiIHkxPSIzODkuNSIgeTI9IjM4OS41Ii8+PGVsbGlwc2UgY3g9IjQ2MDQuNSIgY3k9IjQwMC41IiBmaWxsPSIjODRCRTg0IiByeD0iMyIgcnk9IjMiIHN0eWxlPSJzdHJva2U6IzAzODA0ODtzdHJva2Utd2lkdGg6MS4wOyIvPjx0ZXh0IGZpbGw9IiMwMDAwMDAiIGZvbnQtZmFtaWx5PSJzYW5zLXNlcmlmIiBmb250LXNpemU9IjE0IiBsZW5ndGhBZGp1c3Q9InNwYWNpbmciIHRleHRMZW5ndGg9IjE5MiIgeD0iNDYxMy41IiB5PSI0MDYuNzM0NCI+RnV0dXJlJmx0O0RlY2tNb2RlbCZndDsgbmV3RGVjaygpPC90ZXh0PjxlbGxpcHNlIGN4PSI0NjA0LjUiIGN5PSI0MTUuNDg0NCIgZmlsbD0iIzg0QkU4NCIgcng9IjMiIHJ5PSIzIiBzdHlsZT0ic3Ryb2tlOiMwMzgwNDg7c3Ryb2tlLXdpZHRoOjEuMDsiLz48dGV4dCBmaWxsPSIjMDAwMDAwIiBmb250LWZhbWlseT0ic2Fucy1zZXJpZiIgZm9udC1zaXplPSIxNCIgbGVuZ3RoQWRqdXN0PSJzcGFjaW5nIiB0ZXh0TGVuZ3RoPSIyMDciIHg9IjQ2MTMuNSIgeT0iNDIxLjcxODgiPkZ1dHVyZSZsdDtEcmF3TW9kZWwmZ3Q7IGRyYXdDYXJkcygpPC90ZXh0PjwvZz48IS0tTUQ1PVtiZTFmM2Q1MTg5ZGJlOWJkMjUzZjRkYjhiOGRiZjY3ZF0KcmV2ZXJzZSBsaW5rIGJsYWNramFja2FwcDo6YXBpOjpjYXJkdmFsdWUuZGFydDo6Q2FyZFR5cGUgdG8gYmxhY2tqYWNrYXBwOjphcGk6OmNhcmR2YWx1ZS5kYXJ0OjpDYXJkVHlwZS0tPjxnIGlkPSJsaW5rX2JsYWNramFja2FwcDo6YXBpOjpjYXJkdmFsdWUuZGFydDo6Q2FyZFR5cGVfYmxhY2tqYWNrYXBwOjphcGk6OmNhcmR2YWx1ZS5kYXJ0OjpDYXJkVHlwZSI+PHBhdGggY29kZUxpbmU9IjIxIiBkPSJNNDY4LjMsMzQ5Ljk4IEM0ODEuNjMsMzU2LjQ3IDQ5MC41LDM2OS4zMSA0OTAuNSwzODguNSBDNDkwLjUsNDEzLjMxIDQ3NS42OCw0MjcuNTEgNDU1LjU1LDQzMS4wOSAiIGZpbGw9Im5vbmUiIGlkPSJibGFja2phY2thcHA6OmFwaTo6Y2FyZHZhbHVlLmRhcnQ6OkNhcmRUeXBlLWJhY2t0by1ibGFja2phY2thcHA6OmFwaTo6Y2FyZHZhbHVlLmRhcnQ6OkNhcmRUeXBlIiBzdHlsZT0ic3Ryb2tlOiMxODE4MTg7c3Ryb2tlLXdpZHRoOjEuMDsiLz48cG9seWdvbiBmaWxsPSJub25lIiBwb2ludHM9IjQ1NS41NSwzNDUuOTEsNDYwLjA0OCwzNTEuNTQ2Myw0NjYuOTgwOCwzNDkuNTYyLDQ2Mi40ODI3LDM0My45MjU4LDQ1NS41NSwzNDUuOTEiIHN0eWxlPSJzdHJva2U6IzE4MTgxODtzdHJva2Utd2lkdGg6MS4wOyIvPjwvZz48IS0tTUQ1PVtlZjA5OGQ1NDJiMjlhZmQ0MDdhY2Q2YzdjNmM1ZGQxYV0KcmV2ZXJzZSBsaW5rIGRhcnQ6OmNvcmU6OkVudW0gdG8gYmxhY2tqYWNrYXBwOjphcGk6OmNhcmR2YWx1ZS5kYXJ0OjpDYXJkVHlwZS0tPjxnIGlkPSJsaW5rX2RhcnQ6OmNvcmU6OkVudW1fYmxhY2tqYWNrYXBwOjphcGk6OmNhcmR2YWx1ZS5kYXJ0OjpDYXJkVHlwZSI+PHBhdGggY29kZUxpbmU9IjIyIiBkPSJNMzY5LDE1OS44NyBDMzY5LDE4NS4wOSAzNjksMjE4LjQgMzY5LDI1MS43MiAiIGZpbGw9Im5vbmUiIGlkPSJkYXJ0Ojpjb3JlOjpFbnVtLWJhY2t0by1ibGFja2phY2thcHA6OmFwaTo6Y2FyZHZhbHVlLmRhcnQ6OkNhcmRUeXBlIiBzdHlsZT0ic3Ryb2tlOiMxODE4MTg7c3Ryb2tlLXdpZHRoOjEuMDsiLz48cG9seWdvbiBmaWxsPSJub25lIiBwb2ludHM9IjM2MiwxNTkuNjEsMzY5LDEzOS42MSwzNzYsMTU5LjYxLDM2MiwxNTkuNjEiIHN0eWxlPSJzdHJva2U6IzE4MTgxODtzdHJva2Utd2lkdGg6MS4wOyIvPjwvZz48IS0tTUQ1PVtlMDBiNjU3OGFlYzU2YzY0MDZlNGIzZGFkNmQwNjJiM10KcmV2ZXJzZSBsaW5rIGJsYWNramFja2FwcDo6YXBpOjpjYXJkdmFsdWUuZGFydDo6U3VpdCB0byBibGFja2phY2thcHA6OmFwaTo6Y2FyZHZhbHVlLmRhcnQ6OlN1aXQtLT48ZyBpZD0ibGlua19ibGFja2phY2thcHA6OmFwaTo6Y2FyZHZhbHVlLmRhcnQ6OlN1aXRfYmxhY2tqYWNrYXBwOjphcGk6OmNhcmR2YWx1ZS5kYXJ0OjpTdWl0Ij48cGF0aCBjb2RlTGluZT0iMzQiIGQ9Ik0yNDIuMjEsMzQ4LjY2IEMyNTUuNDcsMzU0LjYzIDI2NC41LDM2Ny45MSAyNjQuNSwzODguNSBDMjY0LjUsNDE1LjEyIDI0OS40LDQyOS41MiAyMjkuNiw0MzEuNzEgIiBmaWxsPSJub25lIiBpZD0iYmxhY2tqYWNrYXBwOjphcGk6OmNhcmR2YWx1ZS5kYXJ0OjpTdWl0LWJhY2t0by1ibGFja2phY2thcHA6OmFwaTo6Y2FyZHZhbHVlLmRhcnQ6OlN1aXQiIHN0eWxlPSJzdHJva2U6IzE4MTgxODtzdHJva2Utd2lkdGg6MS4wOyIvPjxwb2x5Z29uIGZpbGw9Im5vbmUiIHBvaW50cz0iMjI5LjYsMzQ1LjI5LDIzNC4zNjkxLDM1MC42OTg5LDI0MS4xOTYxLDM0OC4zNzcsMjM2LjQyNzEsMzQyLjk2ODEsMjI5LjYsMzQ1LjI5IiBzdHlsZT0ic3Ryb2tlOiMxODE4MTg7c3Ryb2tlLXdpZHRoOjEuMDsiLz48L2c+PCEtLU1ENT1bMTRiYWNiOWYxY2VjNWIwMGRmMjcyMjc2MjBjZThkY2JdCnJldmVyc2UgbGluayBkYXJ0Ojpjb3JlOjpFbnVtIHRvIGJsYWNramFja2FwcDo6YXBpOjpjYXJkdmFsdWUuZGFydDo6U3VpdC0tPjxnIGlkPSJsaW5rX2RhcnQ6OmNvcmU6OkVudW1fYmxhY2tqYWNrYXBwOjphcGk6OmNhcmR2YWx1ZS5kYXJ0OjpTdWl0Ij48cGF0aCBjb2RlTGluZT0iMzUiIGQ9Ik0zMjMuNjksMTUyLjcgQzMwNC4zOSwxNjkuMzMgMjgyLjM3LDE5MCAyNjUsMjExIEMyMzkuNDcsMjQxLjg2IDIxNS42OSwyNzkuMzIgMTk2Ljk4LDMxMS43OCAiIGZpbGw9Im5vbmUiIGlkPSJkYXJ0Ojpjb3JlOjpFbnVtLWJhY2t0by1ibGFja2phY2thcHA6OmFwaTo6Y2FyZHZhbHVlLmRhcnQ6OlN1aXQiIHN0eWxlPSJzdHJva2U6IzE4MTgxODtzdHJva2Utd2lkdGg6MS4wOyIvPjxwb2x5Z29uIGZpbGw9Im5vbmUiIHBvaW50cz0iMzE5LjI4LDE0Ny4yNywzMzkuMSwxMzkuNzcsMzI4LjI4LDE1Ny45OSwzMTkuMjgsMTQ3LjI3IiBzdHlsZT0ic3Ryb2tlOiMxODE4MTg7c3Ryb2tlLXdpZHRoOjEuMDsiLz48L2c+PCEtLU1ENT1bOWFkMDYxZGJiZjU4NmEyNjMwNGMyYzdhZGU3YzU2YWNdCnJldmVyc2UgbGluayBibGFja2phY2thcHA6OmFwaTo6cGxheWluZ2NhcmQuZGFydDo6UGxheWluZ0NhcmQgdG8gYmxhY2tqYWNrYXBwOjphcGk6OmNhcmR2YWx1ZS5kYXJ0OjpTdWl0LS0+PGcgaWQ9ImxpbmtfYmxhY2tqYWNrYXBwOjphcGk6OnBsYXlpbmdjYXJkLmRhcnQ6OlBsYXlpbmdDYXJkX2JsYWNramFja2FwcDo6YXBpOjpjYXJkdmFsdWUuZGFydDo6U3VpdCI+PHBhdGggY29kZUxpbmU9IjQyIiBkPSJNMTY5Ljk3LDE2Ny44NiBDMTY3LjU3LDIwOC41IDE2NC4xOCwyNjUuODcgMTYxLjQ3LDMxMS43OCAiIGZpbGw9Im5vbmUiIGlkPSJibGFja2phY2thcHA6OmFwaTo6cGxheWluZ2NhcmQuZGFydDo6UGxheWluZ0NhcmQtYmFja3RvLWJsYWNramFja2FwcDo6YXBpOjpjYXJkdmFsdWUuZGFydDo6U3VpdCIgc3R5bGU9InN0cm9rZTojMTgxODE4O3N0cm9rZS13aWR0aDoxLjA7Ii8+PHBvbHlnb24gZmlsbD0ibm9uZSIgcG9pbnRzPSIxNzAuNzQsMTU0Ljc1LDE2Ni4zOTEyLDE2MC41MDIyLDE3MC4wMjg0LDE2Ni43Mjg5LDE3NC4zNzcyLDE2MC45NzY2LDE3MC43NCwxNTQuNzUiIHN0eWxlPSJzdHJva2U6IzE4MTgxODtzdHJva2Utd2lkdGg6MS4wOyIvPjwvZz48IS0tTUQ1PVsyYTY5Njg1NTkyM2YwNWY4MDRhNWY1Y2E2ODVlMWNiYl0KcmV2ZXJzZSBsaW5rIGJsYWNramFja2FwcDo6YXBpOjpwbGF5aW5nY2FyZC5kYXJ0OjpQbGF5aW5nQ2FyZCB0byBibGFja2phY2thcHA6OmFwaTo6Y2FyZHZhbHVlLmRhcnQ6OkNhcmRUeXBlLS0+PGcgaWQ9ImxpbmtfYmxhY2tqYWNrYXBwOjphcGk6OnBsYXlpbmdjYXJkLmRhcnQ6OlBsYXlpbmdDYXJkX2JsYWNramFja2FwcDo6YXBpOjpjYXJkdmFsdWUuZGFydDo6Q2FyZFR5cGUiPjxwYXRoIGNvZGVMaW5lPSI0MyIgZD0iTTIyMy4zOCwxNjMuOCBDMjM3LjYsMTc4LjMgMjUyLjU3LDE5NC43MyAyNjUsMjExIEMyNzQuODIsMjIzLjg2IDI4NC40NCwyMzcuNzMgMjkzLjYxLDI1MS44MyAiIGZpbGw9Im5vbmUiIGlkPSJibGFja2phY2thcHA6OmFwaTo6cGxheWluZ2NhcmQuZGFydDo6UGxheWluZ0NhcmQtYmFja3RvLWJsYWNramFja2FwcDo6YXBpOjpjYXJkdmFsdWUuZGFydDo6Q2FyZFR5cGUiIHN0eWxlPSJzdHJva2U6IzE4MTgxODtzdHJva2Utd2lkdGg6MS4wOyIvPjxwb2x5Z29uIGZpbGw9Im5vbmUiIHBvaW50cz0iMjE0LjE4LDE1NC41NywyMTUuNTg4NywxNjEuNjQyMiwyMjIuNjU4NywxNjMuMDYxOSwyMjEuMjUsMTU1Ljk4OTcsMjE0LjE4LDE1NC41NyIgc3R5bGU9InN0cm9rZTojMTgxODE4O3N0cm9rZS13aWR0aDoxLjA7Ii8+PC9nPjwhLS1NRDU9WzEwYzBhZTNmMzEwZDBmMjNiYzY1OGNmNzQzNmFkNGRhXQpyZXZlcnNlIGxpbmsgZmx1dHRlcjo6c3JjOjp3aWRnZXRzOjpmcmFtZXdvcmsuZGFydDo6U3RhdGVsZXNzV2lkZ2V0IHRvIGJsYWNramFja2FwcDo6Y29tcG9uZW50czo6Y2FyZGJhY2suZGFydDo6Q2FyZEJhY2stLT48ZyBpZD0ibGlua19mbHV0dGVyOjpzcmM6OndpZGdldHM6OmZyYW1ld29yay5kYXJ0OjpTdGF0ZWxlc3NXaWRnZXRfYmxhY2tqYWNrYXBwOjpjb21wb25lbnRzOjpjYXJkYmFjay5kYXJ0OjpDYXJkQmFjayI+PHBhdGggY29kZUxpbmU9IjUwIiBkPSJNMTkyNS40LDEyMi45OSBDMTc1OC42NCwxMzYuMDMgMTQwNC42MywxNjcuOTEgMTI5MCwyMTEgQzEyMDQuMzMsMjQzLjIgMTExOC43NiwzMDcuODYgMTA2OS4xOCwzNDkuMzMgIiBmaWxsPSJub25lIiBpZD0iZmx1dHRlcjo6c3JjOjp3aWRnZXRzOjpmcmFtZXdvcmsuZGFydDo6U3RhdGVsZXNzV2lkZ2V0LWJhY2t0by1ibGFja2phY2thcHA6OmNvbXBvbmVudHM6OmNhcmRiYWNrLmRhcnQ6OkNhcmRCYWNrIiBzdHlsZT0ic3Ryb2tlOiMxODE4MTg7c3Ryb2tlLXdpZHRoOjEuMDsiLz48cG9seWdvbiBmaWxsPSJub25lIiBwb2ludHM9IjE5MjUuMDEsMTE2LDE5NDUuNDksMTIxLjQ0LDE5MjYuMDksMTI5Ljk2LDE5MjUuMDEsMTE2IiBzdHlsZT0ic3Ryb2tlOiMxODE4MTg7c3Ryb2tlLXdpZHRoOjEuMDsiLz48L2c+PCEtLU1ENT1bMmY0MTA5MzVhZTAzZDlmMzMxMGEyNmZhZWQzNWFlOTRdCnJldmVyc2UgbGluayBmbHV0dGVyOjpzcmM6OndpZGdldHM6OmZyYW1ld29yay5kYXJ0OjpTdGF0ZWxlc3NXaWRnZXQgdG8gYmxhY2tqYWNrYXBwOjpjb21wb25lbnRzOjpjYXJkdGVtcGxhdGUuZGFydDo6Q2FyZFRlbXBsYXRlLS0+PGcgaWQ9ImxpbmtfZmx1dHRlcjo6c3JjOjp3aWRnZXRzOjpmcmFtZXdvcmsuZGFydDo6U3RhdGVsZXNzV2lkZ2V0X2JsYWNramFja2FwcDo6Y29tcG9uZW50czo6Y2FyZHRlbXBsYXRlLmRhcnQ6OkNhcmRUZW1wbGF0ZSI+PHBhdGggY29kZUxpbmU9IjU4IiBkPSJNMTkyNS4xMywxMjcuMDcgQzE4NDEuNDEsMTM5LjM5IDE3MTMuOTYsMTY0LjMgMTYxMiwyMTEgQzE1MzksMjQ0LjQ0IDE0NjUuODksMzAxLjUyIDE0MTkuMjIsMzQxLjY5ICIgZmlsbD0ibm9uZSIgaWQ9ImZsdXR0ZXI6OnNyYzo6d2lkZ2V0czo6ZnJhbWV3b3JrLmRhcnQ6OlN0YXRlbGVzc1dpZGdldC1iYWNrdG8tYmxhY2tqYWNrYXBwOjpjb21wb25lbnRzOjpjYXJkdGVtcGxhdGUuZGFydDo6Q2FyZFRlbXBsYXRlIiBzdHlsZT0ic3Ryb2tlOiMxODE4MTg7c3Ryb2tlLXdpZHRoOjEuMDsiLz48cG9seWdvbiBmaWxsPSJub25lIiBwb2ludHM9IjE5MjQuMzksMTIwLjExLDE5NDUuMTcsMTI0LjI0LDE5MjYuMzQsMTMzLjk3LDE5MjQuMzksMTIwLjExIiBzdHlsZT0ic3Ryb2tlOiMxODE4MTg7c3Ryb2tlLXdpZHRoOjEuMDsiLz48L2c+PCEtLU1ENT1bNTM4MjFhZTkwYWEwODkyZjYzYjFlNjc1ZmQ1YzhmN2NdCnJldmVyc2UgbGluayBmbHV0dGVyOjpzcmM6OndpZGdldHM6OmZyYW1ld29yay5kYXJ0OjpTdGF0ZWxlc3NXaWRnZXQgdG8gYmxhY2tqYWNrYXBwOjpjb21wb25lbnRzOjpnYW1lYm9hcmQuZGFydDo6R2FtZUJvYXJkLS0+PGcgaWQ9ImxpbmtfZmx1dHRlcjo6c3JjOjp3aWRnZXRzOjpmcmFtZXdvcmsuZGFydDo6U3RhdGVsZXNzV2lkZ2V0X2JsYWNramFja2FwcDo6Y29tcG9uZW50czo6Z2FtZWJvYXJkLmRhcnQ6OkdhbWVCb2FyZCI+PHBhdGggY29kZUxpbmU9IjY0IiBkPSJNMTkyNi43NiwxNDYuMTEgQzE4ODkuNDEsMTYxLjU4IDE4NDYuOTIsMTgzLjE3IDE4MTQsMjExIEMxNzY0LjgsMjUyLjU5IDE3MjYuMDYsMzE4LjI3IDE3MDYuMDIsMzU2LjY5ICIgZmlsbD0ibm9uZSIgaWQ9ImZsdXR0ZXI6OnNyYzo6d2lkZ2V0czo6ZnJhbWV3b3JrLmRhcnQ6OlN0YXRlbGVzc1dpZGdldC1iYWNrdG8tYmxhY2tqYWNrYXBwOjpjb21wb25lbnRzOjpnYW1lYm9hcmQuZGFydDo6R2FtZUJvYXJkIiBzdHlsZT0ic3Ryb2tlOiMxODE4MTg7c3Ryb2tlLXdpZHRoOjEuMDsiLz48cG9seWdvbiBmaWxsPSJub25lIiBwb2ludHM9IjE5MjQuMjksMTM5LjU2LDE5NDUuNDcsMTM4LjY4LDE5MjkuNDYsMTUyLjU3LDE5MjQuMjksMTM5LjU2IiBzdHlsZT0ic3Ryb2tlOiMxODE4MTg7c3Ryb2tlLXdpZHRoOjEuMDsiLz48L2c+PCEtLU1ENT1bOWNkNWQ2YzNlYzJmZDg0MzQwNmYzNWU3YjY5MDI4ZmFdCnJldmVyc2UgbGluayBmbHV0dGVyOjpzcmM6OndpZGdldHM6OmZyYW1ld29yay5kYXJ0OjpTdGF0ZWxlc3NXaWRnZXQgdG8gYmxhY2tqYWNrYXBwOjptYWluLmRhcnQ6Ok15QXBwLS0+PGcgaWQ9ImxpbmtfZmx1dHRlcjo6c3JjOjp3aWRnZXRzOjpmcmFtZXdvcmsuZGFydDo6U3RhdGVsZXNzV2lkZ2V0X2JsYWNramFja2FwcDo6bWFpbi5kYXJ0OjpNeUFwcCI+PHBhdGggY29kZUxpbmU9IjcwIiBkPSJNMTk5NS40MSwxNTguMTMgQzE5NzAuOTUsMjEyLjkxIDE5MjguNTIsMzA3Ljk0IDE5MDYuNzUsMzU2LjcgIiBmaWxsPSJub25lIiBpZD0iZmx1dHRlcjo6c3JjOjp3aWRnZXRzOjpmcmFtZXdvcmsuZGFydDo6U3RhdGVsZXNzV2lkZ2V0LWJhY2t0by1ibGFja2phY2thcHA6Om1haW4uZGFydDo6TXlBcHAiIHN0eWxlPSJzdHJva2U6IzE4MTgxODtzdHJva2Utd2lkdGg6MS4wOyIvPjxwb2x5Z29uIGZpbGw9Im5vbmUiIHBvaW50cz0iMTk4OS4xNCwxNTUuMDEsMjAwMy42OCwxMzkuNjEsMjAwMS45MiwxNjAuNzIsMTk4OS4xNCwxNTUuMDEiIHN0eWxlPSJzdHJva2U6IzE4MTgxODtzdHJva2Utd2lkdGg6MS4wOyIvPjwvZz48IS0tTUQ1PVtlOTBmYzY1YTNiYjI5NmY5OTliMzJkYzI0OGY4ZGY3OV0KcmV2ZXJzZSBsaW5rIGJsYWNramFja2FwcDo6bW9kZWxzOjpjYXJkX21vZGVsLmRhcnQ6OkNhcmRNb2RlbCB0byBibGFja2phY2thcHA6Om1vZGVsczo6Y2FyZF9tb2RlbC5kYXJ0OjpTdWl0LS0+PGcgaWQ9ImxpbmtfYmxhY2tqYWNrYXBwOjptb2RlbHM6OmNhcmRfbW9kZWwuZGFydDo6Q2FyZE1vZGVsX2JsYWNramFja2FwcDo6bW9kZWxzOjpjYXJkX21vZGVsLmRhcnQ6OlN1aXQiPjxwYXRoIGNvZGVMaW5lPSI4MiIgZD0iTTYxOC4wNCwyMDUuNzQgQzYxNi45LDI0MC4wMSA2MTUuNjEsMjc4Ljc3IDYxNC41MiwzMTEuNjcgIiBmaWxsPSJub25lIiBpZD0iYmxhY2tqYWNrYXBwOjptb2RlbHM6OmNhcmRfbW9kZWwuZGFydDo6Q2FyZE1vZGVsLWJhY2t0by1ibGFja2phY2thcHA6Om1vZGVsczo6Y2FyZF9tb2RlbC5kYXJ0OjpTdWl0IiBzdHlsZT0ic3Ryb2tlOiMxODE4MTg7c3Ryb2tlLXdpZHRoOjEuMDsiLz48cG9seWdvbiBmaWxsPSJub25lIiBwb2ludHM9IjYxOC40OCwxOTIuMzUsNjE0LjI4NDUsMTk4LjIxNDksNjE4LjA4NDYsMjA0LjM0MzUsNjIyLjI4MDEsMTk4LjQ3ODUsNjE4LjQ4LDE5Mi4zNSIgc3R5bGU9InN0cm9rZTojMTgxODE4O3N0cm9rZS13aWR0aDoxLjA7Ii8+PC9nPjwhLS1NRDU9WzNiNjM1M2FjNDBhMTQ3NmY4OTFhYjBmZGY0NTBlNjQ4XQpyZXZlcnNlIGxpbmsgYmxhY2tqYWNrYXBwOjptb2RlbHM6OmNhcmRfbW9kZWwuZGFydDo6U3VpdCB0byBibGFja2phY2thcHA6Om1vZGVsczo6Y2FyZF9tb2RlbC5kYXJ0OjpTdWl0LS0+PGcgaWQ9ImxpbmtfYmxhY2tqYWNrYXBwOjptb2RlbHM6OmNhcmRfbW9kZWwuZGFydDo6U3VpdF9ibGFja2phY2thcHA6Om1vZGVsczo6Y2FyZF9tb2RlbC5kYXJ0OjpTdWl0Ij48cGF0aCBjb2RlTGluZT0iOTQiIGQ9Ik02OTcuMjEsMzQ4LjY2IEM3MTAuNDcsMzU0LjYzIDcxOS41LDM2Ny45MSA3MTkuNSwzODguNSBDNzE5LjUsNDE1LjEyIDcwNC40LDQyOS41MiA2ODQuNiw0MzEuNzEgIiBmaWxsPSJub25lIiBpZD0iYmxhY2tqYWNrYXBwOjptb2RlbHM6OmNhcmRfbW9kZWwuZGFydDo6U3VpdC1iYWNrdG8tYmxhY2tqYWNrYXBwOjptb2RlbHM6OmNhcmRfbW9kZWwuZGFydDo6U3VpdCIgc3R5bGU9InN0cm9rZTojMTgxODE4O3N0cm9rZS13aWR0aDoxLjA7Ii8+PHBvbHlnb24gZmlsbD0ibm9uZSIgcG9pbnRzPSI2ODQuNiwzNDUuMjksNjg5LjM2OTEsMzUwLjY5ODksNjk2LjE5NjEsMzQ4LjM3Nyw2OTEuNDI3MSwzNDIuOTY4MSw2ODQuNiwzNDUuMjkiIHN0eWxlPSJzdHJva2U6IzE4MTgxODtzdHJva2Utd2lkdGg6MS4wOyIvPjwvZz48IS0tTUQ1PVthOGU3YzllZDNmZDJmNGNhNGEzMDQzZTBlYTFkYjE0MV0KcmV2ZXJzZSBsaW5rIGRhcnQ6OmNvcmU6OkVudW0gdG8gYmxhY2tqYWNrYXBwOjptb2RlbHM6OmNhcmRfbW9kZWwuZGFydDo6U3VpdC0tPjxnIGlkPSJsaW5rX2RhcnQ6OmNvcmU6OkVudW1fYmxhY2tqYWNrYXBwOjptb2RlbHM6OmNhcmRfbW9kZWwuZGFydDo6U3VpdCI+PHBhdGggY29kZUxpbmU9Ijk1IiBkPSJNNDE2LjI4LDE0OC4yNSBDNDM5Ljg1LDE2NS4zMiA0NjcuOTYsMTg3LjYzIDQ5MCwyMTEgQzUxOC42MywyNDEuMzUgNTQ1LjU2LDI3OC45MiA1NjYuOCwzMTEuNiAiIGZpbGw9Im5vbmUiIGlkPSJkYXJ0Ojpjb3JlOjpFbnVtLWJhY2t0by1ibGFja2phY2thcHA6Om1vZGVsczo6Y2FyZF9tb2RlbC5kYXJ0OjpTdWl0IiBzdHlsZT0ic3Ryb2tlOiMxODE4MTg7c3Ryb2tlLXdpZHRoOjEuMDsiLz48cG9seWdvbiBmaWxsPSJub25lIiBwb2ludHM9IjQxMiwxNTMuOCwzOTkuNjksMTM2LjU1LDQyMC4wNiwxNDIuMzYsNDEyLDE1My44IiBzdHlsZT0ic3Ryb2tlOiMxODE4MTg7c3Ryb2tlLXdpZHRoOjEuMDsiLz48L2c+PCEtLU1ENT1bZWQ4MmNkOGY5YzJhMGU3YTY2Y2EyYjFkN2ZmZWFlYTFdCnJldmVyc2UgbGluayBmbHV0dGVyOjpzcmM6OndpZGdldHM6OmZyYW1ld29yay5kYXJ0OjpTdGF0ZWZ1bFdpZGdldCB0byBibGFja2phY2thcHA6OnNjcmVlbnM6OmdhbWVfc2NyZWVuLmRhcnQ6OkdhbWVTY3JlZW4tLT48ZyBpZD0ibGlua19mbHV0dGVyOjpzcmM6OndpZGdldHM6OmZyYW1ld29yay5kYXJ0OjpTdGF0ZWZ1bFdpZGdldF9ibGFja2phY2thcHA6OnNjcmVlbnM6OmdhbWVfc2NyZWVuLmRhcnQ6OkdhbWVTY3JlZW4iPjxwYXRoIGNvZGVMaW5lPSIxMTgiIGQ9Ik0yMTc1LjM3LDE1OS41OCBDMjE2NS42MywyMTQuNTggMjE0OS4wMiwzMDguMzcgMjE0MC40NiwzNTYuNyAiIGZpbGw9Im5vbmUiIGlkPSJmbHV0dGVyOjpzcmM6OndpZGdldHM6OmZyYW1ld29yay5kYXJ0OjpTdGF0ZWZ1bFdpZGdldC1iYWNrdG8tYmxhY2tqYWNrYXBwOjpzY3JlZW5zOjpnYW1lX3NjcmVlbi5kYXJ0OjpHYW1lU2NyZWVuIiBzdHlsZT0ic3Ryb2tlOiMxODE4MTg7c3Ryb2tlLXdpZHRoOjEuMDsiLz48cG9seWdvbiBmaWxsPSJub25lIiBwb2ludHM9IjIxNjguNTMsMTU4LjA4LDIxNzguOTEsMTM5LjYxLDIxODIuMzEsMTYwLjUyLDIxNjguNTMsMTU4LjA4IiBzdHlsZT0ic3Ryb2tlOiMxODE4MTg7c3Ryb2tlLXdpZHRoOjEuMDsiLz48L2c+PCEtLU1ENT1bZjE5OWU0OGNjMmI3NmY4OTI2OTQ2MGZiNmExYTAyNDRdCnJldmVyc2UgbGluayBmbHV0dGVyOjpzcmM6OndpZGdldHM6OmZyYW1ld29yay5kYXJ0OjpTdGF0ZSB0byBibGFja2phY2thcHA6OnNjcmVlbnM6OmdhbWVfc2NyZWVuLmRhcnQ6Ol9HYW1lU2NyZWVuU3RhdGUtLT48ZyBpZD0ibGlua19mbHV0dGVyOjpzcmM6OndpZGdldHM6OmZyYW1ld29yay5kYXJ0OjpTdGF0ZV9ibGFja2phY2thcHA6OnNjcmVlbnM6OmdhbWVfc2NyZWVuLmRhcnQ6Ol9HYW1lU2NyZWVuU3RhdGUiPjxwYXRoIGNvZGVMaW5lPSIxMjYiIGQ9Ik0yMzI0Ljc2LDE1OS40MiBDMjMzMy43NywyMDkuMjMgMjM0OC41NiwyOTEuMDUgMjM1Ny43NywzNDEuOTYgIiBmaWxsPSJub25lIiBpZD0iZmx1dHRlcjo6c3JjOjp3aWRnZXRzOjpmcmFtZXdvcmsuZGFydDo6U3RhdGUtYmFja3RvLWJsYWNramFja2FwcDo6c2NyZWVuczo6Z2FtZV9zY3JlZW4uZGFydDo6X0dhbWVTY3JlZW5TdGF0ZSIgc3R5bGU9InN0cm9rZTojMTgxODE4O3N0cm9rZS13aWR0aDoxLjA7Ii8+PHBvbHlnb24gZmlsbD0ibm9uZSIgcG9pbnRzPSIyMzE3Ljg1LDE2MC41MywyMzIxLjE4LDEzOS42MSwyMzMxLjYyLDE1OC4wNCwyMzE3Ljg1LDE2MC41MyIgc3R5bGU9InN0cm9rZTojMTgxODE4O3N0cm9rZS13aWR0aDoxLjA7Ii8+PC9nPjwhLS1NRDU9WzYyMmY0MTM2OThhZGMxNmQ0MmVhMTA4ODM0ZTM1NWFlXQpyZXZlcnNlIGxpbmsgZmx1dHRlcjo6c3JjOjp3aWRnZXRzOjpmcmFtZXdvcmsuZGFydDo6U3RhdGVmdWxXaWRnZXQgdG8gYmxhY2tqYWNrYXBwOjpzY3JlZW5zOjpob21lcGFnZS5kYXJ0OjpIb21lcGFnZS0tPjxnIGlkPSJsaW5rX2ZsdXR0ZXI6OnNyYzo6d2lkZ2V0czo6ZnJhbWV3b3JrLmRhcnQ6OlN0YXRlZnVsV2lkZ2V0X2JsYWNramFja2FwcDo6c2NyZWVuczo6aG9tZXBhZ2UuZGFydDo6SG9tZXBhZ2UiPjxwYXRoIGNvZGVMaW5lPSIxMzIiIGQ9Ik0yMjE0LjMxLDE1NC44OSBDMjIyOC40MywxNjkuMyAyMjQ2LjM2LDE4NC4xIDIyNjYsMTkyIEMyMzQwLjY3LDIyMi4wMSAyOTE3LjI0LDE3Ni42MiAyOTkwLDIxMSBDMzA1NS4yNiwyNDEuODQgMzEwMy43NCwzMTUuMTIgMzEyNy4yMiwzNTYuOTIgIiBmaWxsPSJub25lIiBpZD0iZmx1dHRlcjo6c3JjOjp3aWRnZXRzOjpmcmFtZXdvcmsuZGFydDo6U3RhdGVmdWxXaWRnZXQtYmFja3RvLWJsYWNramFja2FwcDo6c2NyZWVuczo6aG9tZXBhZ2UuZGFydDo6SG9tZXBhZ2UiIHN0eWxlPSJzdHJva2U6IzE4MTgxODtzdHJva2Utd2lkdGg6MS4wOyIvPjxwb2x5Z29uIGZpbGw9Im5vbmUiIHBvaW50cz0iMjIwOC44MiwxNTkuMjUsMjIwMC41NywxMzkuNzMsMjIxOS4xOSwxNDkuODUsMjIwOC44MiwxNTkuMjUiIHN0eWxlPSJzdHJva2U6IzE4MTgxODtzdHJva2Utd2lkdGg6MS4wOyIvPjwvZz48IS0tTUQ1PVswNTU5M2VmNjIyZjM5YWQxZTBlNzkxMGZjZjgyZTU3YV0KcmV2ZXJzZSBsaW5rIGJsYWNramFja2FwcDo6c2NyZWVuczo6aG9tZXBhZ2UuZGFydDo6X0hvbWVQYWdlU3RhdGUgdG8gZmx1dHRlcjo6c3JjOjphbmltYXRpb246OmFuaW1hdGlvbl9jb250cm9sbGVyLmRhcnQ6OkFuaW1hdGlvbkNvbnRyb2xsZXItLT48ZyBpZD0ibGlua19ibGFja2phY2thcHA6OnNjcmVlbnM6OmhvbWVwYWdlLmRhcnQ6Ol9Ib21lUGFnZVN0YXRlX2ZsdXR0ZXI6OnNyYzo6YW5pbWF0aW9uOjphbmltYXRpb25fY29udHJvbGxlci5kYXJ0OjpBbmltYXRpb25Db250cm9sbGVyIj48cGF0aCBjb2RlTGluZT0iMTQzIiBkPSJNMzM3NC44Miw0NjcuNjEgQzMzMzMuNzYsNTEzLjMxIDMyODQuOCw1NjcuOCAzMjU3LjY4LDU5Ny45OCAiIGZpbGw9Im5vbmUiIGlkPSJibGFja2phY2thcHA6OnNjcmVlbnM6OmhvbWVwYWdlLmRhcnQ6Ol9Ib21lUGFnZVN0YXRlLWJhY2t0by1mbHV0dGVyOjpzcmM6OmFuaW1hdGlvbjo6YW5pbWF0aW9uX2NvbnRyb2xsZXIuZGFydDo6QW5pbWF0aW9uQ29udHJvbGxlciIgc3R5bGU9InN0cm9rZTojMTgxODE4O3N0cm9rZS13aWR0aDoxLjA7Ii8+PHBvbHlnb24gZmlsbD0ibm9uZSIgcG9pbnRzPSIzMzgzLjcyLDQ1Ny43MSwzMzc2LjczMjIsNDU5LjQ5MDUsMzM3NS42ODgxLDQ2Ni42MjU2LDMzODIuNjc1OSw0NjQuODQ1MSwzMzgzLjcyLDQ1Ny43MSIgc3R5bGU9InN0cm9rZTojMTgxODE4O3N0cm9rZS13aWR0aDoxLjA7Ii8+PC9nPjwhLS1NRDU9WzEyMmZjYzgxODY2ZGE3ZDNmMmJhODkzZDZkM2E4MjljXQpyZXZlcnNlIGxpbmsgYmxhY2tqYWNrYXBwOjpzY3JlZW5zOjpob21lcGFnZS5kYXJ0OjpfSG9tZVBhZ2VTdGF0ZSB0byBmbHV0dGVyOjpzcmM6OmFuaW1hdGlvbjo6YW5pbWF0aW9uLmRhcnQ6OkFuaW1hdGlvbjxkb3VibGU+LS0+PGcgaWQ9ImxpbmtfYmxhY2tqYWNrYXBwOjpzY3JlZW5zOjpob21lcGFnZS5kYXJ0OjpfSG9tZVBhZ2VTdGF0ZV9mbHV0dGVyOjpzcmM6OmFuaW1hdGlvbjo6YW5pbWF0aW9uLmRhcnQ6OkFuaW1hdGlvbiZsdDtkb3VibGUmZ3Q7Ij48cGF0aCBjb2RlTGluZT0iMTQ0IiBkPSJNMzUwNi4xOCw0NjguMTkgQzM1NDEuNjIsNTEzLjc3IDM1ODMuNzMsNTY3LjkzIDM2MDcuMSw1OTcuOTggIiBmaWxsPSJub25lIiBpZD0iYmxhY2tqYWNrYXBwOjpzY3JlZW5zOjpob21lcGFnZS5kYXJ0OjpfSG9tZVBhZ2VTdGF0ZS1iYWNrdG8tZmx1dHRlcjo6c3JjOjphbmltYXRpb246OmFuaW1hdGlvbi5kYXJ0OjpBbmltYXRpb24mbHQ7ZG91YmxlJmd0OyIgc3R5bGU9InN0cm9rZTojMTgxODE4O3N0cm9rZS13aWR0aDoxLjA7Ii8+PHBvbHlnb24gZmlsbD0ibm9uZSIgcG9pbnRzPSIzNDk4LjAzLDQ1Ny43MSwzNDk4LjU1MzUsNDY0LjkwMjEsMzUwNS4zOTM2LDQ2Ny4xODUxLDM1MDQuODcwMiw0NTkuOTkzLDM0OTguMDMsNDU3LjcxIiBzdHlsZT0ic3Ryb2tlOiMxODE4MTg7c3Ryb2tlLXdpZHRoOjEuMDsiLz48L2c+PCEtLU1ENT1bYzg2YzBiNzc3ZDgxMjE5M2UwZDFlYzMzZWZmMmYzMmZdCnJldmVyc2UgbGluayBibGFja2phY2thcHA6OnNjcmVlbnM6OmhvbWVwYWdlLmRhcnQ6Ol9Ib21lUGFnZVN0YXRlIHRvIGZsdXR0ZXI6OnNyYzo6YW5pbWF0aW9uOjphbmltYXRpb24uZGFydDo6QW5pbWF0aW9uU3RhdHVzLS0+PGcgaWQ9ImxpbmtfYmxhY2tqYWNrYXBwOjpzY3JlZW5zOjpob21lcGFnZS5kYXJ0OjpfSG9tZVBhZ2VTdGF0ZV9mbHV0dGVyOjpzcmM6OmFuaW1hdGlvbjo6YW5pbWF0aW9uLmRhcnQ6OkFuaW1hdGlvblN0YXR1cyI+PHBhdGggY29kZUxpbmU9IjE0NSIgZD0iTTM0NDUsNDcwLjc5IEMzNDQ1LDUxNS44MSAzNDQ1LDU2OC41IDM0NDUsNTk3Ljk4ICIgZmlsbD0ibm9uZSIgaWQ9ImJsYWNramFja2FwcDo6c2NyZWVuczo6aG9tZXBhZ2UuZGFydDo6X0hvbWVQYWdlU3RhdGUtYmFja3RvLWZsdXR0ZXI6OnNyYzo6YW5pbWF0aW9uOjphbmltYXRpb24uZGFydDo6QW5pbWF0aW9uU3RhdHVzIiBzdHlsZT0ic3Ryb2tlOiMxODE4MTg7c3Ryb2tlLXdpZHRoOjEuMDsiLz48cG9seWdvbiBmaWxsPSJub25lIiBwb2ludHM9IjM0NDUsNDU3LjcxLDM0NDEsNDYzLjcxLDM0NDUsNDY5LjcxLDM0NDksNDYzLjcxLDM0NDUsNDU3LjcxIiBzdHlsZT0ic3Ryb2tlOiMxODE4MTg7c3Ryb2tlLXdpZHRoOjEuMDsiLz48L2c+PCEtLU1ENT1bZWJmNDUwYjk5OWFhOGIwMTVlZDJlMjI4NzRiMTZmZDldCnJldmVyc2UgbGluayBmbHV0dGVyOjpzcmM6OndpZGdldHM6OmZyYW1ld29yay5kYXJ0OjpTdGF0ZSB0byBibGFja2phY2thcHA6OnNjcmVlbnM6OmhvbWVwYWdlLmRhcnQ6Ol9Ib21lUGFnZVN0YXRlLS0+PGcgaWQ9ImxpbmtfZmx1dHRlcjo6c3JjOjp3aWRnZXRzOjpmcmFtZXdvcmsuZGFydDo6U3RhdGVfYmxhY2tqYWNrYXBwOjpzY3JlZW5zOjpob21lcGFnZS5kYXJ0OjpfSG9tZVBhZ2VTdGF0ZSI+PHBhdGggY29kZUxpbmU9IjE0NiIgZD0iTTIzNzAuNzksMTE3LjAyIEMyNTQ4LjA0LDExOS40NyAzMTExLjU5LDEzMy4zNSAzMjczLDIxMSBDMzMyMy4zMiwyMzUuMjEgMzM2Ny4wMywyODAuNiAzMzk3LjgsMzE5LjI5ICIgZmlsbD0ibm9uZSIgaWQ9ImZsdXR0ZXI6OnNyYzo6d2lkZ2V0czo6ZnJhbWV3b3JrLmRhcnQ6OlN0YXRlLWJhY2t0by1ibGFja2phY2thcHA6OnNjcmVlbnM6OmhvbWVwYWdlLmRhcnQ6Ol9Ib21lUGFnZVN0YXRlIiBzdHlsZT0ic3Ryb2tlOiMxODE4MTg7c3Ryb2tlLXdpZHRoOjEuMDsiLz48cG9seWdvbiBmaWxsPSJub25lIiBwb2ludHM9IjIzNzAuNiwxMjQuMDIsMjM1MC42OSwxMTYuNzcsMjM3MC43NywxMTAuMDIsMjM3MC42LDEyNC4wMiIgc3R5bGU9InN0cm9rZTojMTgxODE4O3N0cm9rZS13aWR0aDoxLjA7Ii8+PC9nPjwhLS1NRDU9Wzc1ZjRlMTQ1NmUwYTQ3YjQyNDQ3ZDMzMTMyODBkZWIxXQpyZXZlcnNlIGxpbmsgZmx1dHRlcjo6c3JjOjp3aWRnZXRzOjp0aWNrZXJfcHJvdmlkZXIuZGFydDo6U2luZ2xlVGlja2VyUHJvdmlkZXJTdGF0ZU1peGluIHRvIGJsYWNramFja2FwcDo6c2NyZWVuczo6aG9tZXBhZ2UuZGFydDo6X0hvbWVQYWdlU3RhdGUtLT48ZyBpZD0ibGlua19mbHV0dGVyOjpzcmM6OndpZGdldHM6OnRpY2tlcl9wcm92aWRlci5kYXJ0OjpTaW5nbGVUaWNrZXJQcm92aWRlclN0YXRlTWl4aW5fYmxhY2tqYWNrYXBwOjpzY3JlZW5zOjpob21lcGFnZS5kYXJ0OjpfSG9tZVBhZ2VTdGF0ZSI+PHBhdGggY29kZUxpbmU9IjE0NyIgZD0iTTM0NDUsMTU5LjcxIEMzNDQ1LDIwMi42NiAzNDQ1LDI2OS4yIDM0NDUsMzE5LjI5ICIgZmlsbD0ibm9uZSIgaWQ9ImZsdXR0ZXI6OnNyYzo6d2lkZ2V0czo6dGlja2VyX3Byb3ZpZGVyLmRhcnQ6OlNpbmdsZVRpY2tlclByb3ZpZGVyU3RhdGVNaXhpbi1iYWNrdG8tYmxhY2tqYWNrYXBwOjpzY3JlZW5zOjpob21lcGFnZS5kYXJ0OjpfSG9tZVBhZ2VTdGF0ZSIgc3R5bGU9InN0cm9rZTojMTgxODE4O3N0cm9rZS13aWR0aDoxLjA7Ii8+PHBvbHlnb24gZmlsbD0ibm9uZSIgcG9pbnRzPSIzNDM4LDE1OS42MSwzNDQ1LDEzOS42MSwzNDUyLDE1OS42MSwzNDM4LDE1OS42MSIgc3R5bGU9InN0cm9rZTojMTgxODE4O3N0cm9rZS13aWR0aDoxLjA7Ii8+PC9nPjwhLS1NRDU9W2RkYjNmYjFkOTc3N2FiZGExNjUzMjJiYTk4YmM5ODcxXQpyZXZlcnNlIGxpbmsgZmx1dHRlcjo6c3JjOjp3aWRnZXRzOjpmcmFtZXdvcmsuZGFydDo6U3RhdGVmdWxXaWRnZXQgdG8gYmxhY2tqYWNrYXBwOjpzY3JlZW5zOjpzcGxhc2hzY3JlZW4uZGFydDo6U3BsYXNoU2NyZWVuLS0+PGcgaWQ9ImxpbmtfZmx1dHRlcjo6c3JjOjp3aWRnZXRzOjpmcmFtZXdvcmsuZGFydDo6U3RhdGVmdWxXaWRnZXRfYmxhY2tqYWNrYXBwOjpzY3JlZW5zOjpzcGxhc2hzY3JlZW4uZGFydDo6U3BsYXNoU2NyZWVuIj48cGF0aCBjb2RlTGluZT0iMTUzIiBkPSJNMjIxNC45LDE1NC40NiBDMjIyOS4wMiwxNjguNjggMjI0Ni43OSwxODMuNDQgMjI2NiwxOTIgQzIzNDMuMTIsMjI2LjM2IDIzNzguNjksMTc0Ljg4IDI0NTUsMjExIEMyNTI0LjQzLDI0My44NiAyNTgyLjQ2LDMxNS42NiAyNjExLjY3LDM1Ni44NCAiIGZpbGw9Im5vbmUiIGlkPSJmbHV0dGVyOjpzcmM6OndpZGdldHM6OmZyYW1ld29yay5kYXJ0OjpTdGF0ZWZ1bFdpZGdldC1iYWNrdG8tYmxhY2tqYWNrYXBwOjpzY3JlZW5zOjpzcGxhc2hzY3JlZW4uZGFydDo6U3BsYXNoU2NyZWVuIiBzdHlsZT0ic3Ryb2tlOiMxODE4MTg7c3Ryb2tlLXdpZHRoOjEuMDsiLz48cG9seWdvbiBmaWxsPSJub25lIiBwb2ludHM9IjIyMDkuNTYsMTU5LDIyMDEuMSwxMzkuNTcsMjIxOS44MywxNDkuNDgsMjIwOS41NiwxNTkiIHN0eWxlPSJzdHJva2U6IzE4MTgxODtzdHJva2Utd2lkdGg6MS4wOyIvPjwvZz48IS0tTUQ1PVthM2M0MTVhYzg3YTNhMDRmYTVkZmM3YWQ2OWIyMWY3ZF0KcmV2ZXJzZSBsaW5rIGZsdXR0ZXI6OnNyYzo6d2lkZ2V0czo6ZnJhbWV3b3JrLmRhcnQ6OlN0YXRlIHRvIGJsYWNramFja2FwcDo6c2NyZWVuczo6c3BsYXNoc2NyZWVuLmRhcnQ6OlN0YXJ0U3RhdGUtLT48ZyBpZD0ibGlua19mbHV0dGVyOjpzcmM6OndpZGdldHM6OmZyYW1ld29yay5kYXJ0OjpTdGF0ZV9ibGFja2phY2thcHA6OnNjcmVlbnM6OnNwbGFzaHNjcmVlbi5kYXJ0OjpTdGFydFN0YXRlIj48cGF0aCBjb2RlTGluZT0iMTYyIiBkPSJNMjM3MC45NywxMjEuOCBDMjQ3OS41NSwxMzMuMzUgMjcxOS43MiwxNjMuNjEgMjc4NiwyMTEgQzI4MjguMTQsMjQxLjEzIDI4NTUuNzEsMjk0LjMgMjg3MS42MywzMzQuNDMgIiBmaWxsPSJub25lIiBpZD0iZmx1dHRlcjo6c3JjOjp3aWRnZXRzOjpmcmFtZXdvcmsuZGFydDo6U3RhdGUtYmFja3RvLWJsYWNramFja2FwcDo6c2NyZWVuczo6c3BsYXNoc2NyZWVuLmRhcnQ6OlN0YXJ0U3RhdGUiIHN0eWxlPSJzdHJva2U6IzE4MTgxODtzdHJva2Utd2lkdGg6MS4wOyIvPjxwb2x5Z29uIGZpbGw9Im5vbmUiIHBvaW50cz0iMjM2OS45NywxMjguNzQsMjM1MC43OSwxMTkuNzEsMjM3MS40MSwxMTQuODEsMjM2OS45NywxMjguNzQiIHN0eWxlPSJzdHJva2U6IzE4MTgxODtzdHJva2Utd2lkdGg6MS4wOyIvPjwvZz48IS0tTUQ1PVszNDE0OThkYmRlODY3ZGVkMzU3NTUyNzBhNGQ0M2RiY10KcmV2ZXJzZSBsaW5rIGJsYWNramFja2FwcDo6c2VydmljZXM6OmFwaV9zZXJ2aWNlLmRhcnQ6OkFwaVNlcnZpY2UgdG8gYmxhY2tqYWNrYXBwOjpzZXJ2aWNlczo6ZGVja19zZXJ2aWNlLmRhcnQ6OkRlY2tTZXJ2aWNlLS0+PGcgaWQ9ImxpbmtfYmxhY2tqYWNrYXBwOjpzZXJ2aWNlczo6YXBpX3NlcnZpY2UuZGFydDo6QXBpU2VydmljZV9ibGFja2phY2thcHA6OnNlcnZpY2VzOjpkZWNrX3NlcnZpY2UuZGFydDo6RGVja1NlcnZpY2UiPjxwYXRoIGNvZGVMaW5lPSIxNzUiIGQ9Ik00NzEwLDE4Mi4yMSBDNDcxMCwyMzQuNDYgNDcxMCwzMDUuNzYgNDcxMCwzNDkuMTEgIiBmaWxsPSJub25lIiBpZD0iYmxhY2tqYWNrYXBwOjpzZXJ2aWNlczo6YXBpX3NlcnZpY2UuZGFydDo6QXBpU2VydmljZS1iYWNrdG8tYmxhY2tqYWNrYXBwOjpzZXJ2aWNlczo6ZGVja19zZXJ2aWNlLmRhcnQ6OkRlY2tTZXJ2aWNlIiBzdHlsZT0ic3Ryb2tlOiMxODE4MTg7c3Ryb2tlLXdpZHRoOjEuMDsiLz48cG9seWdvbiBmaWxsPSJub25lIiBwb2ludHM9IjQ3MDMsMTgyLjE3LDQ3MTAsMTYyLjE3LDQ3MTcsMTgyLjE2LDQ3MDMsMTgyLjE3IiBzdHlsZT0ic3Ryb2tlOiMxODE4MTg7c3Ryb2tlLXdpZHRoOjEuMDsiLz48L2c+PCEtLU1ENT1bMjY0YzRlNTlkZWQ4MjQ4YzdlZmMwYjgzZjE2MjkwYzRdCkBzdGFydHVtbA0Kc2V0IG5hbWVzcGFjZVNlcGFyYXRvciA6Og0KDQpjbGFzcyAiYmxhY2tqYWNrYXBwOjphcGk6OmNhcmR2YWx1ZS5kYXJ0OjpDYXJkVHlwZSIgew0KICAraW50IGluZGV4DQogIHtzdGF0aWN9ICtMaXN0PENhcmRUeXBlPiB2YWx1ZXMNCiAge3N0YXRpY30gK0NhcmRUeXBlIG9uZQ0KICB7c3RhdGljfSArQ2FyZFR5cGUgdHdvDQogIHtzdGF0aWN9ICtDYXJkVHlwZSB0aHJlZQ0KICB7c3RhdGljfSArQ2FyZFR5cGUgZm91cg0KICB7c3RhdGljfSArQ2FyZFR5cGUgZml2ZQ0KICB7c3RhdGljfSArQ2FyZFR5cGUgc2l4DQogIHtzdGF0aWN9ICtDYXJkVHlwZSBzZXZlbg0KICB7c3RhdGljfSArQ2FyZFR5cGUgZWlnaHQNCiAge3N0YXRpY30gK0NhcmRUeXBlIG5pbmUNCiAge3N0YXRpY30gK0NhcmRUeXBlIHRlbg0KICB7c3RhdGljfSArQ2FyZFR5cGUgamFjaw0KICB7c3RhdGljfSArQ2FyZFR5cGUgcXVlZW4NCiAge3N0YXRpY30gK0NhcmRUeXBlIGtpbmcNCn0NCg0KImJsYWNramFja2FwcDo6YXBpOjpjYXJkdmFsdWUuZGFydDo6Q2FyZFR5cGUiIG8tIC0gImJsYWNramFja2FwcDo6YXBpOjpjYXJkdmFsdWUuZGFydDo6Q2FyZFR5cGUiDQoiZGFydDo6Y29yZTo6RW51bSIgPHwtIC0gImJsYWNramFja2FwcDo6YXBpOjpjYXJkdmFsdWUuZGFydDo6Q2FyZFR5cGUiDQoNCmNsYXNzICJibGFja2phY2thcHA6OmFwaTo6Y2FyZHZhbHVlLmRhcnQ6OlN1aXQiIHsNCiAgK2ludCBpbmRleA0KICB7c3RhdGljfSArTGlzdDxTdWl0PiB2YWx1ZXMNCiAge3N0YXRpY30gK1N1aXQgc3BhZGVzDQogIHtzdGF0aWN9ICtTdWl0IGhlYXJ0cw0KICB7c3RhdGljfSArU3VpdCBkaWFtb25kcw0KICB7c3RhdGljfSArU3VpdCBjbHVicw0KICB7c3RhdGljfSArU3VpdCBqb2tlcg0KfQ0KDQoiYmxhY2tqYWNrYXBwOjphcGk6OmNhcmR2YWx1ZS5kYXJ0OjpTdWl0IiBvLSAtICJibGFja2phY2thcHA6OmFwaTo6Y2FyZHZhbHVlLmRhcnQ6OlN1aXQiDQoiZGFydDo6Y29yZTo6RW51bSIgPHwtIC0gImJsYWNramFja2FwcDo6YXBpOjpjYXJkdmFsdWUuZGFydDo6U3VpdCINCg0KY2xhc3MgImJsYWNramFja2FwcDo6YXBpOjpwbGF5aW5nY2FyZC5kYXJ0OjpQbGF5aW5nQ2FyZCIgew0KICArU3VpdCBzdWl0DQogICtDYXJkVHlwZSB2YWx1ZQ0KfQ0KDQoiYmxhY2tqYWNrYXBwOjphcGk6OnBsYXlpbmdjYXJkLmRhcnQ6OlBsYXlpbmdDYXJkIiBvLSAtICJibGFja2phY2thcHA6OmFwaTo6Y2FyZHZhbHVlLmRhcnQ6OlN1aXQiDQoiYmxhY2tqYWNrYXBwOjphcGk6OnBsYXlpbmdjYXJkLmRhcnQ6OlBsYXlpbmdDYXJkIiBvLSAtICJibGFja2phY2thcHA6OmFwaTo6Y2FyZHZhbHVlLmRhcnQ6OkNhcmRUeXBlIg0KDQpjbGFzcyAiYmxhY2tqYWNrYXBwOjpjb21wb25lbnRzOjpjYXJkYmFjay5kYXJ0OjpDYXJkQmFjayIgew0KICArZHluYW1pYyBjb2xvcg0KICArV2lkZ2V0IGJ1aWxkKCkNCn0NCg0KImZsdXR0ZXI6OnNyYzo6d2lkZ2V0czo6ZnJhbWV3b3JrLmRhcnQ6OlN0YXRlbGVzc1dpZGdldCIgPHwtIC0gImJsYWNramFja2FwcDo6Y29tcG9uZW50czo6Y2FyZGJhY2suZGFydDo6Q2FyZEJhY2siDQoNCmNsYXNzICJibGFja2phY2thcHA6OmNvbXBvbmVudHM6OmNhcmR0ZW1wbGF0ZS5kYXJ0OjpDYXJkVGVtcGxhdGUiIHsNCiAgK2R5bmFtaWMgc3VpdA0KICArZHluYW1pYyBudW1iZXINCiAgK1dpZGdldCBidWlsZCgpDQp9DQoNCiJmbHV0dGVyOjpzcmM6OndpZGdldHM6OmZyYW1ld29yay5kYXJ0OjpTdGF0ZWxlc3NXaWRnZXQiIDx8LSAtICJibGFja2phY2thcHA6OmNvbXBvbmVudHM6OmNhcmR0ZW1wbGF0ZS5kYXJ0OjpDYXJkVGVtcGxhdGUiDQoNCmNsYXNzICJibGFja2phY2thcHA6OmNvbXBvbmVudHM6OmdhbWVib2FyZC5kYXJ0OjpHYW1lQm9hcmQiIHsNCiAgK1dpZGdldCBidWlsZCgpDQp9DQoNCiJmbHV0dGVyOjpzcmM6OndpZGdldHM6OmZyYW1ld29yay5kYXJ0OjpTdGF0ZWxlc3NXaWRnZXQiIDx8LSAtICJibGFja2phY2thcHA6OmNvbXBvbmVudHM6OmdhbWVib2FyZC5kYXJ0OjpHYW1lQm9hcmQiDQoNCmNsYXNzICJibGFja2phY2thcHA6Om1haW4uZGFydDo6TXlBcHAiIHsNCiAgK1dpZGdldCBidWlsZCgpDQp9DQoNCiJmbHV0dGVyOjpzcmM6OndpZGdldHM6OmZyYW1ld29yay5kYXJ0OjpTdGF0ZWxlc3NXaWRnZXQiIDx8LSAtICJibGFja2phY2thcHA6Om1haW4uZGFydDo6TXlBcHAiDQoNCmNsYXNzICJibGFja2phY2thcHA6Om1vZGVsczo6Y2FyZF9tb2RlbC5kYXJ0OjpDYXJkTW9kZWwiIHsNCiAgK1N0cmluZyBpbWFnZQ0KICArU3VpdCBzdWl0DQogICtTdHJpbmcgdmFsdWUNCiAge3N0YXRpY30gK1N1aXQgc3RyaW5nVG9TdWl0KCkNCiAge3N0YXRpY30gK1N0cmluZyBzdWl0VG9TdHJpbmcoKQ0KICB7c3RhdGljfSArU3RyaW5nIHN1aXRUb1VuaWNvZGUoKQ0KICB7c3RhdGljfSArQ29sb3Igc3VpdFRvQ29sb3IoKQ0KfQ0KDQoiYmxhY2tqYWNrYXBwOjptb2RlbHM6OmNhcmRfbW9kZWwuZGFydDo6Q2FyZE1vZGVsIiBvLSAtICJibGFja2phY2thcHA6Om1vZGVsczo6Y2FyZF9tb2RlbC5kYXJ0OjpTdWl0Ig0KDQpjbGFzcyAiYmxhY2tqYWNrYXBwOjptb2RlbHM6OmNhcmRfbW9kZWwuZGFydDo6U3VpdCIgew0KICAraW50IGluZGV4DQogIHtzdGF0aWN9ICtMaXN0PFN1aXQ+IHZhbHVlcw0KICB7c3RhdGljfSArU3VpdCBoZWFydHMNCiAge3N0YXRpY30gK1N1aXQgY2x1YnMNCiAge3N0YXRpY30gK1N1aXQgZGlhbW9uZHMNCiAge3N0YXRpY30gK1N1aXQgc3BhZGVzDQogIHtzdGF0aWN9ICtTdWl0IG90aGVyDQp9DQoNCiJibGFja2phY2thcHA6Om1vZGVsczo6Y2FyZF9tb2RlbC5kYXJ0OjpTdWl0IiBvLSAtICJibGFja2phY2thcHA6Om1vZGVsczo6Y2FyZF9tb2RlbC5kYXJ0OjpTdWl0Ig0KImRhcnQ6OmNvcmU6OkVudW0iIDx8LSAtICJibGFja2phY2thcHA6Om1vZGVsczo6Y2FyZF9tb2RlbC5kYXJ0OjpTdWl0Ig0KDQpjbGFzcyAiYmxhY2tqYWNrYXBwOjptb2RlbHM6OmRlY2tfbW9kZWwuZGFydDo6RGVja01vZGVsIiB7DQogICtTdHJpbmcgZGVja0lkDQogICtib29sIHNodWZmbGVkDQogICtpbnQgcmVtYWluaW5nDQp9DQoNCmNsYXNzICJibGFja2phY2thcHA6Om1vZGVsczo6ZHJhd19tb2RlbC5kYXJ0OjpEcmF3TW9kZWwiIHsNCiAgK2ludCByZW1haW5pbmcNCiAgK0xpc3Q8Q2FyZE1vZGVsPiBjYXJkcw0KfQ0KDQpjbGFzcyAiYmxhY2tqYWNrYXBwOjptb2RlbHM6OnBsYXllcl9tb2RlbC5kYXJ0OjpQbGF5ZXJNb2RlbCIgew0KICArU3RyaW5nIG5hbWUNCiAgK2Jvb2wgaXNIdW1hbg0KICArTGlzdDxDYXJkTW9kZWw+IGNhcmRzDQp9DQoNCmNsYXNzICJibGFja2phY2thcHA6OnNjcmVlbnM6OmdhbWVfc2NyZWVuLmRhcnQ6OkdhbWVTY3JlZW4iIHsNCiAgK1N0YXRlPEdhbWVTY3JlZW4+IGNyZWF0ZVN0YXRlKCkNCn0NCg0KImZsdXR0ZXI6OnNyYzo6d2lkZ2V0czo6ZnJhbWV3b3JrLmRhcnQ6OlN0YXRlZnVsV2lkZ2V0IiA8fC0gLSAiYmxhY2tqYWNrYXBwOjpzY3JlZW5zOjpnYW1lX3NjcmVlbi5kYXJ0OjpHYW1lU2NyZWVuIg0KDQpjbGFzcyAiYmxhY2tqYWNrYXBwOjpzY3JlZW5zOjpnYW1lX3NjcmVlbi5kYXJ0OjpfR2FtZVNjcmVlblN0YXRlIiB7DQogICt2b2lkIGluaXRTdGF0ZSgpDQogICt2b2lkIHRlbXBGdW5jKCkNCiAgK1dpZGdldCBidWlsZCgpDQp9DQoNCiJmbHV0dGVyOjpzcmM6OndpZGdldHM6OmZyYW1ld29yay5kYXJ0OjpTdGF0ZSIgPHwtIC0gImJsYWNramFja2FwcDo6c2NyZWVuczo6Z2FtZV9zY3JlZW4uZGFydDo6X0dhbWVTY3JlZW5TdGF0ZSINCg0KY2xhc3MgImJsYWNramFja2FwcDo6c2NyZWVuczo6aG9tZXBhZ2UuZGFydDo6SG9tZXBhZ2UiIHsNCiAgK19Ib21lUGFnZVN0YXRlIGNyZWF0ZVN0YXRlKCkNCn0NCg0KImZsdXR0ZXI6OnNyYzo6d2lkZ2V0czo6ZnJhbWV3b3JrLmRhcnQ6OlN0YXRlZnVsV2lkZ2V0IiA8fC0gLSAiYmxhY2tqYWNrYXBwOjpzY3JlZW5zOjpob21lcGFnZS5kYXJ0OjpIb21lcGFnZSINCg0KY2xhc3MgImJsYWNramFja2FwcDo6c2NyZWVuczo6aG9tZXBhZ2UuZGFydDo6X0hvbWVQYWdlU3RhdGUiIHsNCiAgLUFuaW1hdGlvbkNvbnRyb2xsZXIgX2FuaW1hdGlvbkNvbnRyb2xsZXINCiAgLUFuaW1hdGlvbjxkb3VibGU+IF9hbmltYXRpb24NCiAgLUFuaW1hdGlvblN0YXR1cyBfYW5pbWF0aW9uU3RhdHVzDQogICt2b2lkIGluaXRTdGF0ZSgpDQogICtXaWRnZXQgYnVpbGQoKQ0KICArV2lkZ2V0IGdldEZsaXBwaW5nQ2FyZCgpDQp9DQoNCiJibGFja2phY2thcHA6OnNjcmVlbnM6OmhvbWVwYWdlLmRhcnQ6Ol9Ib21lUGFnZVN0YXRlIiBvLSAtICJmbHV0dGVyOjpzcmM6OmFuaW1hdGlvbjo6YW5pbWF0aW9uX2NvbnRyb2xsZXIuZGFydDo6QW5pbWF0aW9uQ29udHJvbGxlciINCiJibGFja2phY2thcHA6OnNjcmVlbnM6OmhvbWVwYWdlLmRhcnQ6Ol9Ib21lUGFnZVN0YXRlIiBvLSAtICJmbHV0dGVyOjpzcmM6OmFuaW1hdGlvbjo6YW5pbWF0aW9uLmRhcnQ6OkFuaW1hdGlvbjxkb3VibGU+Ig0KImJsYWNramFja2FwcDo6c2NyZWVuczo6aG9tZXBhZ2UuZGFydDo6X0hvbWVQYWdlU3RhdGUiIG8tIC0gImZsdXR0ZXI6OnNyYzo6YW5pbWF0aW9uOjphbmltYXRpb24uZGFydDo6QW5pbWF0aW9uU3RhdHVzIg0KImZsdXR0ZXI6OnNyYzo6d2lkZ2V0czo6ZnJhbWV3b3JrLmRhcnQ6OlN0YXRlIiA8fC0gLSAiYmxhY2tqYWNrYXBwOjpzY3JlZW5zOjpob21lcGFnZS5kYXJ0OjpfSG9tZVBhZ2VTdGF0ZSINCiJmbHV0dGVyOjpzcmM6OndpZGdldHM6OnRpY2tlcl9wcm92aWRlci5kYXJ0OjpTaW5nbGVUaWNrZXJQcm92aWRlclN0YXRlTWl4aW4iIDx8LSAtICJibGFja2phY2thcHA6OnNjcmVlbnM6OmhvbWVwYWdlLmRhcnQ6Ol9Ib21lUGFnZVN0YXRlIg0KDQpjbGFzcyAiYmxhY2tqYWNrYXBwOjpzY3JlZW5zOjpzcGxhc2hzY3JlZW4uZGFydDo6U3BsYXNoU2NyZWVuIiB7DQogICtTdGF0ZTxTdGF0ZWZ1bFdpZGdldD4gY3JlYXRlU3RhdGUoKQ0KfQ0KDQoiZmx1dHRlcjo6c3JjOjp3aWRnZXRzOjpmcmFtZXdvcmsuZGFydDo6U3RhdGVmdWxXaWRnZXQiIDx8LSAtICJibGFja2phY2thcHA6OnNjcmVlbnM6OnNwbGFzaHNjcmVlbi5kYXJ0OjpTcGxhc2hTY3JlZW4iDQoNCmNsYXNzICJibGFja2phY2thcHA6OnNjcmVlbnM6OnNwbGFzaHNjcmVlbi5kYXJ0OjpTdGFydFN0YXRlIiB7DQogICt2b2lkIGluaXRTdGF0ZSgpDQogICtkeW5hbWljIHN0YXJ0VGltZXIoKQ0KICArZHluYW1pYyByb3V0ZSgpDQogICtXaWRnZXQgYnVpbGQoKQ0KfQ0KDQoiZmx1dHRlcjo6c3JjOjp3aWRnZXRzOjpmcmFtZXdvcmsuZGFydDo6U3RhdGUiIDx8LSAtICJibGFja2phY2thcHA6OnNjcmVlbnM6OnNwbGFzaHNjcmVlbi5kYXJ0OjpTdGFydFN0YXRlIg0KDQpjbGFzcyAiYmxhY2tqYWNrYXBwOjpzZXJ2aWNlczo6YXBpX3NlcnZpY2UuZGFydDo6QXBpU2VydmljZSIgew0KICB7c3RhdGljfSArU3RyaW5nIGJhc2VVcmwNCiAgLVVyaSBfdXJsKCkNCiAgK0Z1dHVyZTxNYXA8U3RyaW5nLCBkeW5hbWljPj4gaHR0cEdldCgpDQp9DQoNCmNsYXNzICJibGFja2phY2thcHA6OnNlcnZpY2VzOjpkZWNrX3NlcnZpY2UuZGFydDo6RGVja1NlcnZpY2UiIHsNCiAgK0Z1dHVyZTxEZWNrTW9kZWw+IG5ld0RlY2soKQ0KICArRnV0dXJlPERyYXdNb2RlbD4gZHJhd0NhcmRzKCkNCn0NCg0KImJsYWNramFja2FwcDo6c2VydmljZXM6OmFwaV9zZXJ2aWNlLmRhcnQ6OkFwaVNlcnZpY2UiIDx8LSAtICJibGFja2phY2thcHA6OnNlcnZpY2VzOjpkZWNrX3NlcnZpY2UuZGFydDo6RGVja1NlcnZpY2UiDQpAZW5kdW1sDQoKUGxhbnRVTUwgdmVyc2lvbiAxLjIwMjIuNihUdWUgSnVuIDIxIDE3OjM0OjQ5IEdNVCAyMDIyKQpKYXZhIFJ1bnRpbWU6IE9wZW5KREsgUnVudGltZSBFbnZpcm9ubWVudApKVk06IE9wZW5KREsgNjQtQml0IFNlcnZlciBWTQpEZWZhdWx0IEVuY29kaW5nOiBVVEYtOApMYW5ndWFnZTogZW4KQ291bnRyeTogVVMKLS0+PC9nPjwvc3ZnPg==;" vertex="1" parent="1">
            <mxGeometry x="-3080" y="450" width="4885" height="669" as="geometry" />
          </mxCell>
        </UserObject>
      </root>
    </mxGraphModel>
  </diagram>
</mxfile>
